%TF.GenerationSoftware,KiCad,Pcbnew,(5.1.10)-1*%
%TF.CreationDate,2022-03-31T16:48:51+02:00*%
%TF.ProjectId,Shield,53686965-6c64-42e6-9b69-6361645f7063,rev?*%
%TF.SameCoordinates,Original*%
%TF.FileFunction,Copper,L2,Bot*%
%TF.FilePolarity,Positive*%
%FSLAX46Y46*%
G04 Gerber Fmt 4.6, Leading zero omitted, Abs format (unit mm)*
G04 Created by KiCad (PCBNEW (5.1.10)-1) date 2022-03-31 16:48:51*
%MOMM*%
%LPD*%
G01*
G04 APERTURE LIST*
%TA.AperFunction,NonConductor*%
%ADD10C,0.150000*%
%TD*%
%TA.AperFunction,ComponentPad*%
%ADD11O,2.540000X2.000000*%
%TD*%
%TA.AperFunction,ComponentPad*%
%ADD12R,2.540000X2.000000*%
%TD*%
%TA.AperFunction,ComponentPad*%
%ADD13O,2.000000X2.540000*%
%TD*%
%TA.AperFunction,ComponentPad*%
%ADD14C,2.000000*%
%TD*%
%TA.AperFunction,ComponentPad*%
%ADD15O,2.000000X2.000000*%
%TD*%
%TA.AperFunction,ComponentPad*%
%ADD16O,1.727200X2.032000*%
%TD*%
%TA.AperFunction,ComponentPad*%
%ADD17C,4.064000*%
%TD*%
%TA.AperFunction,ViaPad*%
%ADD18C,2.000000*%
%TD*%
%TA.AperFunction,Conductor*%
%ADD19C,0.600000*%
%TD*%
%TA.AperFunction,Conductor*%
%ADD20C,0.500000*%
%TD*%
%TA.AperFunction,Conductor*%
%ADD21C,0.254000*%
%TD*%
%TA.AperFunction,Conductor*%
%ADD22C,0.100000*%
%TD*%
G04 APERTURE END LIST*
D10*
X114160380Y-113091666D02*
X114084190Y-112863095D01*
X114084190Y-112482142D01*
X114160380Y-112329761D01*
X114236571Y-112253571D01*
X114388952Y-112177380D01*
X114541333Y-112177380D01*
X114693714Y-112253571D01*
X114769904Y-112329761D01*
X114846095Y-112482142D01*
X114922285Y-112786904D01*
X114998476Y-112939285D01*
X115074666Y-113015476D01*
X115227047Y-113091666D01*
X115379428Y-113091666D01*
X115531809Y-113015476D01*
X115608000Y-112939285D01*
X115684190Y-112786904D01*
X115684190Y-112405952D01*
X115608000Y-112177380D01*
X114084190Y-111263095D02*
X114160380Y-111415476D01*
X114236571Y-111491666D01*
X114388952Y-111567857D01*
X114846095Y-111567857D01*
X114998476Y-111491666D01*
X115074666Y-111415476D01*
X115150857Y-111263095D01*
X115150857Y-111034523D01*
X115074666Y-110882142D01*
X114998476Y-110805952D01*
X114846095Y-110729761D01*
X114388952Y-110729761D01*
X114236571Y-110805952D01*
X114160380Y-110882142D01*
X114084190Y-111034523D01*
X114084190Y-111263095D01*
X115150857Y-110272619D02*
X115150857Y-109663095D01*
X115684190Y-110044047D02*
X114312761Y-110044047D01*
X114160380Y-109967857D01*
X114084190Y-109815476D01*
X114084190Y-109663095D01*
X115150857Y-109358333D02*
X115150857Y-108748809D01*
X115684190Y-109129761D02*
X114312761Y-109129761D01*
X114160380Y-109053571D01*
X114084190Y-108901190D01*
X114084190Y-108748809D01*
X114084190Y-107529761D02*
X114922285Y-107529761D01*
X115074666Y-107605952D01*
X115150857Y-107758333D01*
X115150857Y-108063095D01*
X115074666Y-108215476D01*
X114160380Y-107529761D02*
X114084190Y-107682142D01*
X114084190Y-108063095D01*
X114160380Y-108215476D01*
X114312761Y-108291666D01*
X114465142Y-108291666D01*
X114617523Y-108215476D01*
X114693714Y-108063095D01*
X114693714Y-107682142D01*
X114769904Y-107529761D01*
X114160380Y-106844047D02*
X114084190Y-106691666D01*
X114084190Y-106386904D01*
X114160380Y-106234523D01*
X114312761Y-106158333D01*
X114388952Y-106158333D01*
X114541333Y-106234523D01*
X114617523Y-106386904D01*
X114617523Y-106615476D01*
X114693714Y-106767857D01*
X114846095Y-106844047D01*
X114922285Y-106844047D01*
X115074666Y-106767857D01*
X115150857Y-106615476D01*
X115150857Y-106386904D01*
X115074666Y-106234523D01*
X114693714Y-105472619D02*
X114693714Y-104253571D01*
X115684190Y-103720238D02*
X114084190Y-103186904D01*
X115684190Y-102653571D01*
X114084190Y-102120238D02*
X115150857Y-102120238D01*
X115684190Y-102120238D02*
X115608000Y-102196428D01*
X115531809Y-102120238D01*
X115608000Y-102044047D01*
X115684190Y-102120238D01*
X115531809Y-102120238D01*
X114084190Y-100672619D02*
X114922285Y-100672619D01*
X115074666Y-100748809D01*
X115150857Y-100901190D01*
X115150857Y-101205952D01*
X115074666Y-101358333D01*
X114160380Y-100672619D02*
X114084190Y-100825000D01*
X114084190Y-101205952D01*
X114160380Y-101358333D01*
X114312761Y-101434523D01*
X114465142Y-101434523D01*
X114617523Y-101358333D01*
X114693714Y-101205952D01*
X114693714Y-100825000D01*
X114769904Y-100672619D01*
X114084190Y-99682142D02*
X114160380Y-99834523D01*
X114312761Y-99910714D01*
X115684190Y-99910714D01*
X114084190Y-98844047D02*
X114160380Y-98996428D01*
X114312761Y-99072619D01*
X115684190Y-99072619D01*
X114084190Y-97548809D02*
X114922285Y-97548809D01*
X115074666Y-97625000D01*
X115150857Y-97777380D01*
X115150857Y-98082142D01*
X115074666Y-98234523D01*
X114160380Y-97548809D02*
X114084190Y-97701190D01*
X114084190Y-98082142D01*
X114160380Y-98234523D01*
X114312761Y-98310714D01*
X114465142Y-98310714D01*
X114617523Y-98234523D01*
X114693714Y-98082142D01*
X114693714Y-97701190D01*
X114769904Y-97548809D01*
X115150857Y-96786904D02*
X114084190Y-96786904D01*
X114998476Y-96786904D02*
X115074666Y-96710714D01*
X115150857Y-96558333D01*
X115150857Y-96329761D01*
X115074666Y-96177380D01*
X114922285Y-96101190D01*
X114084190Y-96101190D01*
X114160380Y-94729761D02*
X114084190Y-94882142D01*
X114084190Y-95186904D01*
X114160380Y-95339285D01*
X114312761Y-95415476D01*
X114922285Y-95415476D01*
X115074666Y-95339285D01*
X115150857Y-95186904D01*
X115150857Y-94882142D01*
X115074666Y-94729761D01*
X114922285Y-94653571D01*
X114769904Y-94653571D01*
X114617523Y-95415476D01*
X114084190Y-93967857D02*
X115150857Y-93967857D01*
X115684190Y-93967857D02*
X115608000Y-94044047D01*
X115531809Y-93967857D01*
X115608000Y-93891666D01*
X115684190Y-93967857D01*
X115531809Y-93967857D01*
X114084190Y-93358333D02*
X115150857Y-92520238D01*
X115150857Y-93358333D02*
X114084190Y-92520238D01*
X114693714Y-91910714D02*
X114693714Y-90691666D01*
X114084190Y-89929761D02*
X115684190Y-89929761D01*
X114084190Y-89015476D01*
X115684190Y-89015476D01*
X114084190Y-88025000D02*
X114160380Y-88177380D01*
X114236571Y-88253571D01*
X114388952Y-88329761D01*
X114846095Y-88329761D01*
X114998476Y-88253571D01*
X115074666Y-88177380D01*
X115150857Y-88025000D01*
X115150857Y-87796428D01*
X115074666Y-87644047D01*
X114998476Y-87567857D01*
X114846095Y-87491666D01*
X114388952Y-87491666D01*
X114236571Y-87567857D01*
X114160380Y-87644047D01*
X114084190Y-87796428D01*
X114084190Y-88025000D01*
X115150857Y-86120238D02*
X114084190Y-86120238D01*
X115150857Y-86805952D02*
X114312761Y-86805952D01*
X114160380Y-86729761D01*
X114084190Y-86577380D01*
X114084190Y-86348809D01*
X114160380Y-86196428D01*
X114236571Y-86120238D01*
X114084190Y-84672619D02*
X114922285Y-84672619D01*
X115074666Y-84748809D01*
X115150857Y-84901190D01*
X115150857Y-85205952D01*
X115074666Y-85358333D01*
X114160380Y-84672619D02*
X114084190Y-84825000D01*
X114084190Y-85205952D01*
X114160380Y-85358333D01*
X114312761Y-85434523D01*
X114465142Y-85434523D01*
X114617523Y-85358333D01*
X114693714Y-85205952D01*
X114693714Y-84825000D01*
X114769904Y-84672619D01*
X114084190Y-83682142D02*
X114160380Y-83834523D01*
X114312761Y-83910714D01*
X115684190Y-83910714D01*
D11*
%TO.P,U5,4*%
%TO.N,GND*%
X129898000Y-116205000D03*
%TO.P,U5,5*%
X137818000Y-116205000D03*
%TO.P,U5,3*%
%TO.N,SI*%
X129898000Y-113665000D03*
%TO.P,U5,6*%
%TO.N,GND*%
X137818000Y-113665000D03*
%TO.P,U5,2*%
%TO.N,SCK*%
X129898000Y-111125000D03*
%TO.P,U5,7*%
%TO.N,IN-*%
X137818000Y-111125000D03*
D12*
%TO.P,U5,1*%
%TO.N,CS*%
X129898000Y-108585000D03*
D11*
%TO.P,U5,8*%
%TO.N,+5V*%
X137818000Y-108585000D03*
%TD*%
%TO.P,U3,4*%
%TO.N,SDA*%
X175133000Y-110490000D03*
%TO.P,U3,3*%
%TO.N,SCL*%
X175133000Y-107950000D03*
%TO.P,U3,2*%
%TO.N,+5V*%
X175133000Y-105410000D03*
%TO.P,U3,1*%
%TO.N,GND*%
X175133000Y-102870000D03*
%TD*%
D13*
%TO.P,U4,4*%
%TO.N,RXD*%
X140698000Y-84455000D03*
%TO.P,U4,3*%
%TO.N,TXD*%
X138158000Y-84455000D03*
%TO.P,U4,2*%
%TO.N,GND*%
X135618000Y-84455000D03*
%TO.P,U4,1*%
%TO.N,+5V*%
X133078000Y-84455000D03*
%TD*%
%TO.P,U2,5*%
%TO.N,CLK*%
X157853000Y-85090000D03*
%TO.P,U2,4*%
%TO.N,DT*%
X155313000Y-85090000D03*
%TO.P,U2,3*%
%TO.N,SW*%
X152773000Y-85090000D03*
%TO.P,U2,2*%
%TO.N,+5V*%
X150233000Y-85090000D03*
%TO.P,U2,1*%
%TO.N,GND*%
X147693000Y-85090000D03*
%TD*%
D11*
%TO.P,U1,8*%
%TO.N,Net-(U1-Pad8)*%
X143256000Y-102870000D03*
D12*
%TO.P,U1,1*%
%TO.N,Net-(U1-Pad1)*%
X151130000Y-102870000D03*
D11*
%TO.P,U1,7*%
%TO.N,+5V*%
X143256000Y-100330000D03*
%TO.P,U1,2*%
%TO.N,IN-*%
X151130000Y-100330000D03*
%TO.P,U1,6*%
%TO.N,Net-(C4-Pad1)*%
X143256000Y-97790000D03*
%TO.P,U1,3*%
%TO.N,Net-(C1-Pad1)*%
X151130000Y-97790000D03*
%TO.P,U1,5*%
%TO.N,Net-(U1-Pad5)*%
X143256000Y-95250000D03*
%TO.P,U1,4*%
%TO.N,GND*%
X151130000Y-95250000D03*
%TD*%
D14*
%TO.P,Rsens1,2*%
%TO.N,+5V*%
X128778000Y-90210000D03*
%TO.P,Rsens1,1*%
%TO.N,Net-(R5-Pad2)*%
X128778000Y-95210000D03*
%TD*%
D15*
%TO.P,R6,2*%
%TO.N,Net-(C4-Pad1)*%
X164973000Y-107315000D03*
D14*
%TO.P,R6,1*%
%TO.N,Vadc*%
X164973000Y-114935000D03*
%TD*%
D15*
%TO.P,R5,2*%
%TO.N,Net-(R5-Pad2)*%
X128478000Y-101600000D03*
D14*
%TO.P,R5,1*%
%TO.N,Net-(C1-Pad1)*%
X138638000Y-101600000D03*
%TD*%
D15*
%TO.P,R3,2*%
%TO.N,Net-(C4-Pad1)*%
X170688000Y-99060000D03*
D14*
%TO.P,R3,1*%
%TO.N,IN-*%
X160528000Y-99060000D03*
%TD*%
D15*
%TO.P,R1,2*%
%TO.N,Net-(C1-Pad1)*%
X160528000Y-92710000D03*
D14*
%TO.P,R1,1*%
%TO.N,GND*%
X170688000Y-92710000D03*
%TD*%
%TO.P,C4,2*%
%TO.N,IN-*%
X164078905Y-88614629D03*
%TO.P,C4,1*%
%TO.N,Net-(C4-Pad1)*%
X165373000Y-83785000D03*
%TD*%
D16*
%TO.P,P1,1*%
%TO.N,Net-(P1-Pad1)*%
X138938000Y-123825000D03*
%TO.P,P1,2*%
%TO.N,/IOREF*%
X141478000Y-123825000D03*
%TO.P,P1,3*%
%TO.N,/Reset*%
X144018000Y-123825000D03*
%TO.P,P1,4*%
%TO.N,+3V3*%
X146558000Y-123825000D03*
%TO.P,P1,5*%
%TO.N,+5V*%
X149098000Y-123825000D03*
%TO.P,P1,6*%
%TO.N,GND*%
X151638000Y-123825000D03*
%TO.P,P1,7*%
X154178000Y-123825000D03*
%TO.P,P1,8*%
%TO.N,/Vin*%
X156718000Y-123825000D03*
%TD*%
%TO.P,P2,1*%
%TO.N,Vadc*%
X161798000Y-123825000D03*
%TO.P,P2,2*%
%TO.N,/A1*%
X164338000Y-123825000D03*
%TO.P,P2,3*%
%TO.N,/A2*%
X166878000Y-123825000D03*
%TO.P,P2,4*%
%TO.N,/A3*%
X169418000Y-123825000D03*
%TO.P,P2,5*%
%TO.N,SDA*%
X171958000Y-123825000D03*
%TO.P,P2,6*%
%TO.N,SCL*%
X174498000Y-123825000D03*
%TD*%
%TO.P,P3,1*%
%TO.N,Net-(P3-Pad1)*%
X129794000Y-75565000D03*
%TO.P,P3,2*%
%TO.N,Net-(P3-Pad2)*%
X132334000Y-75565000D03*
%TO.P,P3,3*%
%TO.N,/AREF*%
X134874000Y-75565000D03*
%TO.P,P3,4*%
%TO.N,GND*%
X137414000Y-75565000D03*
%TO.P,P3,5*%
%TO.N,SCK*%
X139954000Y-75565000D03*
%TO.P,P3,6*%
%TO.N,/12(MISO)*%
X142494000Y-75565000D03*
%TO.P,P3,7*%
%TO.N,SI*%
X145034000Y-75565000D03*
%TO.P,P3,8*%
%TO.N,CS*%
X147574000Y-75565000D03*
%TO.P,P3,9*%
%TO.N,TXD*%
X150114000Y-75565000D03*
%TO.P,P3,10*%
%TO.N,RXD*%
X152654000Y-75565000D03*
%TD*%
%TO.P,P4,1*%
%TO.N,/7*%
X156718000Y-75565000D03*
%TO.P,P4,2*%
%TO.N,/6(\u002A\u002A)*%
X159258000Y-75565000D03*
%TO.P,P4,3*%
%TO.N,/5(\u002A\u002A)*%
X161798000Y-75565000D03*
%TO.P,P4,4*%
%TO.N,SW*%
X164338000Y-75565000D03*
%TO.P,P4,5*%
%TO.N,DT*%
X166878000Y-75565000D03*
%TO.P,P4,6*%
%TO.N,CLK*%
X169418000Y-75565000D03*
%TO.P,P4,7*%
%TO.N,/1(Tx)*%
X171958000Y-75565000D03*
%TO.P,P4,8*%
%TO.N,/0(Rx)*%
X174498000Y-75565000D03*
%TD*%
D17*
%TO.P,P5,1*%
%TO.N,Net-(P5-Pad1)*%
X124968000Y-123825000D03*
%TD*%
%TO.P,P6,1*%
%TO.N,Net-(P6-Pad1)*%
X177038000Y-118745000D03*
%TD*%
%TO.P,P7,1*%
%TO.N,Net-(P7-Pad1)*%
X126238000Y-75565000D03*
%TD*%
%TO.P,P8,1*%
%TO.N,Net-(P8-Pad1)*%
X177038000Y-90805000D03*
%TD*%
D14*
%TO.P,C1,1*%
%TO.N,Net-(C1-Pad1)*%
X148058000Y-106345000D03*
%TO.P,C1,2*%
%TO.N,GND*%
X150558000Y-106345000D03*
%TD*%
%TO.P,C2,1*%
%TO.N,Vadc*%
X161163000Y-114935000D03*
%TO.P,C2,2*%
%TO.N,GND*%
X158663000Y-114935000D03*
%TD*%
%TO.P,C3,2*%
%TO.N,+5V*%
X149098000Y-118070000D03*
%TO.P,C3,1*%
%TO.N,GND*%
X149098000Y-115570000D03*
%TD*%
D18*
%TO.N,SI*%
X142748000Y-77952600D03*
X129426303Y-78254506D03*
%TD*%
D19*
%TO.N,+5V*%
X143531598Y-100330000D02*
X143256000Y-100330000D01*
X174247352Y-105410000D02*
X175133000Y-105410000D01*
X173513649Y-105410000D02*
X175133000Y-105410000D01*
X138863000Y-94020000D02*
X138938000Y-93945000D01*
X135053000Y-90210000D02*
X138863000Y-94020000D01*
X149098000Y-118070000D02*
X149098000Y-123825000D01*
X168290824Y-110632824D02*
X173513649Y-105410000D01*
X168128650Y-110794999D02*
X168290824Y-110632824D01*
X135948000Y-108585000D02*
X137818000Y-108585000D01*
X166528648Y-112395000D02*
X168290824Y-110632824D01*
X154178000Y-112395000D02*
X166528648Y-112395000D01*
X150705500Y-118070000D02*
X154178000Y-112395000D01*
X149098000Y-118070000D02*
X150705500Y-118070000D01*
X133858000Y-116205000D02*
X133858000Y-110675000D01*
X133858000Y-110675000D02*
X135948000Y-108585000D01*
X135723000Y-118070000D02*
X133858000Y-116205000D01*
X149098000Y-118070000D02*
X135723000Y-118070000D01*
X145288000Y-90805000D02*
X138938000Y-93945000D01*
X150233000Y-85860000D02*
X150233000Y-85090000D01*
X145288000Y-90805000D02*
X150233000Y-85860000D01*
%TO.N,Net-(C1-Pad1)*%
X155448000Y-97790000D02*
X160528000Y-92710000D01*
X151130000Y-97790000D02*
X155448000Y-97790000D01*
%TO.N,Vadc*%
X161163000Y-114935000D02*
X164973000Y-114935000D01*
X161163000Y-123190000D02*
X161798000Y-123825000D01*
X161163000Y-114935000D02*
X161163000Y-123190000D01*
%TO.N,IN-*%
X159258000Y-100330000D02*
X151130000Y-100330000D01*
X160528000Y-99060000D02*
X159258000Y-100330000D01*
%TO.N,Net-(C4-Pad1)*%
X168148000Y-96520000D02*
X170688000Y-99060000D01*
X168148000Y-86360000D02*
X168148000Y-96520000D01*
X164973000Y-83185000D02*
X168148000Y-86360000D01*
%TO.N,SDA*%
X171958000Y-114935000D02*
X171958000Y-123825000D01*
X175133000Y-112696495D02*
X171958000Y-114935000D01*
X175133000Y-110490000D02*
X175133000Y-112696495D01*
%TO.N,SCL*%
X175133000Y-107950000D02*
X174498000Y-107950000D01*
X174205999Y-116205000D02*
X174205999Y-123532999D01*
X177203010Y-109744412D02*
X177203010Y-113665000D01*
X177203010Y-113665000D02*
X174205999Y-116205000D01*
X175408598Y-107950000D02*
X177203010Y-109744412D01*
X174205999Y-123532999D02*
X174498000Y-123825000D01*
X175133000Y-107950000D02*
X175408598Y-107950000D01*
%TO.N,+5V*%
X133858000Y-84179402D02*
X133858000Y-84455000D01*
X133078000Y-89978000D02*
X133310000Y-90210000D01*
X133310000Y-90210000D02*
X135053000Y-90210000D01*
X128778000Y-90210000D02*
X133310000Y-90210000D01*
X133078000Y-85910000D02*
X128778000Y-90210000D01*
X133078000Y-84455000D02*
X133078000Y-85910000D01*
X138938000Y-97028000D02*
X138938000Y-93945000D01*
X142240000Y-100330000D02*
X138938000Y-97028000D01*
X143256000Y-100330000D02*
X142240000Y-100330000D01*
X133350000Y-94782000D02*
X131953000Y-93385000D01*
X131953000Y-93385000D02*
X128778000Y-90210000D01*
X133350000Y-105987000D02*
X133350000Y-94782000D01*
X135948000Y-108585000D02*
X133350000Y-105987000D01*
%TO.N,Net-(C1-Pad1)*%
X148457999Y-105945001D02*
X148058000Y-106345000D01*
X148058000Y-100162138D02*
X148058000Y-106345000D01*
X149990148Y-98229990D02*
X148058000Y-100162138D01*
X150414412Y-98229990D02*
X149990148Y-98229990D01*
X150854402Y-97790000D02*
X150414412Y-98229990D01*
X151130000Y-97790000D02*
X150854402Y-97790000D01*
X146453000Y-107950000D02*
X148058000Y-106345000D01*
X142113000Y-107950000D02*
X146453000Y-107950000D01*
X138638000Y-104475000D02*
X142113000Y-107950000D01*
X138638000Y-101600000D02*
X138638000Y-104475000D01*
%TO.N,IN-*%
X160528000Y-101092000D02*
X160528000Y-99060000D01*
X150495000Y-111125000D02*
X160528000Y-101092000D01*
X137818000Y-111125000D02*
X150495000Y-111125000D01*
X163068000Y-96520000D02*
X160528000Y-99060000D01*
X164078905Y-95509095D02*
X163068000Y-96520000D01*
X164078905Y-88614629D02*
X164078905Y-95509095D01*
%TO.N,Net-(C4-Pad1)*%
X164973000Y-104775000D02*
X170688000Y-99060000D01*
X164973000Y-107315000D02*
X164973000Y-104775000D01*
X163865000Y-83785000D02*
X165373000Y-83785000D01*
X159385000Y-88265000D02*
X163865000Y-83785000D01*
X147828000Y-93345000D02*
X152908000Y-88265000D01*
X152908000Y-88265000D02*
X159385000Y-88265000D01*
X147828000Y-95736402D02*
X147828000Y-93345000D01*
X145774402Y-97790000D02*
X147828000Y-95736402D01*
X143256000Y-97790000D02*
X145774402Y-97790000D01*
%TO.N,TXD*%
X144399000Y-81280000D02*
X150114000Y-75565000D01*
X144394020Y-81284980D02*
X144399000Y-81280000D01*
X138158000Y-82585000D02*
X139463000Y-81280000D01*
X138158000Y-82585000D02*
X138158000Y-84455000D01*
X139458020Y-81284980D02*
X138158000Y-82585000D01*
X144394020Y-81284980D02*
X139458020Y-81284980D01*
%TO.N,RXD*%
X143764000Y-84455000D02*
X145859500Y-82359500D01*
X140698000Y-84455000D02*
X143764000Y-84455000D01*
X145859500Y-82359500D02*
X152654000Y-75565000D01*
X145834010Y-82384990D02*
X145859500Y-82359500D01*
%TO.N,DT*%
X159423010Y-83019990D02*
X166878000Y-75565000D01*
X156607412Y-83019990D02*
X159423010Y-83019990D01*
X154813000Y-84814402D02*
X156607412Y-83019990D01*
X154813000Y-85090000D02*
X154813000Y-84814402D01*
%TO.N,SW*%
X159258000Y-80645000D02*
X164338000Y-75565000D01*
X154848000Y-80645000D02*
X159258000Y-80645000D01*
X152273000Y-83220000D02*
X154848000Y-80645000D01*
X152273000Y-85090000D02*
X152273000Y-83220000D01*
%TO.N,CLK*%
X169383099Y-75565000D02*
X169418000Y-75565000D01*
X159858099Y-85090000D02*
X169383099Y-75565000D01*
X157353000Y-85090000D02*
X159858099Y-85090000D01*
%TO.N,Net-(R5-Pad2)*%
X128778000Y-101300000D02*
X128478000Y-101600000D01*
X128778000Y-95210000D02*
X128778000Y-101300000D01*
%TO.N,SCK*%
X126238000Y-111125000D02*
X129898000Y-111125000D01*
X122428000Y-107315000D02*
X126238000Y-111125000D01*
X126328485Y-80554515D02*
X122428000Y-84455000D01*
X122428000Y-84455000D02*
X122428000Y-107315000D01*
X130265485Y-80554515D02*
X126328485Y-80554515D01*
X139954000Y-77216000D02*
X139588990Y-77581010D01*
X139954000Y-75565000D02*
X139954000Y-77216000D01*
X133238990Y-77581010D02*
X130265485Y-80554515D01*
X139588990Y-77581010D02*
X133238990Y-77581010D01*
D20*
%TO.N,SI*%
X145288000Y-75819000D02*
X145034000Y-75565000D01*
D19*
X145034000Y-75565000D02*
X145034000Y-75819000D01*
X142748000Y-77851000D02*
X145034000Y-75565000D01*
X129898000Y-113665000D02*
X126238000Y-113665000D01*
X126238000Y-113665000D02*
X119888000Y-107315000D01*
X119888000Y-107315000D02*
X119888000Y-84455000D01*
X119888000Y-84455000D02*
X125088495Y-79254505D01*
X125088495Y-79254505D02*
X128426304Y-79254505D01*
X128426304Y-79254505D02*
X129426303Y-78254506D01*
D20*
%TO.N,CS*%
X147828000Y-75819000D02*
X147574000Y-75565000D01*
D19*
X147574000Y-75717400D02*
X147574000Y-75565000D01*
X143538799Y-79752601D02*
X147574000Y-75717400D01*
X133607399Y-79752601D02*
X143538799Y-79752601D01*
X127782988Y-82275012D02*
X131084988Y-82275012D01*
X131084988Y-82275012D02*
X133607399Y-79752601D01*
X124968000Y-85090000D02*
X127782988Y-82275012D01*
X124968000Y-106045000D02*
X124968000Y-85090000D01*
X127508000Y-108585000D02*
X124968000Y-106045000D01*
X129898000Y-108585000D02*
X127508000Y-108585000D01*
%TD*%
D21*
%TO.N,GND*%
X176336001Y-71448800D02*
X176336001Y-75295796D01*
X176311967Y-75051779D01*
X176206720Y-74704825D01*
X176035807Y-74385070D01*
X175805798Y-74104802D01*
X175525529Y-73874793D01*
X175205774Y-73703880D01*
X174858820Y-73598633D01*
X174498000Y-73563095D01*
X174137179Y-73598633D01*
X173790225Y-73703880D01*
X173470470Y-73874793D01*
X173228000Y-74073782D01*
X172985529Y-73874793D01*
X172665774Y-73703880D01*
X172318820Y-73598633D01*
X171958000Y-73563095D01*
X171597179Y-73598633D01*
X171250225Y-73703880D01*
X170930470Y-73874793D01*
X170688000Y-74073782D01*
X170445529Y-73874793D01*
X170125774Y-73703880D01*
X169778820Y-73598633D01*
X169418000Y-73563095D01*
X169057179Y-73598633D01*
X168710225Y-73703880D01*
X168390470Y-73874793D01*
X168148000Y-74073782D01*
X167905529Y-73874793D01*
X167585774Y-73703880D01*
X167238820Y-73598633D01*
X166878000Y-73563095D01*
X166517179Y-73598633D01*
X166170225Y-73703880D01*
X165850470Y-73874793D01*
X165608000Y-74073782D01*
X165365529Y-73874793D01*
X165045774Y-73703880D01*
X164698820Y-73598633D01*
X164338000Y-73563095D01*
X163977179Y-73598633D01*
X163630225Y-73703880D01*
X163310470Y-73874793D01*
X163068000Y-74073782D01*
X162825529Y-73874793D01*
X162505774Y-73703880D01*
X162158820Y-73598633D01*
X161798000Y-73563095D01*
X161437179Y-73598633D01*
X161090225Y-73703880D01*
X160770470Y-73874793D01*
X160528000Y-74073782D01*
X160285529Y-73874793D01*
X159965774Y-73703880D01*
X159618820Y-73598633D01*
X159258000Y-73563095D01*
X158897179Y-73598633D01*
X158550225Y-73703880D01*
X158230470Y-73874793D01*
X157988000Y-74073782D01*
X157745529Y-73874793D01*
X157425774Y-73703880D01*
X157078820Y-73598633D01*
X156718000Y-73563095D01*
X156357179Y-73598633D01*
X156010225Y-73703880D01*
X155690470Y-73874793D01*
X155410202Y-74104802D01*
X155180193Y-74385071D01*
X155009280Y-74704826D01*
X154904033Y-75051780D01*
X154877400Y-75322188D01*
X154877400Y-75807813D01*
X154904033Y-76078221D01*
X155009280Y-76425175D01*
X155180193Y-76744930D01*
X155410202Y-77025198D01*
X155690471Y-77255207D01*
X156010226Y-77426120D01*
X156357180Y-77531367D01*
X156718000Y-77566905D01*
X157078821Y-77531367D01*
X157425775Y-77426120D01*
X157745530Y-77255207D01*
X157988000Y-77056218D01*
X158230471Y-77255207D01*
X158550226Y-77426120D01*
X158897180Y-77531367D01*
X159258000Y-77566905D01*
X159618821Y-77531367D01*
X159965775Y-77426120D01*
X160285530Y-77255207D01*
X160528000Y-77056218D01*
X160770471Y-77255207D01*
X160816982Y-77280068D01*
X158729050Y-79368000D01*
X154910726Y-79368000D01*
X154848000Y-79361822D01*
X154785274Y-79368000D01*
X154597664Y-79386478D01*
X154356949Y-79459498D01*
X154135104Y-79578076D01*
X153940656Y-79737656D01*
X153900670Y-79786379D01*
X151414380Y-82272670D01*
X151365657Y-82312656D01*
X151206077Y-82507104D01*
X151151166Y-82609836D01*
X151087499Y-82728949D01*
X151014478Y-82969665D01*
X151012013Y-82994695D01*
X150993225Y-82984653D01*
X150620559Y-82871606D01*
X150233000Y-82833435D01*
X149845440Y-82871606D01*
X149472774Y-82984653D01*
X149129324Y-83168232D01*
X148828286Y-83415286D01*
X148720322Y-83546841D01*
X148495761Y-83389990D01*
X148201355Y-83260856D01*
X148073434Y-83229876D01*
X147820000Y-83349223D01*
X147820000Y-84963000D01*
X147840000Y-84963000D01*
X147840000Y-85217000D01*
X147820000Y-85217000D01*
X147820000Y-85237000D01*
X147566000Y-85237000D01*
X147566000Y-85217000D01*
X146058000Y-85217000D01*
X146058000Y-85487000D01*
X146114193Y-85803532D01*
X146231058Y-86103020D01*
X146404105Y-86373954D01*
X146626683Y-86605922D01*
X146890239Y-86790010D01*
X147184645Y-86919144D01*
X147312566Y-86950124D01*
X147358607Y-86928442D01*
X144533608Y-89753442D01*
X139092806Y-92443855D01*
X136000335Y-89351385D01*
X135960344Y-89302656D01*
X135765896Y-89143076D01*
X135544051Y-89024498D01*
X135303336Y-88951478D01*
X135115726Y-88933000D01*
X135053000Y-88926822D01*
X134990274Y-88933000D01*
X133817608Y-88933000D01*
X133790895Y-88911077D01*
X133569051Y-88792499D01*
X133328335Y-88719478D01*
X133078000Y-88694822D01*
X132827665Y-88719478D01*
X132586949Y-88792499D01*
X132365105Y-88911077D01*
X132338392Y-88933000D01*
X131860951Y-88933000D01*
X133936620Y-86857331D01*
X133985344Y-86817344D01*
X134144924Y-86622896D01*
X134263502Y-86401051D01*
X134300432Y-86279308D01*
X134482714Y-86129714D01*
X134590678Y-85998159D01*
X134815239Y-86155010D01*
X135109645Y-86284144D01*
X135237566Y-86315124D01*
X135491000Y-86195777D01*
X135491000Y-84582000D01*
X135471000Y-84582000D01*
X135471000Y-84328000D01*
X135491000Y-84328000D01*
X135491000Y-82714223D01*
X135237566Y-82594876D01*
X135109645Y-82625856D01*
X134815239Y-82754990D01*
X134590678Y-82911841D01*
X134482714Y-82780286D01*
X134181676Y-82533232D01*
X133838225Y-82349653D01*
X133465559Y-82236606D01*
X133078000Y-82198435D01*
X132955445Y-82210506D01*
X134136350Y-81029601D01*
X137907448Y-81029601D01*
X137299385Y-81637665D01*
X137250656Y-81677656D01*
X137091076Y-81872105D01*
X136972498Y-82093950D01*
X136929224Y-82236606D01*
X136899478Y-82334665D01*
X136874822Y-82585000D01*
X136881000Y-82647727D01*
X136881000Y-82675474D01*
X136753286Y-82780286D01*
X136645322Y-82911841D01*
X136420761Y-82754990D01*
X136126355Y-82625856D01*
X135998434Y-82594876D01*
X135745000Y-82714223D01*
X135745000Y-84328000D01*
X135765000Y-84328000D01*
X135765000Y-84582000D01*
X135745000Y-84582000D01*
X135745000Y-86195777D01*
X135998434Y-86315124D01*
X136126355Y-86284144D01*
X136420761Y-86155010D01*
X136645323Y-85998159D01*
X136753287Y-86129714D01*
X137054325Y-86376768D01*
X137397775Y-86560347D01*
X137770441Y-86673394D01*
X138158000Y-86711565D01*
X138545560Y-86673394D01*
X138918226Y-86560347D01*
X139261676Y-86376768D01*
X139428001Y-86240270D01*
X139594325Y-86376768D01*
X139937775Y-86560347D01*
X140310441Y-86673394D01*
X140698000Y-86711565D01*
X141085560Y-86673394D01*
X141458226Y-86560347D01*
X141801676Y-86376768D01*
X142102714Y-86129714D01*
X142349768Y-85828676D01*
X142401443Y-85732000D01*
X143701274Y-85732000D01*
X143764000Y-85738178D01*
X143826726Y-85732000D01*
X144014336Y-85713522D01*
X144255051Y-85640502D01*
X144476896Y-85521924D01*
X144671344Y-85362344D01*
X144711335Y-85313615D01*
X145331950Y-84693000D01*
X146058000Y-84693000D01*
X146058000Y-84963000D01*
X147566000Y-84963000D01*
X147566000Y-83349223D01*
X147312566Y-83229876D01*
X147184645Y-83260856D01*
X146890239Y-83389990D01*
X146626683Y-83574078D01*
X146404105Y-83806046D01*
X146231058Y-84076980D01*
X146114193Y-84376468D01*
X146058000Y-84693000D01*
X145331950Y-84693000D01*
X146806829Y-83218122D01*
X146806834Y-83218116D01*
X152475615Y-77549335D01*
X152654000Y-77566905D01*
X153014821Y-77531367D01*
X153361775Y-77426120D01*
X153681530Y-77255207D01*
X153961798Y-77025198D01*
X154191807Y-76744930D01*
X154362720Y-76425174D01*
X154467967Y-76078220D01*
X154494600Y-75807812D01*
X154494600Y-75322187D01*
X154467967Y-75051779D01*
X154362720Y-74704825D01*
X154191807Y-74385070D01*
X153961798Y-74104802D01*
X153681529Y-73874793D01*
X153361774Y-73703880D01*
X153014820Y-73598633D01*
X152654000Y-73563095D01*
X152293179Y-73598633D01*
X151946225Y-73703880D01*
X151626470Y-73874793D01*
X151384000Y-74073782D01*
X151141529Y-73874793D01*
X150821774Y-73703880D01*
X150474820Y-73598633D01*
X150114000Y-73563095D01*
X149753179Y-73598633D01*
X149406225Y-73703880D01*
X149086470Y-73874793D01*
X148844000Y-74073782D01*
X148601529Y-73874793D01*
X148281774Y-73703880D01*
X147934820Y-73598633D01*
X147574000Y-73563095D01*
X147213179Y-73598633D01*
X146866225Y-73703880D01*
X146546470Y-73874793D01*
X146304000Y-74073782D01*
X146061529Y-73874793D01*
X145741774Y-73703880D01*
X145394820Y-73598633D01*
X145034000Y-73563095D01*
X144673179Y-73598633D01*
X144326225Y-73703880D01*
X144006470Y-73874793D01*
X143764000Y-74073782D01*
X143521529Y-73874793D01*
X143201774Y-73703880D01*
X142854820Y-73598633D01*
X142494000Y-73563095D01*
X142133179Y-73598633D01*
X141786225Y-73703880D01*
X141466470Y-73874793D01*
X141224000Y-74073782D01*
X140981529Y-73874793D01*
X140661774Y-73703880D01*
X140314820Y-73598633D01*
X139954000Y-73563095D01*
X139593179Y-73598633D01*
X139246225Y-73703880D01*
X138926470Y-73874793D01*
X138646202Y-74104802D01*
X138453014Y-74340205D01*
X138316035Y-74214267D01*
X138064919Y-74061314D01*
X137788789Y-73960291D01*
X137773026Y-73957642D01*
X137541000Y-74078783D01*
X137541000Y-75438000D01*
X137561000Y-75438000D01*
X137561000Y-75692000D01*
X137541000Y-75692000D01*
X137541000Y-75712000D01*
X137287000Y-75712000D01*
X137287000Y-75692000D01*
X137267000Y-75692000D01*
X137267000Y-75438000D01*
X137287000Y-75438000D01*
X137287000Y-74078783D01*
X137054974Y-73957642D01*
X137039211Y-73960291D01*
X136763081Y-74061314D01*
X136511965Y-74214267D01*
X136374987Y-74340204D01*
X136181798Y-74104802D01*
X135901529Y-73874793D01*
X135581774Y-73703880D01*
X135234820Y-73598633D01*
X134874000Y-73563095D01*
X134513179Y-73598633D01*
X134166225Y-73703880D01*
X133846470Y-73874793D01*
X133604000Y-74073782D01*
X133361529Y-73874793D01*
X133041774Y-73703880D01*
X132694820Y-73598633D01*
X132334000Y-73563095D01*
X131973179Y-73598633D01*
X131626225Y-73703880D01*
X131306470Y-73874793D01*
X131064000Y-74073782D01*
X130821529Y-73874793D01*
X130501774Y-73703880D01*
X130154820Y-73598633D01*
X129794000Y-73563095D01*
X129433179Y-73598633D01*
X129086225Y-73703880D01*
X128766470Y-73874793D01*
X128741323Y-73895431D01*
X128575243Y-73646874D01*
X128156126Y-73227757D01*
X127663296Y-72898459D01*
X127115693Y-72671634D01*
X126534361Y-72556000D01*
X125941639Y-72556000D01*
X125360307Y-72671634D01*
X124812704Y-72898459D01*
X124319874Y-73227757D01*
X123900757Y-73646874D01*
X123571459Y-74139704D01*
X123344634Y-74687307D01*
X123229000Y-75268639D01*
X123229000Y-75861361D01*
X123344634Y-76442693D01*
X123571459Y-76990296D01*
X123900757Y-77483126D01*
X124319874Y-77902243D01*
X124581890Y-78077317D01*
X124375599Y-78187581D01*
X124181151Y-78347161D01*
X124141165Y-78395884D01*
X119029380Y-83507670D01*
X118980657Y-83547656D01*
X118821077Y-83742104D01*
X118734276Y-83904498D01*
X118702499Y-83963949D01*
X118629478Y-84204665D01*
X118604822Y-84455000D01*
X118611001Y-84517736D01*
X118611000Y-107252274D01*
X118604822Y-107315000D01*
X118614368Y-107411923D01*
X118629478Y-107565335D01*
X118702498Y-107806050D01*
X118821076Y-108027895D01*
X118980656Y-108222344D01*
X119029385Y-108262335D01*
X125290669Y-114523620D01*
X125330656Y-114572344D01*
X125525104Y-114731924D01*
X125746949Y-114850502D01*
X125982060Y-114921822D01*
X125987664Y-114923522D01*
X126237999Y-114948178D01*
X126300725Y-114942000D01*
X128118474Y-114942000D01*
X128223286Y-115069714D01*
X128354841Y-115177678D01*
X128197990Y-115402239D01*
X128068856Y-115696645D01*
X128037876Y-115824566D01*
X128157223Y-116078000D01*
X129771000Y-116078000D01*
X129771000Y-116058000D01*
X130025000Y-116058000D01*
X130025000Y-116078000D01*
X131638777Y-116078000D01*
X131758124Y-115824566D01*
X131727144Y-115696645D01*
X131598010Y-115402239D01*
X131441159Y-115177678D01*
X131572714Y-115069714D01*
X131819768Y-114768676D01*
X132003347Y-114425226D01*
X132116394Y-114052560D01*
X132154565Y-113665000D01*
X132116394Y-113277440D01*
X132003347Y-112904774D01*
X131819768Y-112561324D01*
X131683270Y-112395000D01*
X131819768Y-112228676D01*
X132003347Y-111885226D01*
X132116394Y-111512560D01*
X132154565Y-111125000D01*
X132116394Y-110737440D01*
X132003347Y-110364774D01*
X131919966Y-110208780D01*
X131984276Y-110130418D01*
X132074997Y-109960691D01*
X132130863Y-109776525D01*
X132149727Y-109585000D01*
X132149727Y-107585000D01*
X132130863Y-107393475D01*
X132074997Y-107209309D01*
X131984276Y-107039582D01*
X131862186Y-106890814D01*
X131713418Y-106768724D01*
X131543691Y-106678003D01*
X131359525Y-106622137D01*
X131168000Y-106603273D01*
X128628000Y-106603273D01*
X128436475Y-106622137D01*
X128252309Y-106678003D01*
X128082582Y-106768724D01*
X127933814Y-106890814D01*
X127811724Y-107039582D01*
X127796679Y-107067729D01*
X126245000Y-105516050D01*
X126245000Y-101405282D01*
X126501000Y-101405282D01*
X126501000Y-101794718D01*
X126576975Y-102176670D01*
X126726005Y-102536461D01*
X126942364Y-102860264D01*
X127217736Y-103135636D01*
X127541539Y-103351995D01*
X127901330Y-103501025D01*
X128283282Y-103577000D01*
X128672718Y-103577000D01*
X129054670Y-103501025D01*
X129414461Y-103351995D01*
X129738264Y-103135636D01*
X130013636Y-102860264D01*
X130229995Y-102536461D01*
X130379025Y-102176670D01*
X130455000Y-101794718D01*
X130455000Y-101405282D01*
X130379025Y-101023330D01*
X130229995Y-100663539D01*
X130055000Y-100401641D01*
X130055000Y-96728900D01*
X130313636Y-96470264D01*
X130529995Y-96146461D01*
X130679025Y-95786670D01*
X130755000Y-95404718D01*
X130755000Y-95015282D01*
X130679025Y-94633330D01*
X130529995Y-94273539D01*
X130313636Y-93949736D01*
X130038264Y-93674364D01*
X129714461Y-93458005D01*
X129354670Y-93308975D01*
X128972718Y-93233000D01*
X128583282Y-93233000D01*
X128201330Y-93308975D01*
X127841539Y-93458005D01*
X127517736Y-93674364D01*
X127242364Y-93949736D01*
X127026005Y-94273539D01*
X126876975Y-94633330D01*
X126801000Y-95015282D01*
X126801000Y-95404718D01*
X126876975Y-95786670D01*
X127026005Y-96146461D01*
X127242364Y-96470264D01*
X127501000Y-96728900D01*
X127501001Y-99875092D01*
X127217736Y-100064364D01*
X126942364Y-100339736D01*
X126726005Y-100663539D01*
X126576975Y-101023330D01*
X126501000Y-101405282D01*
X126245000Y-101405282D01*
X126245000Y-85618950D01*
X128311939Y-83552012D01*
X131022262Y-83552012D01*
X131084988Y-83558190D01*
X131147714Y-83552012D01*
X131205791Y-83546292D01*
X131129606Y-83797441D01*
X131101000Y-84087885D01*
X131101000Y-84822116D01*
X131129606Y-85112560D01*
X131242653Y-85485226D01*
X131400853Y-85781196D01*
X128949050Y-88233000D01*
X128583282Y-88233000D01*
X128201330Y-88308975D01*
X127841539Y-88458005D01*
X127517736Y-88674364D01*
X127242364Y-88949736D01*
X127026005Y-89273539D01*
X126876975Y-89633330D01*
X126801000Y-90015282D01*
X126801000Y-90404718D01*
X126876975Y-90786670D01*
X127026005Y-91146461D01*
X127242364Y-91470264D01*
X127517736Y-91745636D01*
X127841539Y-91961995D01*
X128201330Y-92111025D01*
X128583282Y-92187000D01*
X128949050Y-92187000D01*
X131094378Y-94332329D01*
X131094383Y-94332333D01*
X132073001Y-95310952D01*
X132073000Y-105924274D01*
X132066822Y-105987000D01*
X132084868Y-106170226D01*
X132091478Y-106237335D01*
X132164498Y-106478050D01*
X132283076Y-106699895D01*
X132442656Y-106894344D01*
X132491385Y-106934335D01*
X134142049Y-108585000D01*
X132999380Y-109727670D01*
X132950657Y-109767656D01*
X132791077Y-109962104D01*
X132695042Y-110141774D01*
X132672499Y-110183949D01*
X132599478Y-110424665D01*
X132574822Y-110675000D01*
X132581001Y-110737736D01*
X132581000Y-116142274D01*
X132574822Y-116205000D01*
X132587608Y-116334814D01*
X132599478Y-116455335D01*
X132672498Y-116696050D01*
X132791076Y-116917895D01*
X132950656Y-117112344D01*
X132999385Y-117152335D01*
X134775669Y-118928620D01*
X134815656Y-118977344D01*
X135010104Y-119136924D01*
X135231949Y-119255502D01*
X135472664Y-119328522D01*
X135660274Y-119347000D01*
X135660281Y-119347000D01*
X135722999Y-119353177D01*
X135785718Y-119347000D01*
X147579100Y-119347000D01*
X147821000Y-119588900D01*
X147821001Y-122328038D01*
X147585529Y-122134793D01*
X147265774Y-121963880D01*
X146918820Y-121858633D01*
X146558000Y-121823095D01*
X146197179Y-121858633D01*
X145850225Y-121963880D01*
X145530470Y-122134793D01*
X145288000Y-122333782D01*
X145045529Y-122134793D01*
X144725774Y-121963880D01*
X144378820Y-121858633D01*
X144018000Y-121823095D01*
X143657179Y-121858633D01*
X143310225Y-121963880D01*
X142990470Y-122134793D01*
X142748000Y-122333782D01*
X142505529Y-122134793D01*
X142185774Y-121963880D01*
X141838820Y-121858633D01*
X141478000Y-121823095D01*
X141117179Y-121858633D01*
X140770225Y-121963880D01*
X140450470Y-122134793D01*
X140208000Y-122333782D01*
X139965529Y-122134793D01*
X139645774Y-121963880D01*
X139298820Y-121858633D01*
X138938000Y-121823095D01*
X138577179Y-121858633D01*
X138230225Y-121963880D01*
X137910470Y-122134793D01*
X137630202Y-122364802D01*
X137400193Y-122645071D01*
X137229280Y-122964826D01*
X137124033Y-123311780D01*
X137097400Y-123582188D01*
X137097400Y-124067813D01*
X137124033Y-124338221D01*
X137229280Y-124685175D01*
X137400193Y-125004930D01*
X137630202Y-125285198D01*
X137910471Y-125515207D01*
X138230226Y-125686120D01*
X138577180Y-125791367D01*
X138938000Y-125826905D01*
X139298821Y-125791367D01*
X139645775Y-125686120D01*
X139965530Y-125515207D01*
X140208000Y-125316218D01*
X140450471Y-125515207D01*
X140770226Y-125686120D01*
X141117180Y-125791367D01*
X141478000Y-125826905D01*
X141838821Y-125791367D01*
X142185775Y-125686120D01*
X142505530Y-125515207D01*
X142748000Y-125316218D01*
X142990471Y-125515207D01*
X143310226Y-125686120D01*
X143657180Y-125791367D01*
X144018000Y-125826905D01*
X144378821Y-125791367D01*
X144725775Y-125686120D01*
X145045530Y-125515207D01*
X145288000Y-125316218D01*
X145530471Y-125515207D01*
X145850226Y-125686120D01*
X146197180Y-125791367D01*
X146558000Y-125826905D01*
X146918821Y-125791367D01*
X147265775Y-125686120D01*
X147585530Y-125515207D01*
X147828000Y-125316218D01*
X148070471Y-125515207D01*
X148390226Y-125686120D01*
X148737180Y-125791367D01*
X149098000Y-125826905D01*
X149458821Y-125791367D01*
X149805775Y-125686120D01*
X150125530Y-125515207D01*
X150405798Y-125285198D01*
X150598987Y-125049796D01*
X150735965Y-125175733D01*
X150987081Y-125328686D01*
X151263211Y-125429709D01*
X151278974Y-125432358D01*
X151511000Y-125311217D01*
X151511000Y-123952000D01*
X151765000Y-123952000D01*
X151765000Y-125311217D01*
X151997026Y-125432358D01*
X152012789Y-125429709D01*
X152288919Y-125328686D01*
X152540035Y-125175733D01*
X152756486Y-124976729D01*
X152908000Y-124769367D01*
X153059514Y-124976729D01*
X153275965Y-125175733D01*
X153527081Y-125328686D01*
X153803211Y-125429709D01*
X153818974Y-125432358D01*
X154051000Y-125311217D01*
X154051000Y-123952000D01*
X151765000Y-123952000D01*
X151511000Y-123952000D01*
X151491000Y-123952000D01*
X151491000Y-123698000D01*
X151511000Y-123698000D01*
X151511000Y-122338783D01*
X151765000Y-122338783D01*
X151765000Y-123698000D01*
X154051000Y-123698000D01*
X154051000Y-122338783D01*
X154305000Y-122338783D01*
X154305000Y-123698000D01*
X154325000Y-123698000D01*
X154325000Y-123952000D01*
X154305000Y-123952000D01*
X154305000Y-125311217D01*
X154537026Y-125432358D01*
X154552789Y-125429709D01*
X154828919Y-125328686D01*
X155080035Y-125175733D01*
X155217013Y-125049796D01*
X155410202Y-125285198D01*
X155690471Y-125515207D01*
X156010226Y-125686120D01*
X156357180Y-125791367D01*
X156718000Y-125826905D01*
X157078821Y-125791367D01*
X157425775Y-125686120D01*
X157745530Y-125515207D01*
X158025798Y-125285198D01*
X158255807Y-125004930D01*
X158426720Y-124685174D01*
X158531967Y-124338220D01*
X158558600Y-124067812D01*
X158558600Y-123582187D01*
X158531967Y-123311779D01*
X158426720Y-122964825D01*
X158255807Y-122645070D01*
X158025798Y-122364802D01*
X157745529Y-122134793D01*
X157425774Y-121963880D01*
X157078820Y-121858633D01*
X156718000Y-121823095D01*
X156357179Y-121858633D01*
X156010225Y-121963880D01*
X155690470Y-122134793D01*
X155410202Y-122364802D01*
X155217014Y-122600205D01*
X155080035Y-122474267D01*
X154828919Y-122321314D01*
X154552789Y-122220291D01*
X154537026Y-122217642D01*
X154305000Y-122338783D01*
X154051000Y-122338783D01*
X153818974Y-122217642D01*
X153803211Y-122220291D01*
X153527081Y-122321314D01*
X153275965Y-122474267D01*
X153059514Y-122673271D01*
X152908000Y-122880633D01*
X152756486Y-122673271D01*
X152540035Y-122474267D01*
X152288919Y-122321314D01*
X152012789Y-122220291D01*
X151997026Y-122217642D01*
X151765000Y-122338783D01*
X151511000Y-122338783D01*
X151278974Y-122217642D01*
X151263211Y-122220291D01*
X150987081Y-122321314D01*
X150735965Y-122474267D01*
X150598987Y-122600204D01*
X150405798Y-122364802D01*
X150375000Y-122339527D01*
X150375000Y-119588900D01*
X150616900Y-119347000D01*
X150668317Y-119347000D01*
X150756722Y-119352155D01*
X150856040Y-119338351D01*
X150955836Y-119328522D01*
X150980425Y-119321063D01*
X151005874Y-119317526D01*
X151100591Y-119284611D01*
X151196551Y-119255502D01*
X151219213Y-119243389D01*
X151243483Y-119234955D01*
X151329947Y-119184201D01*
X151418396Y-119136924D01*
X151438264Y-119120619D01*
X151460417Y-119107615D01*
X151535316Y-119040970D01*
X151612844Y-118977344D01*
X151629147Y-118957479D01*
X151648340Y-118940401D01*
X151708794Y-118860430D01*
X151772424Y-118782896D01*
X151814179Y-118704777D01*
X154082583Y-114997595D01*
X157021282Y-114997595D01*
X157065039Y-115316675D01*
X157170205Y-115621088D01*
X157263186Y-115795044D01*
X157527587Y-115890808D01*
X158483395Y-114935000D01*
X157527587Y-113979192D01*
X157263186Y-114074956D01*
X157122296Y-114364571D01*
X157040616Y-114676108D01*
X157021282Y-114997595D01*
X154082583Y-114997595D01*
X154893708Y-113672000D01*
X157753403Y-113672000D01*
X157707192Y-113799587D01*
X158663000Y-114755395D01*
X158677143Y-114741253D01*
X158856748Y-114920858D01*
X158842605Y-114935000D01*
X158856748Y-114949143D01*
X158677143Y-115128748D01*
X158663000Y-115114605D01*
X157707192Y-116070413D01*
X157802956Y-116334814D01*
X158092571Y-116475704D01*
X158404108Y-116557384D01*
X158725595Y-116576718D01*
X159044675Y-116532961D01*
X159349088Y-116427795D01*
X159523044Y-116334814D01*
X159592491Y-116143073D01*
X159627364Y-116195264D01*
X159886000Y-116453900D01*
X159886001Y-123127264D01*
X159879822Y-123190000D01*
X159904478Y-123440335D01*
X159957400Y-123614794D01*
X159957400Y-124067813D01*
X159984033Y-124338221D01*
X160089280Y-124685175D01*
X160260193Y-125004930D01*
X160490202Y-125285198D01*
X160770471Y-125515207D01*
X161090226Y-125686120D01*
X161437180Y-125791367D01*
X161798000Y-125826905D01*
X162158821Y-125791367D01*
X162505775Y-125686120D01*
X162825530Y-125515207D01*
X163068000Y-125316218D01*
X163310471Y-125515207D01*
X163630226Y-125686120D01*
X163977180Y-125791367D01*
X164338000Y-125826905D01*
X164698821Y-125791367D01*
X165045775Y-125686120D01*
X165365530Y-125515207D01*
X165608000Y-125316218D01*
X165850471Y-125515207D01*
X166170226Y-125686120D01*
X166517180Y-125791367D01*
X166878000Y-125826905D01*
X167238821Y-125791367D01*
X167585775Y-125686120D01*
X167905530Y-125515207D01*
X168148000Y-125316218D01*
X168390471Y-125515207D01*
X168710226Y-125686120D01*
X169057180Y-125791367D01*
X169418000Y-125826905D01*
X169778821Y-125791367D01*
X170125775Y-125686120D01*
X170445530Y-125515207D01*
X170688000Y-125316218D01*
X170930471Y-125515207D01*
X171250226Y-125686120D01*
X171597180Y-125791367D01*
X171958000Y-125826905D01*
X172318821Y-125791367D01*
X172665775Y-125686120D01*
X172985530Y-125515207D01*
X173228000Y-125316218D01*
X173470471Y-125515207D01*
X173790226Y-125686120D01*
X174137180Y-125791367D01*
X174498000Y-125826905D01*
X174858821Y-125791367D01*
X175205775Y-125686120D01*
X175525530Y-125515207D01*
X175805798Y-125285198D01*
X176035807Y-125004930D01*
X176206720Y-124685174D01*
X176311967Y-124338220D01*
X176338600Y-124067812D01*
X176338600Y-123582187D01*
X176311967Y-123311779D01*
X176206720Y-122964825D01*
X176035807Y-122645070D01*
X175805798Y-122364802D01*
X175525529Y-122134793D01*
X175482999Y-122112060D01*
X175482999Y-121324875D01*
X175612704Y-121411541D01*
X176160307Y-121638366D01*
X176741639Y-121754000D01*
X177334361Y-121754000D01*
X177915693Y-121638366D01*
X178463296Y-121411541D01*
X178956126Y-121082243D01*
X179375243Y-120663126D01*
X179704541Y-120170296D01*
X179931366Y-119622693D01*
X180047000Y-119041361D01*
X180047000Y-118448639D01*
X179931366Y-117867307D01*
X179704541Y-117319704D01*
X179375243Y-116826874D01*
X178956126Y-116407757D01*
X178463296Y-116078459D01*
X177915693Y-115851634D01*
X177334361Y-115736000D01*
X176741639Y-115736000D01*
X176732306Y-115737857D01*
X178020949Y-114645717D01*
X178110354Y-114572344D01*
X178156771Y-114515785D01*
X178207677Y-114463242D01*
X178236368Y-114418797D01*
X178269934Y-114377896D01*
X178304426Y-114313365D01*
X178344101Y-114251904D01*
X178363571Y-114202713D01*
X178388512Y-114156051D01*
X178409748Y-114086045D01*
X178436676Y-114018011D01*
X178446176Y-113965958D01*
X178461532Y-113915336D01*
X178468703Y-113842527D01*
X178481839Y-113770552D01*
X178480010Y-113654939D01*
X178480010Y-109807138D01*
X178486188Y-109744412D01*
X178461532Y-109494076D01*
X178388512Y-109253361D01*
X178374422Y-109227000D01*
X178269934Y-109031516D01*
X178110354Y-108837068D01*
X178061631Y-108797082D01*
X177373873Y-108109324D01*
X177389565Y-107950000D01*
X177351394Y-107562440D01*
X177238347Y-107189774D01*
X177054768Y-106846324D01*
X176918270Y-106680000D01*
X177054768Y-106513676D01*
X177238347Y-106170226D01*
X177351394Y-105797560D01*
X177389565Y-105410000D01*
X177351394Y-105022440D01*
X177238347Y-104649774D01*
X177054768Y-104306324D01*
X176807714Y-104005286D01*
X176676159Y-103897322D01*
X176833010Y-103672761D01*
X176962144Y-103378355D01*
X176993124Y-103250434D01*
X176873777Y-102997000D01*
X175260000Y-102997000D01*
X175260000Y-103017000D01*
X175006000Y-103017000D01*
X175006000Y-102997000D01*
X173392223Y-102997000D01*
X173272876Y-103250434D01*
X173303856Y-103378355D01*
X173432990Y-103672761D01*
X173589841Y-103897322D01*
X173458286Y-104005286D01*
X173344905Y-104143442D01*
X173263313Y-104151478D01*
X173022598Y-104224498D01*
X172800753Y-104343076D01*
X172606305Y-104502656D01*
X172566318Y-104551380D01*
X167432208Y-109685490D01*
X167432202Y-109685495D01*
X165999698Y-111118000D01*
X154215194Y-111118000D01*
X154126777Y-111112844D01*
X154027442Y-111126651D01*
X153927664Y-111136478D01*
X153903077Y-111143936D01*
X153877625Y-111147474D01*
X153782901Y-111180391D01*
X153686949Y-111209498D01*
X153664289Y-111221610D01*
X153640016Y-111230045D01*
X153553542Y-111280805D01*
X153465104Y-111328076D01*
X153445239Y-111344379D01*
X153423082Y-111357385D01*
X153348171Y-111424040D01*
X153270656Y-111487656D01*
X153254356Y-111507517D01*
X153235159Y-111524599D01*
X153174695Y-111604584D01*
X153111076Y-111682104D01*
X153069325Y-111760215D01*
X150735715Y-115573962D01*
X150739718Y-115507405D01*
X150695961Y-115188325D01*
X150590795Y-114883912D01*
X150497814Y-114709956D01*
X150233413Y-114614192D01*
X149277605Y-115570000D01*
X149291748Y-115584143D01*
X149112143Y-115763748D01*
X149098000Y-115749605D01*
X149083858Y-115763748D01*
X148904253Y-115584143D01*
X148918395Y-115570000D01*
X147962587Y-114614192D01*
X147698186Y-114709956D01*
X147557296Y-114999571D01*
X147475616Y-115311108D01*
X147456282Y-115632595D01*
X147500039Y-115951675D01*
X147605205Y-116256088D01*
X147698186Y-116430044D01*
X147889927Y-116499491D01*
X147837736Y-116534364D01*
X147579100Y-116793000D01*
X139612210Y-116793000D01*
X139647144Y-116713355D01*
X139678124Y-116585434D01*
X139558777Y-116332000D01*
X137945000Y-116332000D01*
X137945000Y-116352000D01*
X137691000Y-116352000D01*
X137691000Y-116332000D01*
X136077223Y-116332000D01*
X135985572Y-116526621D01*
X135135000Y-115676050D01*
X135135000Y-114045434D01*
X135957876Y-114045434D01*
X135988856Y-114173355D01*
X136117990Y-114467761D01*
X136302078Y-114731317D01*
X136514354Y-114935000D01*
X136302078Y-115138683D01*
X136117990Y-115402239D01*
X135988856Y-115696645D01*
X135957876Y-115824566D01*
X136077223Y-116078000D01*
X137691000Y-116078000D01*
X137691000Y-113792000D01*
X137945000Y-113792000D01*
X137945000Y-116078000D01*
X139558777Y-116078000D01*
X139678124Y-115824566D01*
X139647144Y-115696645D01*
X139518010Y-115402239D01*
X139333922Y-115138683D01*
X139121646Y-114935000D01*
X139333922Y-114731317D01*
X139518010Y-114467761D01*
X139532560Y-114434587D01*
X148142192Y-114434587D01*
X149098000Y-115390395D01*
X150053808Y-114434587D01*
X149958044Y-114170186D01*
X149668429Y-114029296D01*
X149356892Y-113947616D01*
X149035405Y-113928282D01*
X148716325Y-113972039D01*
X148411912Y-114077205D01*
X148237956Y-114170186D01*
X148142192Y-114434587D01*
X139532560Y-114434587D01*
X139647144Y-114173355D01*
X139678124Y-114045434D01*
X139558777Y-113792000D01*
X137945000Y-113792000D01*
X137691000Y-113792000D01*
X136077223Y-113792000D01*
X135957876Y-114045434D01*
X135135000Y-114045434D01*
X135135000Y-111203950D01*
X135599398Y-110739552D01*
X135561435Y-111125000D01*
X135599606Y-111512560D01*
X135712653Y-111885226D01*
X135896232Y-112228676D01*
X136143286Y-112529714D01*
X136274841Y-112637678D01*
X136117990Y-112862239D01*
X135988856Y-113156645D01*
X135957876Y-113284566D01*
X136077223Y-113538000D01*
X137691000Y-113538000D01*
X137691000Y-113518000D01*
X137945000Y-113518000D01*
X137945000Y-113538000D01*
X139558777Y-113538000D01*
X139678124Y-113284566D01*
X139647144Y-113156645D01*
X139518010Y-112862239D01*
X139361159Y-112637678D01*
X139492714Y-112529714D01*
X139597526Y-112402000D01*
X150432274Y-112402000D01*
X150495000Y-112408178D01*
X150557726Y-112402000D01*
X150745336Y-112383522D01*
X150986051Y-112310502D01*
X151207896Y-112191924D01*
X151402344Y-112032344D01*
X151442335Y-111983615D01*
X161386622Y-102039329D01*
X161435344Y-101999344D01*
X161594924Y-101804896D01*
X161713502Y-101583051D01*
X161749226Y-101465286D01*
X161786523Y-101342336D01*
X161811178Y-101092000D01*
X161805000Y-101029272D01*
X161805000Y-100578900D01*
X162063636Y-100320264D01*
X162279995Y-99996461D01*
X162429025Y-99636670D01*
X162505000Y-99254718D01*
X162505000Y-98888950D01*
X164015329Y-97378622D01*
X164015333Y-97378617D01*
X164937525Y-96456426D01*
X164986249Y-96416439D01*
X165145829Y-96221991D01*
X165264407Y-96000146D01*
X165274310Y-95967501D01*
X165337428Y-95759431D01*
X165362083Y-95509095D01*
X165355905Y-95446367D01*
X165355905Y-90133529D01*
X165614541Y-89874893D01*
X165830900Y-89551090D01*
X165979930Y-89191299D01*
X166055905Y-88809347D01*
X166055905Y-88419911D01*
X165979930Y-88037959D01*
X165830900Y-87678168D01*
X165614541Y-87354365D01*
X165339169Y-87078993D01*
X165015366Y-86862634D01*
X164655575Y-86713604D01*
X164273623Y-86637629D01*
X163884187Y-86637629D01*
X163502235Y-86713604D01*
X163142444Y-86862634D01*
X162818641Y-87078993D01*
X162543269Y-87354365D01*
X162326910Y-87678168D01*
X162177880Y-88037959D01*
X162101905Y-88419911D01*
X162101905Y-88809347D01*
X162177880Y-89191299D01*
X162326910Y-89551090D01*
X162543269Y-89874893D01*
X162801905Y-90133529D01*
X162801906Y-94980143D01*
X162209383Y-95572667D01*
X162209378Y-95572671D01*
X160699050Y-97083000D01*
X160333282Y-97083000D01*
X159951330Y-97158975D01*
X159591539Y-97308005D01*
X159267736Y-97524364D01*
X158992364Y-97799736D01*
X158776005Y-98123539D01*
X158626975Y-98483330D01*
X158551000Y-98865282D01*
X158551000Y-99053000D01*
X155652870Y-99053000D01*
X155698336Y-99048522D01*
X155939051Y-98975502D01*
X156160896Y-98856924D01*
X156355344Y-98697344D01*
X156395335Y-98648615D01*
X160356951Y-94687000D01*
X160722718Y-94687000D01*
X161104670Y-94611025D01*
X161464461Y-94461995D01*
X161788264Y-94245636D01*
X162063636Y-93970264D01*
X162279995Y-93646461D01*
X162429025Y-93286670D01*
X162505000Y-92904718D01*
X162505000Y-92515282D01*
X162429025Y-92133330D01*
X162279995Y-91773539D01*
X162063636Y-91449736D01*
X161788264Y-91174364D01*
X161464461Y-90958005D01*
X161104670Y-90808975D01*
X160722718Y-90733000D01*
X160333282Y-90733000D01*
X159951330Y-90808975D01*
X159591539Y-90958005D01*
X159267736Y-91174364D01*
X158992364Y-91449736D01*
X158776005Y-91773539D01*
X158626975Y-92133330D01*
X158551000Y-92515282D01*
X158551000Y-92881049D01*
X154919050Y-96513000D01*
X152909526Y-96513000D01*
X152804714Y-96385286D01*
X152673159Y-96277322D01*
X152830010Y-96052761D01*
X152959144Y-95758355D01*
X152990124Y-95630434D01*
X152870777Y-95377000D01*
X151257000Y-95377000D01*
X151257000Y-95397000D01*
X151003000Y-95397000D01*
X151003000Y-95377000D01*
X149389223Y-95377000D01*
X149269876Y-95630434D01*
X149300856Y-95758355D01*
X149429990Y-96052761D01*
X149586841Y-96277322D01*
X149455286Y-96385286D01*
X149208232Y-96686324D01*
X149024653Y-97029774D01*
X148911606Y-97402440D01*
X148900666Y-97513522D01*
X147199385Y-99214803D01*
X147150656Y-99254794D01*
X146991076Y-99449243D01*
X146872498Y-99671088D01*
X146821578Y-99838949D01*
X146799478Y-99911803D01*
X146774822Y-100162138D01*
X146781000Y-100224864D01*
X146781001Y-104826099D01*
X146522364Y-105084736D01*
X146306005Y-105408539D01*
X146156975Y-105768330D01*
X146081000Y-106150282D01*
X146081000Y-106516050D01*
X145924050Y-106673000D01*
X142641951Y-106673000D01*
X139915000Y-103946050D01*
X139915000Y-103118900D01*
X140173636Y-102860264D01*
X140389995Y-102536461D01*
X140539025Y-102176670D01*
X140615000Y-101794718D01*
X140615000Y-101405282D01*
X140539025Y-101023330D01*
X140389995Y-100663539D01*
X140173636Y-100339736D01*
X139898264Y-100064364D01*
X139574461Y-99848005D01*
X139214670Y-99698975D01*
X138832718Y-99623000D01*
X138443282Y-99623000D01*
X138061330Y-99698975D01*
X137701539Y-99848005D01*
X137377736Y-100064364D01*
X137102364Y-100339736D01*
X136886005Y-100663539D01*
X136736975Y-101023330D01*
X136661000Y-101405282D01*
X136661000Y-101794718D01*
X136736975Y-102176670D01*
X136886005Y-102536461D01*
X137102364Y-102860264D01*
X137361001Y-103118901D01*
X137361001Y-104412264D01*
X137354822Y-104475000D01*
X137379478Y-104725335D01*
X137438211Y-104918949D01*
X137452499Y-104966051D01*
X137571077Y-105187896D01*
X137730657Y-105382344D01*
X137779380Y-105422330D01*
X141165669Y-108808620D01*
X141205656Y-108857344D01*
X141400104Y-109016924D01*
X141621949Y-109135502D01*
X141857060Y-109206822D01*
X141862664Y-109208522D01*
X142112999Y-109233178D01*
X142175725Y-109227000D01*
X146390274Y-109227000D01*
X146453000Y-109233178D01*
X146515726Y-109227000D01*
X146703336Y-109208522D01*
X146944051Y-109135502D01*
X147165896Y-109016924D01*
X147360344Y-108857344D01*
X147400335Y-108808615D01*
X147886950Y-108322000D01*
X148252718Y-108322000D01*
X148634670Y-108246025D01*
X148994461Y-108096995D01*
X149318264Y-107880636D01*
X149593636Y-107605264D01*
X149628509Y-107553073D01*
X149697956Y-107744814D01*
X149987571Y-107885704D01*
X150299108Y-107967384D01*
X150620595Y-107986718D01*
X150939675Y-107942961D01*
X151244088Y-107837795D01*
X151418044Y-107744814D01*
X151513808Y-107480413D01*
X150558000Y-106524605D01*
X150543858Y-106538748D01*
X150364253Y-106359143D01*
X150378395Y-106345000D01*
X150737605Y-106345000D01*
X151693413Y-107300808D01*
X151957814Y-107205044D01*
X152098704Y-106915429D01*
X152180384Y-106603892D01*
X152199718Y-106282405D01*
X152155961Y-105963325D01*
X152050795Y-105658912D01*
X151957814Y-105484956D01*
X151693413Y-105389192D01*
X150737605Y-106345000D01*
X150378395Y-106345000D01*
X150364253Y-106330858D01*
X150543858Y-106151253D01*
X150558000Y-106165395D01*
X151513808Y-105209587D01*
X151418044Y-104945186D01*
X151225929Y-104851727D01*
X152400000Y-104851727D01*
X152591525Y-104832863D01*
X152775691Y-104776997D01*
X152945418Y-104686276D01*
X153094186Y-104564186D01*
X153216276Y-104415418D01*
X153306997Y-104245691D01*
X153362863Y-104061525D01*
X153381727Y-103870000D01*
X153381727Y-101870000D01*
X153362863Y-101678475D01*
X153341181Y-101607000D01*
X158207049Y-101607000D01*
X149966050Y-109848000D01*
X139609015Y-109848000D01*
X139739768Y-109688676D01*
X139923347Y-109345226D01*
X140036394Y-108972560D01*
X140074565Y-108585000D01*
X140036394Y-108197440D01*
X139923347Y-107824774D01*
X139739768Y-107481324D01*
X139492714Y-107180286D01*
X139191676Y-106933232D01*
X138848226Y-106749653D01*
X138475560Y-106636606D01*
X138185116Y-106608000D01*
X137450884Y-106608000D01*
X137160440Y-106636606D01*
X136787774Y-106749653D01*
X136444324Y-106933232D01*
X136256404Y-107087453D01*
X134627000Y-105458050D01*
X134627000Y-94844718D01*
X134633177Y-94781999D01*
X134627000Y-94719281D01*
X134627000Y-94719274D01*
X134608522Y-94531664D01*
X134535502Y-94290949D01*
X134416924Y-94069104D01*
X134257344Y-93874656D01*
X134208620Y-93834669D01*
X132900333Y-92526383D01*
X132900329Y-92526378D01*
X131860951Y-91487000D01*
X133247272Y-91487000D01*
X133310000Y-91493178D01*
X133372728Y-91487000D01*
X134524050Y-91487000D01*
X137661001Y-94623952D01*
X137661000Y-96965274D01*
X137654822Y-97028000D01*
X137661000Y-97090725D01*
X137679478Y-97278335D01*
X137752498Y-97519050D01*
X137871076Y-97740895D01*
X138030656Y-97935344D01*
X138079385Y-97975335D01*
X141131658Y-101027609D01*
X141150653Y-101090226D01*
X141334232Y-101433676D01*
X141470730Y-101600000D01*
X141334232Y-101766324D01*
X141150653Y-102109774D01*
X141037606Y-102482440D01*
X140999435Y-102870000D01*
X141037606Y-103257560D01*
X141150653Y-103630226D01*
X141334232Y-103973676D01*
X141581286Y-104274714D01*
X141882324Y-104521768D01*
X142225774Y-104705347D01*
X142598440Y-104818394D01*
X142888884Y-104847000D01*
X143623116Y-104847000D01*
X143913560Y-104818394D01*
X144286226Y-104705347D01*
X144629676Y-104521768D01*
X144930714Y-104274714D01*
X145177768Y-103973676D01*
X145361347Y-103630226D01*
X145474394Y-103257560D01*
X145512565Y-102870000D01*
X145474394Y-102482440D01*
X145361347Y-102109774D01*
X145177768Y-101766324D01*
X145041270Y-101600000D01*
X145177768Y-101433676D01*
X145361347Y-101090226D01*
X145474394Y-100717560D01*
X145512565Y-100330000D01*
X145474394Y-99942440D01*
X145361347Y-99569774D01*
X145177768Y-99226324D01*
X145047015Y-99067000D01*
X145711676Y-99067000D01*
X145774402Y-99073178D01*
X145837128Y-99067000D01*
X146024738Y-99048522D01*
X146265453Y-98975502D01*
X146487298Y-98856924D01*
X146681746Y-98697344D01*
X146721737Y-98648615D01*
X148686621Y-96683732D01*
X148735344Y-96643746D01*
X148894924Y-96449298D01*
X149013502Y-96227453D01*
X149086522Y-95986738D01*
X149105000Y-95799128D01*
X149105000Y-95799127D01*
X149111178Y-95736403D01*
X149105000Y-95673677D01*
X149105000Y-94869566D01*
X149269876Y-94869566D01*
X149389223Y-95123000D01*
X151003000Y-95123000D01*
X151003000Y-93615000D01*
X151257000Y-93615000D01*
X151257000Y-95123000D01*
X152870777Y-95123000D01*
X152990124Y-94869566D01*
X152959144Y-94741645D01*
X152830010Y-94447239D01*
X152645922Y-94183683D01*
X152413954Y-93961105D01*
X152143020Y-93788058D01*
X151843532Y-93671193D01*
X151527000Y-93615000D01*
X151257000Y-93615000D01*
X151003000Y-93615000D01*
X150733000Y-93615000D01*
X150416468Y-93671193D01*
X150116980Y-93788058D01*
X149846046Y-93961105D01*
X149614078Y-94183683D01*
X149429990Y-94447239D01*
X149300856Y-94741645D01*
X149269876Y-94869566D01*
X149105000Y-94869566D01*
X149105000Y-93873950D01*
X153436951Y-89542000D01*
X159322274Y-89542000D01*
X159385000Y-89548178D01*
X159447726Y-89542000D01*
X159635336Y-89523522D01*
X159876051Y-89450502D01*
X160097896Y-89331924D01*
X160292344Y-89172344D01*
X160332335Y-89123615D01*
X164126271Y-85329680D01*
X164436539Y-85536995D01*
X164796330Y-85686025D01*
X165178282Y-85762000D01*
X165567718Y-85762000D01*
X165714794Y-85732745D01*
X166871000Y-86888951D01*
X166871001Y-96457264D01*
X166864822Y-96520000D01*
X166889478Y-96770335D01*
X166938331Y-96931379D01*
X166962499Y-97011051D01*
X167081077Y-97232896D01*
X167240657Y-97427344D01*
X167289379Y-97467329D01*
X168711000Y-98888951D01*
X168711000Y-99231049D01*
X164114380Y-103827670D01*
X164065657Y-103867656D01*
X163906077Y-104062104D01*
X163819276Y-104224498D01*
X163787499Y-104283949D01*
X163714478Y-104524665D01*
X163689822Y-104775000D01*
X163696001Y-104837736D01*
X163696001Y-105796099D01*
X163437364Y-106054736D01*
X163221005Y-106378539D01*
X163071975Y-106738330D01*
X162996000Y-107120282D01*
X162996000Y-107509718D01*
X163071975Y-107891670D01*
X163221005Y-108251461D01*
X163437364Y-108575264D01*
X163712736Y-108850636D01*
X164036539Y-109066995D01*
X164396330Y-109216025D01*
X164778282Y-109292000D01*
X165167718Y-109292000D01*
X165549670Y-109216025D01*
X165909461Y-109066995D01*
X166233264Y-108850636D01*
X166508636Y-108575264D01*
X166724995Y-108251461D01*
X166874025Y-107891670D01*
X166950000Y-107509718D01*
X166950000Y-107120282D01*
X166874025Y-106738330D01*
X166724995Y-106378539D01*
X166508636Y-106054736D01*
X166250000Y-105796100D01*
X166250000Y-105303950D01*
X169064384Y-102489566D01*
X173272876Y-102489566D01*
X173392223Y-102743000D01*
X175006000Y-102743000D01*
X175006000Y-101235000D01*
X175260000Y-101235000D01*
X175260000Y-102743000D01*
X176873777Y-102743000D01*
X176993124Y-102489566D01*
X176962144Y-102361645D01*
X176833010Y-102067239D01*
X176648922Y-101803683D01*
X176416954Y-101581105D01*
X176146020Y-101408058D01*
X175846532Y-101291193D01*
X175530000Y-101235000D01*
X175260000Y-101235000D01*
X175006000Y-101235000D01*
X174736000Y-101235000D01*
X174419468Y-101291193D01*
X174119980Y-101408058D01*
X173849046Y-101581105D01*
X173617078Y-101803683D01*
X173432990Y-102067239D01*
X173303856Y-102361645D01*
X173272876Y-102489566D01*
X169064384Y-102489566D01*
X170516951Y-101037000D01*
X170882718Y-101037000D01*
X171264670Y-100961025D01*
X171624461Y-100811995D01*
X171948264Y-100595636D01*
X172223636Y-100320264D01*
X172439995Y-99996461D01*
X172589025Y-99636670D01*
X172665000Y-99254718D01*
X172665000Y-98865282D01*
X172589025Y-98483330D01*
X172439995Y-98123539D01*
X172223636Y-97799736D01*
X171948264Y-97524364D01*
X171624461Y-97308005D01*
X171264670Y-97158975D01*
X170882718Y-97083000D01*
X170516951Y-97083000D01*
X169425000Y-95991050D01*
X169425000Y-93845413D01*
X169732192Y-93845413D01*
X169827956Y-94109814D01*
X170117571Y-94250704D01*
X170429108Y-94332384D01*
X170750595Y-94351718D01*
X171069675Y-94307961D01*
X171374088Y-94202795D01*
X171548044Y-94109814D01*
X171643808Y-93845413D01*
X170688000Y-92889605D01*
X169732192Y-93845413D01*
X169425000Y-93845413D01*
X169425000Y-93619597D01*
X169552587Y-93665808D01*
X170508395Y-92710000D01*
X170867605Y-92710000D01*
X171823413Y-93665808D01*
X172087814Y-93570044D01*
X172228704Y-93280429D01*
X172310384Y-92968892D01*
X172329718Y-92647405D01*
X172285961Y-92328325D01*
X172180795Y-92023912D01*
X172087814Y-91849956D01*
X171823413Y-91754192D01*
X170867605Y-92710000D01*
X170508395Y-92710000D01*
X169552587Y-91754192D01*
X169425000Y-91800403D01*
X169425000Y-91574587D01*
X169732192Y-91574587D01*
X170688000Y-92530395D01*
X171643808Y-91574587D01*
X171548044Y-91310186D01*
X171258429Y-91169296D01*
X170946892Y-91087616D01*
X170625405Y-91068282D01*
X170306325Y-91112039D01*
X170001912Y-91217205D01*
X169827956Y-91310186D01*
X169732192Y-91574587D01*
X169425000Y-91574587D01*
X169425000Y-90508639D01*
X174029000Y-90508639D01*
X174029000Y-91101361D01*
X174144634Y-91682693D01*
X174371459Y-92230296D01*
X174700757Y-92723126D01*
X175119874Y-93142243D01*
X175612704Y-93471541D01*
X176160307Y-93698366D01*
X176741639Y-93814000D01*
X177334361Y-93814000D01*
X177915693Y-93698366D01*
X178463296Y-93471541D01*
X178956126Y-93142243D01*
X179375243Y-92723126D01*
X179704541Y-92230296D01*
X179931366Y-91682693D01*
X180047000Y-91101361D01*
X180047000Y-90508639D01*
X179931366Y-89927307D01*
X179704541Y-89379704D01*
X179375243Y-88886874D01*
X178956126Y-88467757D01*
X178463296Y-88138459D01*
X177915693Y-87911634D01*
X177334361Y-87796000D01*
X176741639Y-87796000D01*
X176160307Y-87911634D01*
X175612704Y-88138459D01*
X175119874Y-88467757D01*
X174700757Y-88886874D01*
X174371459Y-89379704D01*
X174144634Y-89927307D01*
X174029000Y-90508639D01*
X169425000Y-90508639D01*
X169425000Y-86422725D01*
X169431178Y-86359999D01*
X169406522Y-86109664D01*
X169377345Y-86013480D01*
X169333502Y-85868949D01*
X169214924Y-85647104D01*
X169055344Y-85452656D01*
X169006621Y-85412670D01*
X167350000Y-83756050D01*
X167350000Y-83590282D01*
X167274025Y-83208330D01*
X167124995Y-82848539D01*
X166908636Y-82524736D01*
X166633264Y-82249364D01*
X166309461Y-82033005D01*
X165949670Y-81883975D01*
X165567718Y-81808000D01*
X165178282Y-81808000D01*
X164888385Y-81865664D01*
X169207844Y-77546206D01*
X169418000Y-77566905D01*
X169778821Y-77531367D01*
X170125775Y-77426120D01*
X170445530Y-77255207D01*
X170688000Y-77056218D01*
X170930471Y-77255207D01*
X171250226Y-77426120D01*
X171597180Y-77531367D01*
X171958000Y-77566905D01*
X172318821Y-77531367D01*
X172665775Y-77426120D01*
X172985530Y-77255207D01*
X173228000Y-77056218D01*
X173470471Y-77255207D01*
X173790226Y-77426120D01*
X174137180Y-77531367D01*
X174498000Y-77566905D01*
X174858821Y-77531367D01*
X175205775Y-77426120D01*
X175525530Y-77255207D01*
X175805798Y-77025198D01*
X176035807Y-76744930D01*
X176206720Y-76425174D01*
X176311967Y-76078220D01*
X176336001Y-75834203D01*
X176336000Y-85951745D01*
X176332753Y-85993476D01*
X176340084Y-86054946D01*
X176346158Y-86116615D01*
X176348269Y-86123574D01*
X176349129Y-86130785D01*
X176368309Y-86189637D01*
X176386299Y-86248942D01*
X176389726Y-86255354D01*
X176391977Y-86262260D01*
X176422278Y-86316254D01*
X176451485Y-86370896D01*
X176456096Y-86376514D01*
X176459652Y-86382851D01*
X176499917Y-86429910D01*
X176539210Y-86477789D01*
X176544827Y-86482399D01*
X176549552Y-86487921D01*
X176598227Y-86526224D01*
X176646103Y-86565515D01*
X176683024Y-86585250D01*
X180908001Y-89284541D01*
X180908000Y-120909301D01*
X177438982Y-123221980D01*
X177408104Y-123238485D01*
X177355176Y-123281922D01*
X177301732Y-123325689D01*
X177301496Y-123325976D01*
X177301211Y-123326210D01*
X177257732Y-123379189D01*
X177213896Y-123432490D01*
X177213721Y-123432817D01*
X177213486Y-123433103D01*
X177180972Y-123493933D01*
X177148583Y-123554376D01*
X177148476Y-123554728D01*
X177148300Y-123555057D01*
X177128297Y-123620998D01*
X177108303Y-123686661D01*
X177108266Y-123687031D01*
X177108159Y-123687384D01*
X177101450Y-123755502D01*
X177094605Y-123824262D01*
X177098001Y-123859116D01*
X177098000Y-130108000D01*
X111700000Y-130108000D01*
X111700000Y-123528639D01*
X121959000Y-123528639D01*
X121959000Y-124121361D01*
X122074634Y-124702693D01*
X122301459Y-125250296D01*
X122630757Y-125743126D01*
X123049874Y-126162243D01*
X123542704Y-126491541D01*
X124090307Y-126718366D01*
X124671639Y-126834000D01*
X125264361Y-126834000D01*
X125845693Y-126718366D01*
X126393296Y-126491541D01*
X126886126Y-126162243D01*
X127305243Y-125743126D01*
X127634541Y-125250296D01*
X127861366Y-124702693D01*
X127977000Y-124121361D01*
X127977000Y-123528639D01*
X127861366Y-122947307D01*
X127634541Y-122399704D01*
X127305243Y-121906874D01*
X126886126Y-121487757D01*
X126393296Y-121158459D01*
X125845693Y-120931634D01*
X125264361Y-120816000D01*
X124671639Y-120816000D01*
X124090307Y-120931634D01*
X123542704Y-121158459D01*
X123049874Y-121487757D01*
X122630757Y-121906874D01*
X122301459Y-122399704D01*
X122074634Y-122947307D01*
X121959000Y-123528639D01*
X111700000Y-123528639D01*
X111700000Y-116585434D01*
X128037876Y-116585434D01*
X128068856Y-116713355D01*
X128197990Y-117007761D01*
X128382078Y-117271317D01*
X128614046Y-117493895D01*
X128884980Y-117666942D01*
X129184468Y-117783807D01*
X129501000Y-117840000D01*
X129771000Y-117840000D01*
X129771000Y-116332000D01*
X130025000Y-116332000D01*
X130025000Y-117840000D01*
X130295000Y-117840000D01*
X130611532Y-117783807D01*
X130911020Y-117666942D01*
X131181954Y-117493895D01*
X131413922Y-117271317D01*
X131598010Y-117007761D01*
X131727144Y-116713355D01*
X131758124Y-116585434D01*
X131638777Y-116332000D01*
X130025000Y-116332000D01*
X129771000Y-116332000D01*
X128157223Y-116332000D01*
X128037876Y-116585434D01*
X111700000Y-116585434D01*
X111700000Y-82401572D01*
X112470500Y-82401572D01*
X112470500Y-114448429D01*
X116974500Y-114448429D01*
X116974500Y-82401572D01*
X112470500Y-82401572D01*
X111700000Y-82401572D01*
X111700000Y-70552000D01*
X175259842Y-70552000D01*
X176336001Y-71448800D01*
%TA.AperFunction,Conductor*%
D22*
G36*
X176336001Y-71448800D02*
G01*
X176336001Y-75295796D01*
X176311967Y-75051779D01*
X176206720Y-74704825D01*
X176035807Y-74385070D01*
X175805798Y-74104802D01*
X175525529Y-73874793D01*
X175205774Y-73703880D01*
X174858820Y-73598633D01*
X174498000Y-73563095D01*
X174137179Y-73598633D01*
X173790225Y-73703880D01*
X173470470Y-73874793D01*
X173228000Y-74073782D01*
X172985529Y-73874793D01*
X172665774Y-73703880D01*
X172318820Y-73598633D01*
X171958000Y-73563095D01*
X171597179Y-73598633D01*
X171250225Y-73703880D01*
X170930470Y-73874793D01*
X170688000Y-74073782D01*
X170445529Y-73874793D01*
X170125774Y-73703880D01*
X169778820Y-73598633D01*
X169418000Y-73563095D01*
X169057179Y-73598633D01*
X168710225Y-73703880D01*
X168390470Y-73874793D01*
X168148000Y-74073782D01*
X167905529Y-73874793D01*
X167585774Y-73703880D01*
X167238820Y-73598633D01*
X166878000Y-73563095D01*
X166517179Y-73598633D01*
X166170225Y-73703880D01*
X165850470Y-73874793D01*
X165608000Y-74073782D01*
X165365529Y-73874793D01*
X165045774Y-73703880D01*
X164698820Y-73598633D01*
X164338000Y-73563095D01*
X163977179Y-73598633D01*
X163630225Y-73703880D01*
X163310470Y-73874793D01*
X163068000Y-74073782D01*
X162825529Y-73874793D01*
X162505774Y-73703880D01*
X162158820Y-73598633D01*
X161798000Y-73563095D01*
X161437179Y-73598633D01*
X161090225Y-73703880D01*
X160770470Y-73874793D01*
X160528000Y-74073782D01*
X160285529Y-73874793D01*
X159965774Y-73703880D01*
X159618820Y-73598633D01*
X159258000Y-73563095D01*
X158897179Y-73598633D01*
X158550225Y-73703880D01*
X158230470Y-73874793D01*
X157988000Y-74073782D01*
X157745529Y-73874793D01*
X157425774Y-73703880D01*
X157078820Y-73598633D01*
X156718000Y-73563095D01*
X156357179Y-73598633D01*
X156010225Y-73703880D01*
X155690470Y-73874793D01*
X155410202Y-74104802D01*
X155180193Y-74385071D01*
X155009280Y-74704826D01*
X154904033Y-75051780D01*
X154877400Y-75322188D01*
X154877400Y-75807813D01*
X154904033Y-76078221D01*
X155009280Y-76425175D01*
X155180193Y-76744930D01*
X155410202Y-77025198D01*
X155690471Y-77255207D01*
X156010226Y-77426120D01*
X156357180Y-77531367D01*
X156718000Y-77566905D01*
X157078821Y-77531367D01*
X157425775Y-77426120D01*
X157745530Y-77255207D01*
X157988000Y-77056218D01*
X158230471Y-77255207D01*
X158550226Y-77426120D01*
X158897180Y-77531367D01*
X159258000Y-77566905D01*
X159618821Y-77531367D01*
X159965775Y-77426120D01*
X160285530Y-77255207D01*
X160528000Y-77056218D01*
X160770471Y-77255207D01*
X160816982Y-77280068D01*
X158729050Y-79368000D01*
X154910726Y-79368000D01*
X154848000Y-79361822D01*
X154785274Y-79368000D01*
X154597664Y-79386478D01*
X154356949Y-79459498D01*
X154135104Y-79578076D01*
X153940656Y-79737656D01*
X153900670Y-79786379D01*
X151414380Y-82272670D01*
X151365657Y-82312656D01*
X151206077Y-82507104D01*
X151151166Y-82609836D01*
X151087499Y-82728949D01*
X151014478Y-82969665D01*
X151012013Y-82994695D01*
X150993225Y-82984653D01*
X150620559Y-82871606D01*
X150233000Y-82833435D01*
X149845440Y-82871606D01*
X149472774Y-82984653D01*
X149129324Y-83168232D01*
X148828286Y-83415286D01*
X148720322Y-83546841D01*
X148495761Y-83389990D01*
X148201355Y-83260856D01*
X148073434Y-83229876D01*
X147820000Y-83349223D01*
X147820000Y-84963000D01*
X147840000Y-84963000D01*
X147840000Y-85217000D01*
X147820000Y-85217000D01*
X147820000Y-85237000D01*
X147566000Y-85237000D01*
X147566000Y-85217000D01*
X146058000Y-85217000D01*
X146058000Y-85487000D01*
X146114193Y-85803532D01*
X146231058Y-86103020D01*
X146404105Y-86373954D01*
X146626683Y-86605922D01*
X146890239Y-86790010D01*
X147184645Y-86919144D01*
X147312566Y-86950124D01*
X147358607Y-86928442D01*
X144533608Y-89753442D01*
X139092806Y-92443855D01*
X136000335Y-89351385D01*
X135960344Y-89302656D01*
X135765896Y-89143076D01*
X135544051Y-89024498D01*
X135303336Y-88951478D01*
X135115726Y-88933000D01*
X135053000Y-88926822D01*
X134990274Y-88933000D01*
X133817608Y-88933000D01*
X133790895Y-88911077D01*
X133569051Y-88792499D01*
X133328335Y-88719478D01*
X133078000Y-88694822D01*
X132827665Y-88719478D01*
X132586949Y-88792499D01*
X132365105Y-88911077D01*
X132338392Y-88933000D01*
X131860951Y-88933000D01*
X133936620Y-86857331D01*
X133985344Y-86817344D01*
X134144924Y-86622896D01*
X134263502Y-86401051D01*
X134300432Y-86279308D01*
X134482714Y-86129714D01*
X134590678Y-85998159D01*
X134815239Y-86155010D01*
X135109645Y-86284144D01*
X135237566Y-86315124D01*
X135491000Y-86195777D01*
X135491000Y-84582000D01*
X135471000Y-84582000D01*
X135471000Y-84328000D01*
X135491000Y-84328000D01*
X135491000Y-82714223D01*
X135237566Y-82594876D01*
X135109645Y-82625856D01*
X134815239Y-82754990D01*
X134590678Y-82911841D01*
X134482714Y-82780286D01*
X134181676Y-82533232D01*
X133838225Y-82349653D01*
X133465559Y-82236606D01*
X133078000Y-82198435D01*
X132955445Y-82210506D01*
X134136350Y-81029601D01*
X137907448Y-81029601D01*
X137299385Y-81637665D01*
X137250656Y-81677656D01*
X137091076Y-81872105D01*
X136972498Y-82093950D01*
X136929224Y-82236606D01*
X136899478Y-82334665D01*
X136874822Y-82585000D01*
X136881000Y-82647727D01*
X136881000Y-82675474D01*
X136753286Y-82780286D01*
X136645322Y-82911841D01*
X136420761Y-82754990D01*
X136126355Y-82625856D01*
X135998434Y-82594876D01*
X135745000Y-82714223D01*
X135745000Y-84328000D01*
X135765000Y-84328000D01*
X135765000Y-84582000D01*
X135745000Y-84582000D01*
X135745000Y-86195777D01*
X135998434Y-86315124D01*
X136126355Y-86284144D01*
X136420761Y-86155010D01*
X136645323Y-85998159D01*
X136753287Y-86129714D01*
X137054325Y-86376768D01*
X137397775Y-86560347D01*
X137770441Y-86673394D01*
X138158000Y-86711565D01*
X138545560Y-86673394D01*
X138918226Y-86560347D01*
X139261676Y-86376768D01*
X139428001Y-86240270D01*
X139594325Y-86376768D01*
X139937775Y-86560347D01*
X140310441Y-86673394D01*
X140698000Y-86711565D01*
X141085560Y-86673394D01*
X141458226Y-86560347D01*
X141801676Y-86376768D01*
X142102714Y-86129714D01*
X142349768Y-85828676D01*
X142401443Y-85732000D01*
X143701274Y-85732000D01*
X143764000Y-85738178D01*
X143826726Y-85732000D01*
X144014336Y-85713522D01*
X144255051Y-85640502D01*
X144476896Y-85521924D01*
X144671344Y-85362344D01*
X144711335Y-85313615D01*
X145331950Y-84693000D01*
X146058000Y-84693000D01*
X146058000Y-84963000D01*
X147566000Y-84963000D01*
X147566000Y-83349223D01*
X147312566Y-83229876D01*
X147184645Y-83260856D01*
X146890239Y-83389990D01*
X146626683Y-83574078D01*
X146404105Y-83806046D01*
X146231058Y-84076980D01*
X146114193Y-84376468D01*
X146058000Y-84693000D01*
X145331950Y-84693000D01*
X146806829Y-83218122D01*
X146806834Y-83218116D01*
X152475615Y-77549335D01*
X152654000Y-77566905D01*
X153014821Y-77531367D01*
X153361775Y-77426120D01*
X153681530Y-77255207D01*
X153961798Y-77025198D01*
X154191807Y-76744930D01*
X154362720Y-76425174D01*
X154467967Y-76078220D01*
X154494600Y-75807812D01*
X154494600Y-75322187D01*
X154467967Y-75051779D01*
X154362720Y-74704825D01*
X154191807Y-74385070D01*
X153961798Y-74104802D01*
X153681529Y-73874793D01*
X153361774Y-73703880D01*
X153014820Y-73598633D01*
X152654000Y-73563095D01*
X152293179Y-73598633D01*
X151946225Y-73703880D01*
X151626470Y-73874793D01*
X151384000Y-74073782D01*
X151141529Y-73874793D01*
X150821774Y-73703880D01*
X150474820Y-73598633D01*
X150114000Y-73563095D01*
X149753179Y-73598633D01*
X149406225Y-73703880D01*
X149086470Y-73874793D01*
X148844000Y-74073782D01*
X148601529Y-73874793D01*
X148281774Y-73703880D01*
X147934820Y-73598633D01*
X147574000Y-73563095D01*
X147213179Y-73598633D01*
X146866225Y-73703880D01*
X146546470Y-73874793D01*
X146304000Y-74073782D01*
X146061529Y-73874793D01*
X145741774Y-73703880D01*
X145394820Y-73598633D01*
X145034000Y-73563095D01*
X144673179Y-73598633D01*
X144326225Y-73703880D01*
X144006470Y-73874793D01*
X143764000Y-74073782D01*
X143521529Y-73874793D01*
X143201774Y-73703880D01*
X142854820Y-73598633D01*
X142494000Y-73563095D01*
X142133179Y-73598633D01*
X141786225Y-73703880D01*
X141466470Y-73874793D01*
X141224000Y-74073782D01*
X140981529Y-73874793D01*
X140661774Y-73703880D01*
X140314820Y-73598633D01*
X139954000Y-73563095D01*
X139593179Y-73598633D01*
X139246225Y-73703880D01*
X138926470Y-73874793D01*
X138646202Y-74104802D01*
X138453014Y-74340205D01*
X138316035Y-74214267D01*
X138064919Y-74061314D01*
X137788789Y-73960291D01*
X137773026Y-73957642D01*
X137541000Y-74078783D01*
X137541000Y-75438000D01*
X137561000Y-75438000D01*
X137561000Y-75692000D01*
X137541000Y-75692000D01*
X137541000Y-75712000D01*
X137287000Y-75712000D01*
X137287000Y-75692000D01*
X137267000Y-75692000D01*
X137267000Y-75438000D01*
X137287000Y-75438000D01*
X137287000Y-74078783D01*
X137054974Y-73957642D01*
X137039211Y-73960291D01*
X136763081Y-74061314D01*
X136511965Y-74214267D01*
X136374987Y-74340204D01*
X136181798Y-74104802D01*
X135901529Y-73874793D01*
X135581774Y-73703880D01*
X135234820Y-73598633D01*
X134874000Y-73563095D01*
X134513179Y-73598633D01*
X134166225Y-73703880D01*
X133846470Y-73874793D01*
X133604000Y-74073782D01*
X133361529Y-73874793D01*
X133041774Y-73703880D01*
X132694820Y-73598633D01*
X132334000Y-73563095D01*
X131973179Y-73598633D01*
X131626225Y-73703880D01*
X131306470Y-73874793D01*
X131064000Y-74073782D01*
X130821529Y-73874793D01*
X130501774Y-73703880D01*
X130154820Y-73598633D01*
X129794000Y-73563095D01*
X129433179Y-73598633D01*
X129086225Y-73703880D01*
X128766470Y-73874793D01*
X128741323Y-73895431D01*
X128575243Y-73646874D01*
X128156126Y-73227757D01*
X127663296Y-72898459D01*
X127115693Y-72671634D01*
X126534361Y-72556000D01*
X125941639Y-72556000D01*
X125360307Y-72671634D01*
X124812704Y-72898459D01*
X124319874Y-73227757D01*
X123900757Y-73646874D01*
X123571459Y-74139704D01*
X123344634Y-74687307D01*
X123229000Y-75268639D01*
X123229000Y-75861361D01*
X123344634Y-76442693D01*
X123571459Y-76990296D01*
X123900757Y-77483126D01*
X124319874Y-77902243D01*
X124581890Y-78077317D01*
X124375599Y-78187581D01*
X124181151Y-78347161D01*
X124141165Y-78395884D01*
X119029380Y-83507670D01*
X118980657Y-83547656D01*
X118821077Y-83742104D01*
X118734276Y-83904498D01*
X118702499Y-83963949D01*
X118629478Y-84204665D01*
X118604822Y-84455000D01*
X118611001Y-84517736D01*
X118611000Y-107252274D01*
X118604822Y-107315000D01*
X118614368Y-107411923D01*
X118629478Y-107565335D01*
X118702498Y-107806050D01*
X118821076Y-108027895D01*
X118980656Y-108222344D01*
X119029385Y-108262335D01*
X125290669Y-114523620D01*
X125330656Y-114572344D01*
X125525104Y-114731924D01*
X125746949Y-114850502D01*
X125982060Y-114921822D01*
X125987664Y-114923522D01*
X126237999Y-114948178D01*
X126300725Y-114942000D01*
X128118474Y-114942000D01*
X128223286Y-115069714D01*
X128354841Y-115177678D01*
X128197990Y-115402239D01*
X128068856Y-115696645D01*
X128037876Y-115824566D01*
X128157223Y-116078000D01*
X129771000Y-116078000D01*
X129771000Y-116058000D01*
X130025000Y-116058000D01*
X130025000Y-116078000D01*
X131638777Y-116078000D01*
X131758124Y-115824566D01*
X131727144Y-115696645D01*
X131598010Y-115402239D01*
X131441159Y-115177678D01*
X131572714Y-115069714D01*
X131819768Y-114768676D01*
X132003347Y-114425226D01*
X132116394Y-114052560D01*
X132154565Y-113665000D01*
X132116394Y-113277440D01*
X132003347Y-112904774D01*
X131819768Y-112561324D01*
X131683270Y-112395000D01*
X131819768Y-112228676D01*
X132003347Y-111885226D01*
X132116394Y-111512560D01*
X132154565Y-111125000D01*
X132116394Y-110737440D01*
X132003347Y-110364774D01*
X131919966Y-110208780D01*
X131984276Y-110130418D01*
X132074997Y-109960691D01*
X132130863Y-109776525D01*
X132149727Y-109585000D01*
X132149727Y-107585000D01*
X132130863Y-107393475D01*
X132074997Y-107209309D01*
X131984276Y-107039582D01*
X131862186Y-106890814D01*
X131713418Y-106768724D01*
X131543691Y-106678003D01*
X131359525Y-106622137D01*
X131168000Y-106603273D01*
X128628000Y-106603273D01*
X128436475Y-106622137D01*
X128252309Y-106678003D01*
X128082582Y-106768724D01*
X127933814Y-106890814D01*
X127811724Y-107039582D01*
X127796679Y-107067729D01*
X126245000Y-105516050D01*
X126245000Y-101405282D01*
X126501000Y-101405282D01*
X126501000Y-101794718D01*
X126576975Y-102176670D01*
X126726005Y-102536461D01*
X126942364Y-102860264D01*
X127217736Y-103135636D01*
X127541539Y-103351995D01*
X127901330Y-103501025D01*
X128283282Y-103577000D01*
X128672718Y-103577000D01*
X129054670Y-103501025D01*
X129414461Y-103351995D01*
X129738264Y-103135636D01*
X130013636Y-102860264D01*
X130229995Y-102536461D01*
X130379025Y-102176670D01*
X130455000Y-101794718D01*
X130455000Y-101405282D01*
X130379025Y-101023330D01*
X130229995Y-100663539D01*
X130055000Y-100401641D01*
X130055000Y-96728900D01*
X130313636Y-96470264D01*
X130529995Y-96146461D01*
X130679025Y-95786670D01*
X130755000Y-95404718D01*
X130755000Y-95015282D01*
X130679025Y-94633330D01*
X130529995Y-94273539D01*
X130313636Y-93949736D01*
X130038264Y-93674364D01*
X129714461Y-93458005D01*
X129354670Y-93308975D01*
X128972718Y-93233000D01*
X128583282Y-93233000D01*
X128201330Y-93308975D01*
X127841539Y-93458005D01*
X127517736Y-93674364D01*
X127242364Y-93949736D01*
X127026005Y-94273539D01*
X126876975Y-94633330D01*
X126801000Y-95015282D01*
X126801000Y-95404718D01*
X126876975Y-95786670D01*
X127026005Y-96146461D01*
X127242364Y-96470264D01*
X127501000Y-96728900D01*
X127501001Y-99875092D01*
X127217736Y-100064364D01*
X126942364Y-100339736D01*
X126726005Y-100663539D01*
X126576975Y-101023330D01*
X126501000Y-101405282D01*
X126245000Y-101405282D01*
X126245000Y-85618950D01*
X128311939Y-83552012D01*
X131022262Y-83552012D01*
X131084988Y-83558190D01*
X131147714Y-83552012D01*
X131205791Y-83546292D01*
X131129606Y-83797441D01*
X131101000Y-84087885D01*
X131101000Y-84822116D01*
X131129606Y-85112560D01*
X131242653Y-85485226D01*
X131400853Y-85781196D01*
X128949050Y-88233000D01*
X128583282Y-88233000D01*
X128201330Y-88308975D01*
X127841539Y-88458005D01*
X127517736Y-88674364D01*
X127242364Y-88949736D01*
X127026005Y-89273539D01*
X126876975Y-89633330D01*
X126801000Y-90015282D01*
X126801000Y-90404718D01*
X126876975Y-90786670D01*
X127026005Y-91146461D01*
X127242364Y-91470264D01*
X127517736Y-91745636D01*
X127841539Y-91961995D01*
X128201330Y-92111025D01*
X128583282Y-92187000D01*
X128949050Y-92187000D01*
X131094378Y-94332329D01*
X131094383Y-94332333D01*
X132073001Y-95310952D01*
X132073000Y-105924274D01*
X132066822Y-105987000D01*
X132084868Y-106170226D01*
X132091478Y-106237335D01*
X132164498Y-106478050D01*
X132283076Y-106699895D01*
X132442656Y-106894344D01*
X132491385Y-106934335D01*
X134142049Y-108585000D01*
X132999380Y-109727670D01*
X132950657Y-109767656D01*
X132791077Y-109962104D01*
X132695042Y-110141774D01*
X132672499Y-110183949D01*
X132599478Y-110424665D01*
X132574822Y-110675000D01*
X132581001Y-110737736D01*
X132581000Y-116142274D01*
X132574822Y-116205000D01*
X132587608Y-116334814D01*
X132599478Y-116455335D01*
X132672498Y-116696050D01*
X132791076Y-116917895D01*
X132950656Y-117112344D01*
X132999385Y-117152335D01*
X134775669Y-118928620D01*
X134815656Y-118977344D01*
X135010104Y-119136924D01*
X135231949Y-119255502D01*
X135472664Y-119328522D01*
X135660274Y-119347000D01*
X135660281Y-119347000D01*
X135722999Y-119353177D01*
X135785718Y-119347000D01*
X147579100Y-119347000D01*
X147821000Y-119588900D01*
X147821001Y-122328038D01*
X147585529Y-122134793D01*
X147265774Y-121963880D01*
X146918820Y-121858633D01*
X146558000Y-121823095D01*
X146197179Y-121858633D01*
X145850225Y-121963880D01*
X145530470Y-122134793D01*
X145288000Y-122333782D01*
X145045529Y-122134793D01*
X144725774Y-121963880D01*
X144378820Y-121858633D01*
X144018000Y-121823095D01*
X143657179Y-121858633D01*
X143310225Y-121963880D01*
X142990470Y-122134793D01*
X142748000Y-122333782D01*
X142505529Y-122134793D01*
X142185774Y-121963880D01*
X141838820Y-121858633D01*
X141478000Y-121823095D01*
X141117179Y-121858633D01*
X140770225Y-121963880D01*
X140450470Y-122134793D01*
X140208000Y-122333782D01*
X139965529Y-122134793D01*
X139645774Y-121963880D01*
X139298820Y-121858633D01*
X138938000Y-121823095D01*
X138577179Y-121858633D01*
X138230225Y-121963880D01*
X137910470Y-122134793D01*
X137630202Y-122364802D01*
X137400193Y-122645071D01*
X137229280Y-122964826D01*
X137124033Y-123311780D01*
X137097400Y-123582188D01*
X137097400Y-124067813D01*
X137124033Y-124338221D01*
X137229280Y-124685175D01*
X137400193Y-125004930D01*
X137630202Y-125285198D01*
X137910471Y-125515207D01*
X138230226Y-125686120D01*
X138577180Y-125791367D01*
X138938000Y-125826905D01*
X139298821Y-125791367D01*
X139645775Y-125686120D01*
X139965530Y-125515207D01*
X140208000Y-125316218D01*
X140450471Y-125515207D01*
X140770226Y-125686120D01*
X141117180Y-125791367D01*
X141478000Y-125826905D01*
X141838821Y-125791367D01*
X142185775Y-125686120D01*
X142505530Y-125515207D01*
X142748000Y-125316218D01*
X142990471Y-125515207D01*
X143310226Y-125686120D01*
X143657180Y-125791367D01*
X144018000Y-125826905D01*
X144378821Y-125791367D01*
X144725775Y-125686120D01*
X145045530Y-125515207D01*
X145288000Y-125316218D01*
X145530471Y-125515207D01*
X145850226Y-125686120D01*
X146197180Y-125791367D01*
X146558000Y-125826905D01*
X146918821Y-125791367D01*
X147265775Y-125686120D01*
X147585530Y-125515207D01*
X147828000Y-125316218D01*
X148070471Y-125515207D01*
X148390226Y-125686120D01*
X148737180Y-125791367D01*
X149098000Y-125826905D01*
X149458821Y-125791367D01*
X149805775Y-125686120D01*
X150125530Y-125515207D01*
X150405798Y-125285198D01*
X150598987Y-125049796D01*
X150735965Y-125175733D01*
X150987081Y-125328686D01*
X151263211Y-125429709D01*
X151278974Y-125432358D01*
X151511000Y-125311217D01*
X151511000Y-123952000D01*
X151765000Y-123952000D01*
X151765000Y-125311217D01*
X151997026Y-125432358D01*
X152012789Y-125429709D01*
X152288919Y-125328686D01*
X152540035Y-125175733D01*
X152756486Y-124976729D01*
X152908000Y-124769367D01*
X153059514Y-124976729D01*
X153275965Y-125175733D01*
X153527081Y-125328686D01*
X153803211Y-125429709D01*
X153818974Y-125432358D01*
X154051000Y-125311217D01*
X154051000Y-123952000D01*
X151765000Y-123952000D01*
X151511000Y-123952000D01*
X151491000Y-123952000D01*
X151491000Y-123698000D01*
X151511000Y-123698000D01*
X151511000Y-122338783D01*
X151765000Y-122338783D01*
X151765000Y-123698000D01*
X154051000Y-123698000D01*
X154051000Y-122338783D01*
X154305000Y-122338783D01*
X154305000Y-123698000D01*
X154325000Y-123698000D01*
X154325000Y-123952000D01*
X154305000Y-123952000D01*
X154305000Y-125311217D01*
X154537026Y-125432358D01*
X154552789Y-125429709D01*
X154828919Y-125328686D01*
X155080035Y-125175733D01*
X155217013Y-125049796D01*
X155410202Y-125285198D01*
X155690471Y-125515207D01*
X156010226Y-125686120D01*
X156357180Y-125791367D01*
X156718000Y-125826905D01*
X157078821Y-125791367D01*
X157425775Y-125686120D01*
X157745530Y-125515207D01*
X158025798Y-125285198D01*
X158255807Y-125004930D01*
X158426720Y-124685174D01*
X158531967Y-124338220D01*
X158558600Y-124067812D01*
X158558600Y-123582187D01*
X158531967Y-123311779D01*
X158426720Y-122964825D01*
X158255807Y-122645070D01*
X158025798Y-122364802D01*
X157745529Y-122134793D01*
X157425774Y-121963880D01*
X157078820Y-121858633D01*
X156718000Y-121823095D01*
X156357179Y-121858633D01*
X156010225Y-121963880D01*
X155690470Y-122134793D01*
X155410202Y-122364802D01*
X155217014Y-122600205D01*
X155080035Y-122474267D01*
X154828919Y-122321314D01*
X154552789Y-122220291D01*
X154537026Y-122217642D01*
X154305000Y-122338783D01*
X154051000Y-122338783D01*
X153818974Y-122217642D01*
X153803211Y-122220291D01*
X153527081Y-122321314D01*
X153275965Y-122474267D01*
X153059514Y-122673271D01*
X152908000Y-122880633D01*
X152756486Y-122673271D01*
X152540035Y-122474267D01*
X152288919Y-122321314D01*
X152012789Y-122220291D01*
X151997026Y-122217642D01*
X151765000Y-122338783D01*
X151511000Y-122338783D01*
X151278974Y-122217642D01*
X151263211Y-122220291D01*
X150987081Y-122321314D01*
X150735965Y-122474267D01*
X150598987Y-122600204D01*
X150405798Y-122364802D01*
X150375000Y-122339527D01*
X150375000Y-119588900D01*
X150616900Y-119347000D01*
X150668317Y-119347000D01*
X150756722Y-119352155D01*
X150856040Y-119338351D01*
X150955836Y-119328522D01*
X150980425Y-119321063D01*
X151005874Y-119317526D01*
X151100591Y-119284611D01*
X151196551Y-119255502D01*
X151219213Y-119243389D01*
X151243483Y-119234955D01*
X151329947Y-119184201D01*
X151418396Y-119136924D01*
X151438264Y-119120619D01*
X151460417Y-119107615D01*
X151535316Y-119040970D01*
X151612844Y-118977344D01*
X151629147Y-118957479D01*
X151648340Y-118940401D01*
X151708794Y-118860430D01*
X151772424Y-118782896D01*
X151814179Y-118704777D01*
X154082583Y-114997595D01*
X157021282Y-114997595D01*
X157065039Y-115316675D01*
X157170205Y-115621088D01*
X157263186Y-115795044D01*
X157527587Y-115890808D01*
X158483395Y-114935000D01*
X157527587Y-113979192D01*
X157263186Y-114074956D01*
X157122296Y-114364571D01*
X157040616Y-114676108D01*
X157021282Y-114997595D01*
X154082583Y-114997595D01*
X154893708Y-113672000D01*
X157753403Y-113672000D01*
X157707192Y-113799587D01*
X158663000Y-114755395D01*
X158677143Y-114741253D01*
X158856748Y-114920858D01*
X158842605Y-114935000D01*
X158856748Y-114949143D01*
X158677143Y-115128748D01*
X158663000Y-115114605D01*
X157707192Y-116070413D01*
X157802956Y-116334814D01*
X158092571Y-116475704D01*
X158404108Y-116557384D01*
X158725595Y-116576718D01*
X159044675Y-116532961D01*
X159349088Y-116427795D01*
X159523044Y-116334814D01*
X159592491Y-116143073D01*
X159627364Y-116195264D01*
X159886000Y-116453900D01*
X159886001Y-123127264D01*
X159879822Y-123190000D01*
X159904478Y-123440335D01*
X159957400Y-123614794D01*
X159957400Y-124067813D01*
X159984033Y-124338221D01*
X160089280Y-124685175D01*
X160260193Y-125004930D01*
X160490202Y-125285198D01*
X160770471Y-125515207D01*
X161090226Y-125686120D01*
X161437180Y-125791367D01*
X161798000Y-125826905D01*
X162158821Y-125791367D01*
X162505775Y-125686120D01*
X162825530Y-125515207D01*
X163068000Y-125316218D01*
X163310471Y-125515207D01*
X163630226Y-125686120D01*
X163977180Y-125791367D01*
X164338000Y-125826905D01*
X164698821Y-125791367D01*
X165045775Y-125686120D01*
X165365530Y-125515207D01*
X165608000Y-125316218D01*
X165850471Y-125515207D01*
X166170226Y-125686120D01*
X166517180Y-125791367D01*
X166878000Y-125826905D01*
X167238821Y-125791367D01*
X167585775Y-125686120D01*
X167905530Y-125515207D01*
X168148000Y-125316218D01*
X168390471Y-125515207D01*
X168710226Y-125686120D01*
X169057180Y-125791367D01*
X169418000Y-125826905D01*
X169778821Y-125791367D01*
X170125775Y-125686120D01*
X170445530Y-125515207D01*
X170688000Y-125316218D01*
X170930471Y-125515207D01*
X171250226Y-125686120D01*
X171597180Y-125791367D01*
X171958000Y-125826905D01*
X172318821Y-125791367D01*
X172665775Y-125686120D01*
X172985530Y-125515207D01*
X173228000Y-125316218D01*
X173470471Y-125515207D01*
X173790226Y-125686120D01*
X174137180Y-125791367D01*
X174498000Y-125826905D01*
X174858821Y-125791367D01*
X175205775Y-125686120D01*
X175525530Y-125515207D01*
X175805798Y-125285198D01*
X176035807Y-125004930D01*
X176206720Y-124685174D01*
X176311967Y-124338220D01*
X176338600Y-124067812D01*
X176338600Y-123582187D01*
X176311967Y-123311779D01*
X176206720Y-122964825D01*
X176035807Y-122645070D01*
X175805798Y-122364802D01*
X175525529Y-122134793D01*
X175482999Y-122112060D01*
X175482999Y-121324875D01*
X175612704Y-121411541D01*
X176160307Y-121638366D01*
X176741639Y-121754000D01*
X177334361Y-121754000D01*
X177915693Y-121638366D01*
X178463296Y-121411541D01*
X178956126Y-121082243D01*
X179375243Y-120663126D01*
X179704541Y-120170296D01*
X179931366Y-119622693D01*
X180047000Y-119041361D01*
X180047000Y-118448639D01*
X179931366Y-117867307D01*
X179704541Y-117319704D01*
X179375243Y-116826874D01*
X178956126Y-116407757D01*
X178463296Y-116078459D01*
X177915693Y-115851634D01*
X177334361Y-115736000D01*
X176741639Y-115736000D01*
X176732306Y-115737857D01*
X178020949Y-114645717D01*
X178110354Y-114572344D01*
X178156771Y-114515785D01*
X178207677Y-114463242D01*
X178236368Y-114418797D01*
X178269934Y-114377896D01*
X178304426Y-114313365D01*
X178344101Y-114251904D01*
X178363571Y-114202713D01*
X178388512Y-114156051D01*
X178409748Y-114086045D01*
X178436676Y-114018011D01*
X178446176Y-113965958D01*
X178461532Y-113915336D01*
X178468703Y-113842527D01*
X178481839Y-113770552D01*
X178480010Y-113654939D01*
X178480010Y-109807138D01*
X178486188Y-109744412D01*
X178461532Y-109494076D01*
X178388512Y-109253361D01*
X178374422Y-109227000D01*
X178269934Y-109031516D01*
X178110354Y-108837068D01*
X178061631Y-108797082D01*
X177373873Y-108109324D01*
X177389565Y-107950000D01*
X177351394Y-107562440D01*
X177238347Y-107189774D01*
X177054768Y-106846324D01*
X176918270Y-106680000D01*
X177054768Y-106513676D01*
X177238347Y-106170226D01*
X177351394Y-105797560D01*
X177389565Y-105410000D01*
X177351394Y-105022440D01*
X177238347Y-104649774D01*
X177054768Y-104306324D01*
X176807714Y-104005286D01*
X176676159Y-103897322D01*
X176833010Y-103672761D01*
X176962144Y-103378355D01*
X176993124Y-103250434D01*
X176873777Y-102997000D01*
X175260000Y-102997000D01*
X175260000Y-103017000D01*
X175006000Y-103017000D01*
X175006000Y-102997000D01*
X173392223Y-102997000D01*
X173272876Y-103250434D01*
X173303856Y-103378355D01*
X173432990Y-103672761D01*
X173589841Y-103897322D01*
X173458286Y-104005286D01*
X173344905Y-104143442D01*
X173263313Y-104151478D01*
X173022598Y-104224498D01*
X172800753Y-104343076D01*
X172606305Y-104502656D01*
X172566318Y-104551380D01*
X167432208Y-109685490D01*
X167432202Y-109685495D01*
X165999698Y-111118000D01*
X154215194Y-111118000D01*
X154126777Y-111112844D01*
X154027442Y-111126651D01*
X153927664Y-111136478D01*
X153903077Y-111143936D01*
X153877625Y-111147474D01*
X153782901Y-111180391D01*
X153686949Y-111209498D01*
X153664289Y-111221610D01*
X153640016Y-111230045D01*
X153553542Y-111280805D01*
X153465104Y-111328076D01*
X153445239Y-111344379D01*
X153423082Y-111357385D01*
X153348171Y-111424040D01*
X153270656Y-111487656D01*
X153254356Y-111507517D01*
X153235159Y-111524599D01*
X153174695Y-111604584D01*
X153111076Y-111682104D01*
X153069325Y-111760215D01*
X150735715Y-115573962D01*
X150739718Y-115507405D01*
X150695961Y-115188325D01*
X150590795Y-114883912D01*
X150497814Y-114709956D01*
X150233413Y-114614192D01*
X149277605Y-115570000D01*
X149291748Y-115584143D01*
X149112143Y-115763748D01*
X149098000Y-115749605D01*
X149083858Y-115763748D01*
X148904253Y-115584143D01*
X148918395Y-115570000D01*
X147962587Y-114614192D01*
X147698186Y-114709956D01*
X147557296Y-114999571D01*
X147475616Y-115311108D01*
X147456282Y-115632595D01*
X147500039Y-115951675D01*
X147605205Y-116256088D01*
X147698186Y-116430044D01*
X147889927Y-116499491D01*
X147837736Y-116534364D01*
X147579100Y-116793000D01*
X139612210Y-116793000D01*
X139647144Y-116713355D01*
X139678124Y-116585434D01*
X139558777Y-116332000D01*
X137945000Y-116332000D01*
X137945000Y-116352000D01*
X137691000Y-116352000D01*
X137691000Y-116332000D01*
X136077223Y-116332000D01*
X135985572Y-116526621D01*
X135135000Y-115676050D01*
X135135000Y-114045434D01*
X135957876Y-114045434D01*
X135988856Y-114173355D01*
X136117990Y-114467761D01*
X136302078Y-114731317D01*
X136514354Y-114935000D01*
X136302078Y-115138683D01*
X136117990Y-115402239D01*
X135988856Y-115696645D01*
X135957876Y-115824566D01*
X136077223Y-116078000D01*
X137691000Y-116078000D01*
X137691000Y-113792000D01*
X137945000Y-113792000D01*
X137945000Y-116078000D01*
X139558777Y-116078000D01*
X139678124Y-115824566D01*
X139647144Y-115696645D01*
X139518010Y-115402239D01*
X139333922Y-115138683D01*
X139121646Y-114935000D01*
X139333922Y-114731317D01*
X139518010Y-114467761D01*
X139532560Y-114434587D01*
X148142192Y-114434587D01*
X149098000Y-115390395D01*
X150053808Y-114434587D01*
X149958044Y-114170186D01*
X149668429Y-114029296D01*
X149356892Y-113947616D01*
X149035405Y-113928282D01*
X148716325Y-113972039D01*
X148411912Y-114077205D01*
X148237956Y-114170186D01*
X148142192Y-114434587D01*
X139532560Y-114434587D01*
X139647144Y-114173355D01*
X139678124Y-114045434D01*
X139558777Y-113792000D01*
X137945000Y-113792000D01*
X137691000Y-113792000D01*
X136077223Y-113792000D01*
X135957876Y-114045434D01*
X135135000Y-114045434D01*
X135135000Y-111203950D01*
X135599398Y-110739552D01*
X135561435Y-111125000D01*
X135599606Y-111512560D01*
X135712653Y-111885226D01*
X135896232Y-112228676D01*
X136143286Y-112529714D01*
X136274841Y-112637678D01*
X136117990Y-112862239D01*
X135988856Y-113156645D01*
X135957876Y-113284566D01*
X136077223Y-113538000D01*
X137691000Y-113538000D01*
X137691000Y-113518000D01*
X137945000Y-113518000D01*
X137945000Y-113538000D01*
X139558777Y-113538000D01*
X139678124Y-113284566D01*
X139647144Y-113156645D01*
X139518010Y-112862239D01*
X139361159Y-112637678D01*
X139492714Y-112529714D01*
X139597526Y-112402000D01*
X150432274Y-112402000D01*
X150495000Y-112408178D01*
X150557726Y-112402000D01*
X150745336Y-112383522D01*
X150986051Y-112310502D01*
X151207896Y-112191924D01*
X151402344Y-112032344D01*
X151442335Y-111983615D01*
X161386622Y-102039329D01*
X161435344Y-101999344D01*
X161594924Y-101804896D01*
X161713502Y-101583051D01*
X161749226Y-101465286D01*
X161786523Y-101342336D01*
X161811178Y-101092000D01*
X161805000Y-101029272D01*
X161805000Y-100578900D01*
X162063636Y-100320264D01*
X162279995Y-99996461D01*
X162429025Y-99636670D01*
X162505000Y-99254718D01*
X162505000Y-98888950D01*
X164015329Y-97378622D01*
X164015333Y-97378617D01*
X164937525Y-96456426D01*
X164986249Y-96416439D01*
X165145829Y-96221991D01*
X165264407Y-96000146D01*
X165274310Y-95967501D01*
X165337428Y-95759431D01*
X165362083Y-95509095D01*
X165355905Y-95446367D01*
X165355905Y-90133529D01*
X165614541Y-89874893D01*
X165830900Y-89551090D01*
X165979930Y-89191299D01*
X166055905Y-88809347D01*
X166055905Y-88419911D01*
X165979930Y-88037959D01*
X165830900Y-87678168D01*
X165614541Y-87354365D01*
X165339169Y-87078993D01*
X165015366Y-86862634D01*
X164655575Y-86713604D01*
X164273623Y-86637629D01*
X163884187Y-86637629D01*
X163502235Y-86713604D01*
X163142444Y-86862634D01*
X162818641Y-87078993D01*
X162543269Y-87354365D01*
X162326910Y-87678168D01*
X162177880Y-88037959D01*
X162101905Y-88419911D01*
X162101905Y-88809347D01*
X162177880Y-89191299D01*
X162326910Y-89551090D01*
X162543269Y-89874893D01*
X162801905Y-90133529D01*
X162801906Y-94980143D01*
X162209383Y-95572667D01*
X162209378Y-95572671D01*
X160699050Y-97083000D01*
X160333282Y-97083000D01*
X159951330Y-97158975D01*
X159591539Y-97308005D01*
X159267736Y-97524364D01*
X158992364Y-97799736D01*
X158776005Y-98123539D01*
X158626975Y-98483330D01*
X158551000Y-98865282D01*
X158551000Y-99053000D01*
X155652870Y-99053000D01*
X155698336Y-99048522D01*
X155939051Y-98975502D01*
X156160896Y-98856924D01*
X156355344Y-98697344D01*
X156395335Y-98648615D01*
X160356951Y-94687000D01*
X160722718Y-94687000D01*
X161104670Y-94611025D01*
X161464461Y-94461995D01*
X161788264Y-94245636D01*
X162063636Y-93970264D01*
X162279995Y-93646461D01*
X162429025Y-93286670D01*
X162505000Y-92904718D01*
X162505000Y-92515282D01*
X162429025Y-92133330D01*
X162279995Y-91773539D01*
X162063636Y-91449736D01*
X161788264Y-91174364D01*
X161464461Y-90958005D01*
X161104670Y-90808975D01*
X160722718Y-90733000D01*
X160333282Y-90733000D01*
X159951330Y-90808975D01*
X159591539Y-90958005D01*
X159267736Y-91174364D01*
X158992364Y-91449736D01*
X158776005Y-91773539D01*
X158626975Y-92133330D01*
X158551000Y-92515282D01*
X158551000Y-92881049D01*
X154919050Y-96513000D01*
X152909526Y-96513000D01*
X152804714Y-96385286D01*
X152673159Y-96277322D01*
X152830010Y-96052761D01*
X152959144Y-95758355D01*
X152990124Y-95630434D01*
X152870777Y-95377000D01*
X151257000Y-95377000D01*
X151257000Y-95397000D01*
X151003000Y-95397000D01*
X151003000Y-95377000D01*
X149389223Y-95377000D01*
X149269876Y-95630434D01*
X149300856Y-95758355D01*
X149429990Y-96052761D01*
X149586841Y-96277322D01*
X149455286Y-96385286D01*
X149208232Y-96686324D01*
X149024653Y-97029774D01*
X148911606Y-97402440D01*
X148900666Y-97513522D01*
X147199385Y-99214803D01*
X147150656Y-99254794D01*
X146991076Y-99449243D01*
X146872498Y-99671088D01*
X146821578Y-99838949D01*
X146799478Y-99911803D01*
X146774822Y-100162138D01*
X146781000Y-100224864D01*
X146781001Y-104826099D01*
X146522364Y-105084736D01*
X146306005Y-105408539D01*
X146156975Y-105768330D01*
X146081000Y-106150282D01*
X146081000Y-106516050D01*
X145924050Y-106673000D01*
X142641951Y-106673000D01*
X139915000Y-103946050D01*
X139915000Y-103118900D01*
X140173636Y-102860264D01*
X140389995Y-102536461D01*
X140539025Y-102176670D01*
X140615000Y-101794718D01*
X140615000Y-101405282D01*
X140539025Y-101023330D01*
X140389995Y-100663539D01*
X140173636Y-100339736D01*
X139898264Y-100064364D01*
X139574461Y-99848005D01*
X139214670Y-99698975D01*
X138832718Y-99623000D01*
X138443282Y-99623000D01*
X138061330Y-99698975D01*
X137701539Y-99848005D01*
X137377736Y-100064364D01*
X137102364Y-100339736D01*
X136886005Y-100663539D01*
X136736975Y-101023330D01*
X136661000Y-101405282D01*
X136661000Y-101794718D01*
X136736975Y-102176670D01*
X136886005Y-102536461D01*
X137102364Y-102860264D01*
X137361001Y-103118901D01*
X137361001Y-104412264D01*
X137354822Y-104475000D01*
X137379478Y-104725335D01*
X137438211Y-104918949D01*
X137452499Y-104966051D01*
X137571077Y-105187896D01*
X137730657Y-105382344D01*
X137779380Y-105422330D01*
X141165669Y-108808620D01*
X141205656Y-108857344D01*
X141400104Y-109016924D01*
X141621949Y-109135502D01*
X141857060Y-109206822D01*
X141862664Y-109208522D01*
X142112999Y-109233178D01*
X142175725Y-109227000D01*
X146390274Y-109227000D01*
X146453000Y-109233178D01*
X146515726Y-109227000D01*
X146703336Y-109208522D01*
X146944051Y-109135502D01*
X147165896Y-109016924D01*
X147360344Y-108857344D01*
X147400335Y-108808615D01*
X147886950Y-108322000D01*
X148252718Y-108322000D01*
X148634670Y-108246025D01*
X148994461Y-108096995D01*
X149318264Y-107880636D01*
X149593636Y-107605264D01*
X149628509Y-107553073D01*
X149697956Y-107744814D01*
X149987571Y-107885704D01*
X150299108Y-107967384D01*
X150620595Y-107986718D01*
X150939675Y-107942961D01*
X151244088Y-107837795D01*
X151418044Y-107744814D01*
X151513808Y-107480413D01*
X150558000Y-106524605D01*
X150543858Y-106538748D01*
X150364253Y-106359143D01*
X150378395Y-106345000D01*
X150737605Y-106345000D01*
X151693413Y-107300808D01*
X151957814Y-107205044D01*
X152098704Y-106915429D01*
X152180384Y-106603892D01*
X152199718Y-106282405D01*
X152155961Y-105963325D01*
X152050795Y-105658912D01*
X151957814Y-105484956D01*
X151693413Y-105389192D01*
X150737605Y-106345000D01*
X150378395Y-106345000D01*
X150364253Y-106330858D01*
X150543858Y-106151253D01*
X150558000Y-106165395D01*
X151513808Y-105209587D01*
X151418044Y-104945186D01*
X151225929Y-104851727D01*
X152400000Y-104851727D01*
X152591525Y-104832863D01*
X152775691Y-104776997D01*
X152945418Y-104686276D01*
X153094186Y-104564186D01*
X153216276Y-104415418D01*
X153306997Y-104245691D01*
X153362863Y-104061525D01*
X153381727Y-103870000D01*
X153381727Y-101870000D01*
X153362863Y-101678475D01*
X153341181Y-101607000D01*
X158207049Y-101607000D01*
X149966050Y-109848000D01*
X139609015Y-109848000D01*
X139739768Y-109688676D01*
X139923347Y-109345226D01*
X140036394Y-108972560D01*
X140074565Y-108585000D01*
X140036394Y-108197440D01*
X139923347Y-107824774D01*
X139739768Y-107481324D01*
X139492714Y-107180286D01*
X139191676Y-106933232D01*
X138848226Y-106749653D01*
X138475560Y-106636606D01*
X138185116Y-106608000D01*
X137450884Y-106608000D01*
X137160440Y-106636606D01*
X136787774Y-106749653D01*
X136444324Y-106933232D01*
X136256404Y-107087453D01*
X134627000Y-105458050D01*
X134627000Y-94844718D01*
X134633177Y-94781999D01*
X134627000Y-94719281D01*
X134627000Y-94719274D01*
X134608522Y-94531664D01*
X134535502Y-94290949D01*
X134416924Y-94069104D01*
X134257344Y-93874656D01*
X134208620Y-93834669D01*
X132900333Y-92526383D01*
X132900329Y-92526378D01*
X131860951Y-91487000D01*
X133247272Y-91487000D01*
X133310000Y-91493178D01*
X133372728Y-91487000D01*
X134524050Y-91487000D01*
X137661001Y-94623952D01*
X137661000Y-96965274D01*
X137654822Y-97028000D01*
X137661000Y-97090725D01*
X137679478Y-97278335D01*
X137752498Y-97519050D01*
X137871076Y-97740895D01*
X138030656Y-97935344D01*
X138079385Y-97975335D01*
X141131658Y-101027609D01*
X141150653Y-101090226D01*
X141334232Y-101433676D01*
X141470730Y-101600000D01*
X141334232Y-101766324D01*
X141150653Y-102109774D01*
X141037606Y-102482440D01*
X140999435Y-102870000D01*
X141037606Y-103257560D01*
X141150653Y-103630226D01*
X141334232Y-103973676D01*
X141581286Y-104274714D01*
X141882324Y-104521768D01*
X142225774Y-104705347D01*
X142598440Y-104818394D01*
X142888884Y-104847000D01*
X143623116Y-104847000D01*
X143913560Y-104818394D01*
X144286226Y-104705347D01*
X144629676Y-104521768D01*
X144930714Y-104274714D01*
X145177768Y-103973676D01*
X145361347Y-103630226D01*
X145474394Y-103257560D01*
X145512565Y-102870000D01*
X145474394Y-102482440D01*
X145361347Y-102109774D01*
X145177768Y-101766324D01*
X145041270Y-101600000D01*
X145177768Y-101433676D01*
X145361347Y-101090226D01*
X145474394Y-100717560D01*
X145512565Y-100330000D01*
X145474394Y-99942440D01*
X145361347Y-99569774D01*
X145177768Y-99226324D01*
X145047015Y-99067000D01*
X145711676Y-99067000D01*
X145774402Y-99073178D01*
X145837128Y-99067000D01*
X146024738Y-99048522D01*
X146265453Y-98975502D01*
X146487298Y-98856924D01*
X146681746Y-98697344D01*
X146721737Y-98648615D01*
X148686621Y-96683732D01*
X148735344Y-96643746D01*
X148894924Y-96449298D01*
X149013502Y-96227453D01*
X149086522Y-95986738D01*
X149105000Y-95799128D01*
X149105000Y-95799127D01*
X149111178Y-95736403D01*
X149105000Y-95673677D01*
X149105000Y-94869566D01*
X149269876Y-94869566D01*
X149389223Y-95123000D01*
X151003000Y-95123000D01*
X151003000Y-93615000D01*
X151257000Y-93615000D01*
X151257000Y-95123000D01*
X152870777Y-95123000D01*
X152990124Y-94869566D01*
X152959144Y-94741645D01*
X152830010Y-94447239D01*
X152645922Y-94183683D01*
X152413954Y-93961105D01*
X152143020Y-93788058D01*
X151843532Y-93671193D01*
X151527000Y-93615000D01*
X151257000Y-93615000D01*
X151003000Y-93615000D01*
X150733000Y-93615000D01*
X150416468Y-93671193D01*
X150116980Y-93788058D01*
X149846046Y-93961105D01*
X149614078Y-94183683D01*
X149429990Y-94447239D01*
X149300856Y-94741645D01*
X149269876Y-94869566D01*
X149105000Y-94869566D01*
X149105000Y-93873950D01*
X153436951Y-89542000D01*
X159322274Y-89542000D01*
X159385000Y-89548178D01*
X159447726Y-89542000D01*
X159635336Y-89523522D01*
X159876051Y-89450502D01*
X160097896Y-89331924D01*
X160292344Y-89172344D01*
X160332335Y-89123615D01*
X164126271Y-85329680D01*
X164436539Y-85536995D01*
X164796330Y-85686025D01*
X165178282Y-85762000D01*
X165567718Y-85762000D01*
X165714794Y-85732745D01*
X166871000Y-86888951D01*
X166871001Y-96457264D01*
X166864822Y-96520000D01*
X166889478Y-96770335D01*
X166938331Y-96931379D01*
X166962499Y-97011051D01*
X167081077Y-97232896D01*
X167240657Y-97427344D01*
X167289379Y-97467329D01*
X168711000Y-98888951D01*
X168711000Y-99231049D01*
X164114380Y-103827670D01*
X164065657Y-103867656D01*
X163906077Y-104062104D01*
X163819276Y-104224498D01*
X163787499Y-104283949D01*
X163714478Y-104524665D01*
X163689822Y-104775000D01*
X163696001Y-104837736D01*
X163696001Y-105796099D01*
X163437364Y-106054736D01*
X163221005Y-106378539D01*
X163071975Y-106738330D01*
X162996000Y-107120282D01*
X162996000Y-107509718D01*
X163071975Y-107891670D01*
X163221005Y-108251461D01*
X163437364Y-108575264D01*
X163712736Y-108850636D01*
X164036539Y-109066995D01*
X164396330Y-109216025D01*
X164778282Y-109292000D01*
X165167718Y-109292000D01*
X165549670Y-109216025D01*
X165909461Y-109066995D01*
X166233264Y-108850636D01*
X166508636Y-108575264D01*
X166724995Y-108251461D01*
X166874025Y-107891670D01*
X166950000Y-107509718D01*
X166950000Y-107120282D01*
X166874025Y-106738330D01*
X166724995Y-106378539D01*
X166508636Y-106054736D01*
X166250000Y-105796100D01*
X166250000Y-105303950D01*
X169064384Y-102489566D01*
X173272876Y-102489566D01*
X173392223Y-102743000D01*
X175006000Y-102743000D01*
X175006000Y-101235000D01*
X175260000Y-101235000D01*
X175260000Y-102743000D01*
X176873777Y-102743000D01*
X176993124Y-102489566D01*
X176962144Y-102361645D01*
X176833010Y-102067239D01*
X176648922Y-101803683D01*
X176416954Y-101581105D01*
X176146020Y-101408058D01*
X175846532Y-101291193D01*
X175530000Y-101235000D01*
X175260000Y-101235000D01*
X175006000Y-101235000D01*
X174736000Y-101235000D01*
X174419468Y-101291193D01*
X174119980Y-101408058D01*
X173849046Y-101581105D01*
X173617078Y-101803683D01*
X173432990Y-102067239D01*
X173303856Y-102361645D01*
X173272876Y-102489566D01*
X169064384Y-102489566D01*
X170516951Y-101037000D01*
X170882718Y-101037000D01*
X171264670Y-100961025D01*
X171624461Y-100811995D01*
X171948264Y-100595636D01*
X172223636Y-100320264D01*
X172439995Y-99996461D01*
X172589025Y-99636670D01*
X172665000Y-99254718D01*
X172665000Y-98865282D01*
X172589025Y-98483330D01*
X172439995Y-98123539D01*
X172223636Y-97799736D01*
X171948264Y-97524364D01*
X171624461Y-97308005D01*
X171264670Y-97158975D01*
X170882718Y-97083000D01*
X170516951Y-97083000D01*
X169425000Y-95991050D01*
X169425000Y-93845413D01*
X169732192Y-93845413D01*
X169827956Y-94109814D01*
X170117571Y-94250704D01*
X170429108Y-94332384D01*
X170750595Y-94351718D01*
X171069675Y-94307961D01*
X171374088Y-94202795D01*
X171548044Y-94109814D01*
X171643808Y-93845413D01*
X170688000Y-92889605D01*
X169732192Y-93845413D01*
X169425000Y-93845413D01*
X169425000Y-93619597D01*
X169552587Y-93665808D01*
X170508395Y-92710000D01*
X170867605Y-92710000D01*
X171823413Y-93665808D01*
X172087814Y-93570044D01*
X172228704Y-93280429D01*
X172310384Y-92968892D01*
X172329718Y-92647405D01*
X172285961Y-92328325D01*
X172180795Y-92023912D01*
X172087814Y-91849956D01*
X171823413Y-91754192D01*
X170867605Y-92710000D01*
X170508395Y-92710000D01*
X169552587Y-91754192D01*
X169425000Y-91800403D01*
X169425000Y-91574587D01*
X169732192Y-91574587D01*
X170688000Y-92530395D01*
X171643808Y-91574587D01*
X171548044Y-91310186D01*
X171258429Y-91169296D01*
X170946892Y-91087616D01*
X170625405Y-91068282D01*
X170306325Y-91112039D01*
X170001912Y-91217205D01*
X169827956Y-91310186D01*
X169732192Y-91574587D01*
X169425000Y-91574587D01*
X169425000Y-90508639D01*
X174029000Y-90508639D01*
X174029000Y-91101361D01*
X174144634Y-91682693D01*
X174371459Y-92230296D01*
X174700757Y-92723126D01*
X175119874Y-93142243D01*
X175612704Y-93471541D01*
X176160307Y-93698366D01*
X176741639Y-93814000D01*
X177334361Y-93814000D01*
X177915693Y-93698366D01*
X178463296Y-93471541D01*
X178956126Y-93142243D01*
X179375243Y-92723126D01*
X179704541Y-92230296D01*
X179931366Y-91682693D01*
X180047000Y-91101361D01*
X180047000Y-90508639D01*
X179931366Y-89927307D01*
X179704541Y-89379704D01*
X179375243Y-88886874D01*
X178956126Y-88467757D01*
X178463296Y-88138459D01*
X177915693Y-87911634D01*
X177334361Y-87796000D01*
X176741639Y-87796000D01*
X176160307Y-87911634D01*
X175612704Y-88138459D01*
X175119874Y-88467757D01*
X174700757Y-88886874D01*
X174371459Y-89379704D01*
X174144634Y-89927307D01*
X174029000Y-90508639D01*
X169425000Y-90508639D01*
X169425000Y-86422725D01*
X169431178Y-86359999D01*
X169406522Y-86109664D01*
X169377345Y-86013480D01*
X169333502Y-85868949D01*
X169214924Y-85647104D01*
X169055344Y-85452656D01*
X169006621Y-85412670D01*
X167350000Y-83756050D01*
X167350000Y-83590282D01*
X167274025Y-83208330D01*
X167124995Y-82848539D01*
X166908636Y-82524736D01*
X166633264Y-82249364D01*
X166309461Y-82033005D01*
X165949670Y-81883975D01*
X165567718Y-81808000D01*
X165178282Y-81808000D01*
X164888385Y-81865664D01*
X169207844Y-77546206D01*
X169418000Y-77566905D01*
X169778821Y-77531367D01*
X170125775Y-77426120D01*
X170445530Y-77255207D01*
X170688000Y-77056218D01*
X170930471Y-77255207D01*
X171250226Y-77426120D01*
X171597180Y-77531367D01*
X171958000Y-77566905D01*
X172318821Y-77531367D01*
X172665775Y-77426120D01*
X172985530Y-77255207D01*
X173228000Y-77056218D01*
X173470471Y-77255207D01*
X173790226Y-77426120D01*
X174137180Y-77531367D01*
X174498000Y-77566905D01*
X174858821Y-77531367D01*
X175205775Y-77426120D01*
X175525530Y-77255207D01*
X175805798Y-77025198D01*
X176035807Y-76744930D01*
X176206720Y-76425174D01*
X176311967Y-76078220D01*
X176336001Y-75834203D01*
X176336000Y-85951745D01*
X176332753Y-85993476D01*
X176340084Y-86054946D01*
X176346158Y-86116615D01*
X176348269Y-86123574D01*
X176349129Y-86130785D01*
X176368309Y-86189637D01*
X176386299Y-86248942D01*
X176389726Y-86255354D01*
X176391977Y-86262260D01*
X176422278Y-86316254D01*
X176451485Y-86370896D01*
X176456096Y-86376514D01*
X176459652Y-86382851D01*
X176499917Y-86429910D01*
X176539210Y-86477789D01*
X176544827Y-86482399D01*
X176549552Y-86487921D01*
X176598227Y-86526224D01*
X176646103Y-86565515D01*
X176683024Y-86585250D01*
X180908001Y-89284541D01*
X180908000Y-120909301D01*
X177438982Y-123221980D01*
X177408104Y-123238485D01*
X177355176Y-123281922D01*
X177301732Y-123325689D01*
X177301496Y-123325976D01*
X177301211Y-123326210D01*
X177257732Y-123379189D01*
X177213896Y-123432490D01*
X177213721Y-123432817D01*
X177213486Y-123433103D01*
X177180972Y-123493933D01*
X177148583Y-123554376D01*
X177148476Y-123554728D01*
X177148300Y-123555057D01*
X177128297Y-123620998D01*
X177108303Y-123686661D01*
X177108266Y-123687031D01*
X177108159Y-123687384D01*
X177101450Y-123755502D01*
X177094605Y-123824262D01*
X177098001Y-123859116D01*
X177098000Y-130108000D01*
X111700000Y-130108000D01*
X111700000Y-123528639D01*
X121959000Y-123528639D01*
X121959000Y-124121361D01*
X122074634Y-124702693D01*
X122301459Y-125250296D01*
X122630757Y-125743126D01*
X123049874Y-126162243D01*
X123542704Y-126491541D01*
X124090307Y-126718366D01*
X124671639Y-126834000D01*
X125264361Y-126834000D01*
X125845693Y-126718366D01*
X126393296Y-126491541D01*
X126886126Y-126162243D01*
X127305243Y-125743126D01*
X127634541Y-125250296D01*
X127861366Y-124702693D01*
X127977000Y-124121361D01*
X127977000Y-123528639D01*
X127861366Y-122947307D01*
X127634541Y-122399704D01*
X127305243Y-121906874D01*
X126886126Y-121487757D01*
X126393296Y-121158459D01*
X125845693Y-120931634D01*
X125264361Y-120816000D01*
X124671639Y-120816000D01*
X124090307Y-120931634D01*
X123542704Y-121158459D01*
X123049874Y-121487757D01*
X122630757Y-121906874D01*
X122301459Y-122399704D01*
X122074634Y-122947307D01*
X121959000Y-123528639D01*
X111700000Y-123528639D01*
X111700000Y-116585434D01*
X128037876Y-116585434D01*
X128068856Y-116713355D01*
X128197990Y-117007761D01*
X128382078Y-117271317D01*
X128614046Y-117493895D01*
X128884980Y-117666942D01*
X129184468Y-117783807D01*
X129501000Y-117840000D01*
X129771000Y-117840000D01*
X129771000Y-116332000D01*
X130025000Y-116332000D01*
X130025000Y-117840000D01*
X130295000Y-117840000D01*
X130611532Y-117783807D01*
X130911020Y-117666942D01*
X131181954Y-117493895D01*
X131413922Y-117271317D01*
X131598010Y-117007761D01*
X131727144Y-116713355D01*
X131758124Y-116585434D01*
X131638777Y-116332000D01*
X130025000Y-116332000D01*
X129771000Y-116332000D01*
X128157223Y-116332000D01*
X128037876Y-116585434D01*
X111700000Y-116585434D01*
X111700000Y-82401572D01*
X112470500Y-82401572D01*
X112470500Y-114448429D01*
X116974500Y-114448429D01*
X116974500Y-82401572D01*
X112470500Y-82401572D01*
X111700000Y-82401572D01*
X111700000Y-70552000D01*
X175259842Y-70552000D01*
X176336001Y-71448800D01*
G37*
%TD.AperFunction*%
%TD*%
M02*
