%TF.GenerationSoftware,KiCad,Pcbnew,(5.1.10)-1*%
%TF.CreationDate,2022-03-31T16:48:52+02:00*%
%TF.ProjectId,Shield,53686965-6c64-42e6-9b69-6361645f7063,rev?*%
%TF.SameCoordinates,Original*%
%TF.FileFunction,Legend,Top*%
%TF.FilePolarity,Positive*%
%FSLAX46Y46*%
G04 Gerber Fmt 4.6, Leading zero omitted, Abs format (unit mm)*
G04 Created by KiCad (PCBNEW (5.1.10)-1) date 2022-03-31 16:48:52*
%MOMM*%
%LPD*%
G01*
G04 APERTURE LIST*
%ADD10C,0.150000*%
%ADD11C,0.120000*%
G04 APERTURE END LIST*
D10*
X139390380Y-120999285D02*
X139390380Y-121570714D01*
X139390380Y-121285000D02*
X138390380Y-121285000D01*
X138533238Y-121380238D01*
X138628476Y-121475476D01*
X138676095Y-121570714D01*
D11*
%TO.C,U5*%
X128128000Y-107085000D02*
X128128000Y-117705000D01*
X128128000Y-117705000D02*
X139588000Y-117705000D01*
X139588000Y-117705000D02*
X139588000Y-107085000D01*
X139588000Y-107085000D02*
X135768000Y-107085000D01*
X135768000Y-107085000D02*
X135768000Y-107445000D01*
X135768000Y-107445000D02*
X131948001Y-107445000D01*
X131948001Y-107445000D02*
X131948001Y-107085000D01*
X131948001Y-107085000D02*
X128128000Y-107085000D01*
%TO.C,U3*%
X176633000Y-101370000D02*
X176633000Y-111990000D01*
X176633000Y-111990000D02*
X173633000Y-111990000D01*
X173633000Y-111990000D02*
X173633000Y-101370000D01*
X173633000Y-101370000D02*
X176633000Y-101370000D01*
X176633000Y-104140000D02*
X173633000Y-104140000D01*
%TO.C,U4*%
X131578000Y-82955000D02*
X142198000Y-82955000D01*
X142198000Y-82955000D02*
X142198000Y-85955000D01*
X142198000Y-85955000D02*
X131578000Y-85955000D01*
X131578000Y-85955000D02*
X131578000Y-82955000D01*
X134348000Y-82955000D02*
X134348000Y-85955000D01*
X144508000Y-85725000D02*
X141968000Y-85725000D01*
X144508000Y-83185000D02*
X144508000Y-85725000D01*
X141968000Y-83185000D02*
X144508000Y-83185000D01*
X129268000Y-85725000D02*
X131808000Y-85725000D01*
X129268000Y-83185000D02*
X129268000Y-85725000D01*
X131808000Y-83185000D02*
X129268000Y-83185000D01*
%TO.C,U2*%
X146193000Y-83590000D02*
X159353000Y-83590000D01*
X159353000Y-83590000D02*
X159353000Y-86590000D01*
X159353000Y-86590000D02*
X146193000Y-86590000D01*
X146193000Y-86590000D02*
X146193000Y-83590000D01*
X148963000Y-83590000D02*
X148963000Y-86590000D01*
%TO.C,U1*%
X152630000Y-104370000D02*
X152630000Y-93750000D01*
X152630000Y-93750000D02*
X141756000Y-93750000D01*
X141756000Y-93750000D02*
X141756000Y-104370000D01*
X141756000Y-104370000D02*
X145380667Y-104370000D01*
X145380667Y-104370000D02*
X145380667Y-104010000D01*
X145380667Y-104010000D02*
X149005333Y-104010000D01*
X149005333Y-104010000D02*
X149005333Y-104370000D01*
X149005333Y-104370000D02*
X152630000Y-104370000D01*
%TO.C,Rsens1*%
X127278000Y-92710000D02*
X130278000Y-92710000D01*
X130278000Y-96710000D02*
X127278000Y-96710000D01*
X130278000Y-88710000D02*
X130278000Y-96710000D01*
X127278000Y-88710000D02*
X130278000Y-88710000D01*
X127278000Y-96710000D02*
X127278000Y-88710000D01*
%TO.C,R6*%
X164973000Y-108255000D02*
X164973000Y-109205000D01*
X164973000Y-113995000D02*
X164973000Y-113045000D01*
X164053000Y-109205000D02*
X164053000Y-113045000D01*
X165893000Y-109205000D02*
X164053000Y-109205000D01*
X165893000Y-113045000D02*
X165893000Y-109205000D01*
X164053000Y-113045000D02*
X165893000Y-113045000D01*
%TO.C,R5*%
X129518000Y-101600000D02*
X130288000Y-101600000D01*
X137598000Y-101600000D02*
X136828000Y-101600000D01*
X130288000Y-102970000D02*
X136828000Y-102970000D01*
X130288000Y-100230000D02*
X130288000Y-102970000D01*
X136828000Y-100230000D02*
X130288000Y-100230000D01*
X136828000Y-102970000D02*
X136828000Y-100230000D01*
%TO.C,R3*%
X169648000Y-99060000D02*
X168878000Y-99060000D01*
X161568000Y-99060000D02*
X162338000Y-99060000D01*
X168878000Y-97690000D02*
X162338000Y-97690000D01*
X168878000Y-100430000D02*
X168878000Y-97690000D01*
X162338000Y-100430000D02*
X168878000Y-100430000D01*
X162338000Y-97690000D02*
X162338000Y-100430000D01*
%TO.C,R1*%
X161568000Y-92710000D02*
X162338000Y-92710000D01*
X169648000Y-92710000D02*
X168878000Y-92710000D01*
X162338000Y-94080000D02*
X168878000Y-94080000D01*
X162338000Y-91340000D02*
X162338000Y-94080000D01*
X168878000Y-91340000D02*
X162338000Y-91340000D01*
X168878000Y-94080000D02*
X168878000Y-91340000D01*
%TO.C,C4*%
X166078272Y-90309867D02*
X161499783Y-89083065D01*
X167952122Y-83316564D02*
X163373633Y-82089762D01*
X163373633Y-82089762D02*
X161499783Y-89083065D01*
X167952122Y-83316564D02*
X166078272Y-90309867D01*
D10*
%TO.C,P1*%
X137388000Y-122275000D02*
X137388000Y-125375000D01*
X138938000Y-122275000D02*
X137388000Y-122275000D01*
X140208000Y-125095000D02*
X140208000Y-122555000D01*
X137388000Y-125375000D02*
X138938000Y-125375000D01*
X157988000Y-122555000D02*
X140208000Y-122555000D01*
X157988000Y-125095000D02*
X157988000Y-122555000D01*
X140208000Y-125095000D02*
X157988000Y-125095000D01*
%TO.C,P2*%
X160248000Y-122275000D02*
X160248000Y-125375000D01*
X161798000Y-122275000D02*
X160248000Y-122275000D01*
X163068000Y-125095000D02*
X163068000Y-122555000D01*
X160248000Y-125375000D02*
X161798000Y-125375000D01*
X175768000Y-122555000D02*
X163068000Y-122555000D01*
X175768000Y-125095000D02*
X175768000Y-122555000D01*
X163068000Y-125095000D02*
X175768000Y-125095000D01*
%TO.C,P3*%
X128244000Y-74015000D02*
X128244000Y-77115000D01*
X129794000Y-74015000D02*
X128244000Y-74015000D01*
X131064000Y-76835000D02*
X131064000Y-74295000D01*
X128244000Y-77115000D02*
X129794000Y-77115000D01*
X153924000Y-74295000D02*
X131064000Y-74295000D01*
X153924000Y-76835000D02*
X153924000Y-74295000D01*
X131064000Y-76835000D02*
X153924000Y-76835000D01*
%TO.C,P4*%
X155168000Y-74015000D02*
X155168000Y-77115000D01*
X156718000Y-74015000D02*
X155168000Y-74015000D01*
X157988000Y-76835000D02*
X157988000Y-74295000D01*
X155168000Y-77115000D02*
X156718000Y-77115000D01*
X175768000Y-74295000D02*
X157988000Y-74295000D01*
X175768000Y-76835000D02*
X175768000Y-74295000D01*
X157988000Y-76835000D02*
X175768000Y-76835000D01*
%TO.C,P5*%
X127254000Y-123825000D02*
G75*
G03*
X127254000Y-123825000I-2286000J0D01*
G01*
%TO.C,P6*%
X179324000Y-118745000D02*
G75*
G03*
X179324000Y-118745000I-2286000J0D01*
G01*
%TO.C,P7*%
X128524000Y-75565000D02*
G75*
G03*
X128524000Y-75565000I-2286000J0D01*
G01*
%TO.C,P8*%
X179324000Y-90805000D02*
G75*
G03*
X179324000Y-90805000I-2286000J0D01*
G01*
D11*
%TO.C,C1*%
X151928000Y-104975000D02*
X151928000Y-107715000D01*
X146688000Y-104975000D02*
X146688000Y-107715000D01*
X146688000Y-107715000D02*
X151928000Y-107715000D01*
X146688000Y-104975000D02*
X151928000Y-104975000D01*
%TO.C,C2*%
X157293000Y-116305000D02*
X157293000Y-113565000D01*
X162533000Y-116305000D02*
X162533000Y-113565000D01*
X162533000Y-113565000D02*
X157293000Y-113565000D01*
X162533000Y-116305000D02*
X157293000Y-116305000D01*
%TO.C,C3*%
X150468000Y-114200000D02*
X150468000Y-119440000D01*
X147728000Y-114200000D02*
X147728000Y-119440000D01*
X150468000Y-114200000D02*
X147728000Y-114200000D01*
X150468000Y-119440000D02*
X147728000Y-119440000D01*
%TO.C,U5*%
D10*
X133096095Y-105537380D02*
X133096095Y-106346904D01*
X133143714Y-106442142D01*
X133191333Y-106489761D01*
X133286571Y-106537380D01*
X133477047Y-106537380D01*
X133572285Y-106489761D01*
X133619904Y-106442142D01*
X133667523Y-106346904D01*
X133667523Y-105537380D01*
X134619904Y-105537380D02*
X134143714Y-105537380D01*
X134096095Y-106013571D01*
X134143714Y-105965952D01*
X134238952Y-105918333D01*
X134477047Y-105918333D01*
X134572285Y-105965952D01*
X134619904Y-106013571D01*
X134667523Y-106108809D01*
X134667523Y-106346904D01*
X134619904Y-106442142D01*
X134572285Y-106489761D01*
X134477047Y-106537380D01*
X134238952Y-106537380D01*
X134143714Y-106489761D01*
X134096095Y-106442142D01*
%TO.C,U3*%
X172085380Y-107441904D02*
X172894904Y-107441904D01*
X172990142Y-107394285D01*
X173037761Y-107346666D01*
X173085380Y-107251428D01*
X173085380Y-107060952D01*
X173037761Y-106965714D01*
X172990142Y-106918095D01*
X172894904Y-106870476D01*
X172085380Y-106870476D01*
X172085380Y-106489523D02*
X172085380Y-105870476D01*
X172466333Y-106203809D01*
X172466333Y-106060952D01*
X172513952Y-105965714D01*
X172561571Y-105918095D01*
X172656809Y-105870476D01*
X172894904Y-105870476D01*
X172990142Y-105918095D01*
X173037761Y-105965714D01*
X173085380Y-106060952D01*
X173085380Y-106346666D01*
X173037761Y-106441904D01*
X172990142Y-106489523D01*
%TO.C,U4*%
X136126095Y-86407380D02*
X136126095Y-87216904D01*
X136173714Y-87312142D01*
X136221333Y-87359761D01*
X136316571Y-87407380D01*
X136507047Y-87407380D01*
X136602285Y-87359761D01*
X136649904Y-87312142D01*
X136697523Y-87216904D01*
X136697523Y-86407380D01*
X137602285Y-86740714D02*
X137602285Y-87407380D01*
X137364190Y-86359761D02*
X137126095Y-87074047D01*
X137745142Y-87074047D01*
%TO.C,U2*%
X152011095Y-87042380D02*
X152011095Y-87851904D01*
X152058714Y-87947142D01*
X152106333Y-87994761D01*
X152201571Y-88042380D01*
X152392047Y-88042380D01*
X152487285Y-87994761D01*
X152534904Y-87947142D01*
X152582523Y-87851904D01*
X152582523Y-87042380D01*
X153011095Y-87137619D02*
X153058714Y-87090000D01*
X153153952Y-87042380D01*
X153392047Y-87042380D01*
X153487285Y-87090000D01*
X153534904Y-87137619D01*
X153582523Y-87232857D01*
X153582523Y-87328095D01*
X153534904Y-87470952D01*
X152963476Y-88042380D01*
X153582523Y-88042380D01*
%TO.C,U1*%
X146431095Y-104822380D02*
X146431095Y-105631904D01*
X146478714Y-105727142D01*
X146526333Y-105774761D01*
X146621571Y-105822380D01*
X146812047Y-105822380D01*
X146907285Y-105774761D01*
X146954904Y-105727142D01*
X147002523Y-105631904D01*
X147002523Y-104822380D01*
X148002523Y-105822380D02*
X147431095Y-105822380D01*
X147716809Y-105822380D02*
X147716809Y-104822380D01*
X147621571Y-104965238D01*
X147526333Y-105060476D01*
X147431095Y-105108095D01*
%TO.C,Rsens1*%
X131730380Y-94567142D02*
X131254190Y-94900476D01*
X131730380Y-95138571D02*
X130730380Y-95138571D01*
X130730380Y-94757619D01*
X130778000Y-94662380D01*
X130825619Y-94614761D01*
X130920857Y-94567142D01*
X131063714Y-94567142D01*
X131158952Y-94614761D01*
X131206571Y-94662380D01*
X131254190Y-94757619D01*
X131254190Y-95138571D01*
X131682761Y-94186190D02*
X131730380Y-94090952D01*
X131730380Y-93900476D01*
X131682761Y-93805238D01*
X131587523Y-93757619D01*
X131539904Y-93757619D01*
X131444666Y-93805238D01*
X131397047Y-93900476D01*
X131397047Y-94043333D01*
X131349428Y-94138571D01*
X131254190Y-94186190D01*
X131206571Y-94186190D01*
X131111333Y-94138571D01*
X131063714Y-94043333D01*
X131063714Y-93900476D01*
X131111333Y-93805238D01*
X131682761Y-92948095D02*
X131730380Y-93043333D01*
X131730380Y-93233809D01*
X131682761Y-93329047D01*
X131587523Y-93376666D01*
X131206571Y-93376666D01*
X131111333Y-93329047D01*
X131063714Y-93233809D01*
X131063714Y-93043333D01*
X131111333Y-92948095D01*
X131206571Y-92900476D01*
X131301809Y-92900476D01*
X131397047Y-93376666D01*
X131063714Y-92471904D02*
X131730380Y-92471904D01*
X131158952Y-92471904D02*
X131111333Y-92424285D01*
X131063714Y-92329047D01*
X131063714Y-92186190D01*
X131111333Y-92090952D01*
X131206571Y-92043333D01*
X131730380Y-92043333D01*
X131682761Y-91614761D02*
X131730380Y-91519523D01*
X131730380Y-91329047D01*
X131682761Y-91233809D01*
X131587523Y-91186190D01*
X131539904Y-91186190D01*
X131444666Y-91233809D01*
X131397047Y-91329047D01*
X131397047Y-91471904D01*
X131349428Y-91567142D01*
X131254190Y-91614761D01*
X131206571Y-91614761D01*
X131111333Y-91567142D01*
X131063714Y-91471904D01*
X131063714Y-91329047D01*
X131111333Y-91233809D01*
X131730380Y-90233809D02*
X131730380Y-90805238D01*
X131730380Y-90519523D02*
X130730380Y-90519523D01*
X130873238Y-90614761D01*
X130968476Y-90710000D01*
X131016095Y-90805238D01*
%TO.C,R6*%
X163505380Y-111291666D02*
X163029190Y-111625000D01*
X163505380Y-111863095D02*
X162505380Y-111863095D01*
X162505380Y-111482142D01*
X162553000Y-111386904D01*
X162600619Y-111339285D01*
X162695857Y-111291666D01*
X162838714Y-111291666D01*
X162933952Y-111339285D01*
X162981571Y-111386904D01*
X163029190Y-111482142D01*
X163029190Y-111863095D01*
X162505380Y-110434523D02*
X162505380Y-110625000D01*
X162553000Y-110720238D01*
X162600619Y-110767857D01*
X162743476Y-110863095D01*
X162933952Y-110910714D01*
X163314904Y-110910714D01*
X163410142Y-110863095D01*
X163457761Y-110815476D01*
X163505380Y-110720238D01*
X163505380Y-110529761D01*
X163457761Y-110434523D01*
X163410142Y-110386904D01*
X163314904Y-110339285D01*
X163076809Y-110339285D01*
X162981571Y-110386904D01*
X162933952Y-110434523D01*
X162886333Y-110529761D01*
X162886333Y-110720238D01*
X162933952Y-110815476D01*
X162981571Y-110863095D01*
X163076809Y-110910714D01*
%TO.C,R5*%
X133391333Y-104422380D02*
X133058000Y-103946190D01*
X132819904Y-104422380D02*
X132819904Y-103422380D01*
X133200857Y-103422380D01*
X133296095Y-103470000D01*
X133343714Y-103517619D01*
X133391333Y-103612857D01*
X133391333Y-103755714D01*
X133343714Y-103850952D01*
X133296095Y-103898571D01*
X133200857Y-103946190D01*
X132819904Y-103946190D01*
X134296095Y-103422380D02*
X133819904Y-103422380D01*
X133772285Y-103898571D01*
X133819904Y-103850952D01*
X133915142Y-103803333D01*
X134153238Y-103803333D01*
X134248476Y-103850952D01*
X134296095Y-103898571D01*
X134343714Y-103993809D01*
X134343714Y-104231904D01*
X134296095Y-104327142D01*
X134248476Y-104374761D01*
X134153238Y-104422380D01*
X133915142Y-104422380D01*
X133819904Y-104374761D01*
X133772285Y-104327142D01*
%TO.C,R3*%
X165441333Y-97142380D02*
X165108000Y-96666190D01*
X164869904Y-97142380D02*
X164869904Y-96142380D01*
X165250857Y-96142380D01*
X165346095Y-96190000D01*
X165393714Y-96237619D01*
X165441333Y-96332857D01*
X165441333Y-96475714D01*
X165393714Y-96570952D01*
X165346095Y-96618571D01*
X165250857Y-96666190D01*
X164869904Y-96666190D01*
X165774666Y-96142380D02*
X166393714Y-96142380D01*
X166060380Y-96523333D01*
X166203238Y-96523333D01*
X166298476Y-96570952D01*
X166346095Y-96618571D01*
X166393714Y-96713809D01*
X166393714Y-96951904D01*
X166346095Y-97047142D01*
X166298476Y-97094761D01*
X166203238Y-97142380D01*
X165917523Y-97142380D01*
X165822285Y-97094761D01*
X165774666Y-97047142D01*
%TO.C,R1*%
X165441333Y-95532380D02*
X165108000Y-95056190D01*
X164869904Y-95532380D02*
X164869904Y-94532380D01*
X165250857Y-94532380D01*
X165346095Y-94580000D01*
X165393714Y-94627619D01*
X165441333Y-94722857D01*
X165441333Y-94865714D01*
X165393714Y-94960952D01*
X165346095Y-95008571D01*
X165250857Y-95056190D01*
X164869904Y-95056190D01*
X166393714Y-95532380D02*
X165822285Y-95532380D01*
X166108000Y-95532380D02*
X166108000Y-94532380D01*
X166012761Y-94675238D01*
X165917523Y-94770476D01*
X165822285Y-94818095D01*
%TO.C,C4*%
X168408530Y-87359104D02*
X168442201Y-87417425D01*
X168451224Y-87567739D01*
X168426574Y-87659732D01*
X168343604Y-87785396D01*
X168226961Y-87852740D01*
X168122644Y-87874087D01*
X167926333Y-87870785D01*
X167788344Y-87833810D01*
X167616682Y-87738515D01*
X167537014Y-87667869D01*
X167469671Y-87551227D01*
X167460648Y-87400913D01*
X167485298Y-87308920D01*
X167568268Y-87183255D01*
X167626590Y-87149583D01*
X168078417Y-86383270D02*
X168722367Y-86555817D01*
X167648821Y-86514655D02*
X168277145Y-86929508D01*
X168437366Y-86331554D01*
%TO.C,P1*%
X147089904Y-121737380D02*
X147089904Y-120737380D01*
X147470857Y-120737380D01*
X147566095Y-120785000D01*
X147613714Y-120832619D01*
X147661333Y-120927857D01*
X147661333Y-121070714D01*
X147613714Y-121165952D01*
X147566095Y-121213571D01*
X147470857Y-121261190D01*
X147089904Y-121261190D01*
X148613714Y-121737380D02*
X148042285Y-121737380D01*
X148328000Y-121737380D02*
X148328000Y-120737380D01*
X148232761Y-120880238D01*
X148137523Y-120975476D01*
X148042285Y-121023095D01*
%TO.C,P2*%
X167663904Y-121737380D02*
X167663904Y-120737380D01*
X168044857Y-120737380D01*
X168140095Y-120785000D01*
X168187714Y-120832619D01*
X168235333Y-120927857D01*
X168235333Y-121070714D01*
X168187714Y-121165952D01*
X168140095Y-121213571D01*
X168044857Y-121261190D01*
X167663904Y-121261190D01*
X168616285Y-120832619D02*
X168663904Y-120785000D01*
X168759142Y-120737380D01*
X168997238Y-120737380D01*
X169092476Y-120785000D01*
X169140095Y-120832619D01*
X169187714Y-120927857D01*
X169187714Y-121023095D01*
X169140095Y-121165952D01*
X168568666Y-121737380D01*
X169187714Y-121737380D01*
%TO.C,P3*%
X140485904Y-78811380D02*
X140485904Y-77811380D01*
X140866857Y-77811380D01*
X140962095Y-77859000D01*
X141009714Y-77906619D01*
X141057333Y-78001857D01*
X141057333Y-78144714D01*
X141009714Y-78239952D01*
X140962095Y-78287571D01*
X140866857Y-78335190D01*
X140485904Y-78335190D01*
X141390666Y-77811380D02*
X142009714Y-77811380D01*
X141676380Y-78192333D01*
X141819238Y-78192333D01*
X141914476Y-78239952D01*
X141962095Y-78287571D01*
X142009714Y-78382809D01*
X142009714Y-78620904D01*
X141962095Y-78716142D01*
X141914476Y-78763761D01*
X141819238Y-78811380D01*
X141533523Y-78811380D01*
X141438285Y-78763761D01*
X141390666Y-78716142D01*
%TO.C,P4*%
X164869904Y-78811380D02*
X164869904Y-77811380D01*
X165250857Y-77811380D01*
X165346095Y-77859000D01*
X165393714Y-77906619D01*
X165441333Y-78001857D01*
X165441333Y-78144714D01*
X165393714Y-78239952D01*
X165346095Y-78287571D01*
X165250857Y-78335190D01*
X164869904Y-78335190D01*
X166298476Y-78144714D02*
X166298476Y-78811380D01*
X166060380Y-77763761D02*
X165822285Y-78478047D01*
X166441333Y-78478047D01*
%TO.C,C1*%
X149141333Y-104202142D02*
X149093714Y-104249761D01*
X148950857Y-104297380D01*
X148855619Y-104297380D01*
X148712761Y-104249761D01*
X148617523Y-104154523D01*
X148569904Y-104059285D01*
X148522285Y-103868809D01*
X148522285Y-103725952D01*
X148569904Y-103535476D01*
X148617523Y-103440238D01*
X148712761Y-103345000D01*
X148855619Y-103297380D01*
X148950857Y-103297380D01*
X149093714Y-103345000D01*
X149141333Y-103392619D01*
X150093714Y-104297380D02*
X149522285Y-104297380D01*
X149808000Y-104297380D02*
X149808000Y-103297380D01*
X149712761Y-103440238D01*
X149617523Y-103535476D01*
X149522285Y-103583095D01*
%TO.C,C2*%
X159746333Y-117792142D02*
X159698714Y-117839761D01*
X159555857Y-117887380D01*
X159460619Y-117887380D01*
X159317761Y-117839761D01*
X159222523Y-117744523D01*
X159174904Y-117649285D01*
X159127285Y-117458809D01*
X159127285Y-117315952D01*
X159174904Y-117125476D01*
X159222523Y-117030238D01*
X159317761Y-116935000D01*
X159460619Y-116887380D01*
X159555857Y-116887380D01*
X159698714Y-116935000D01*
X159746333Y-116982619D01*
X160127285Y-116982619D02*
X160174904Y-116935000D01*
X160270142Y-116887380D01*
X160508238Y-116887380D01*
X160603476Y-116935000D01*
X160651095Y-116982619D01*
X160698714Y-117077857D01*
X160698714Y-117173095D01*
X160651095Y-117315952D01*
X160079666Y-117887380D01*
X160698714Y-117887380D01*
%TO.C,C3*%
X151955142Y-116986666D02*
X152002761Y-117034285D01*
X152050380Y-117177142D01*
X152050380Y-117272380D01*
X152002761Y-117415238D01*
X151907523Y-117510476D01*
X151812285Y-117558095D01*
X151621809Y-117605714D01*
X151478952Y-117605714D01*
X151288476Y-117558095D01*
X151193238Y-117510476D01*
X151098000Y-117415238D01*
X151050380Y-117272380D01*
X151050380Y-117177142D01*
X151098000Y-117034285D01*
X151145619Y-116986666D01*
X151050380Y-116653333D02*
X151050380Y-116034285D01*
X151431333Y-116367619D01*
X151431333Y-116224761D01*
X151478952Y-116129523D01*
X151526571Y-116081904D01*
X151621809Y-116034285D01*
X151859904Y-116034285D01*
X151955142Y-116081904D01*
X152002761Y-116129523D01*
X152050380Y-116224761D01*
X152050380Y-116510476D01*
X152002761Y-116605714D01*
X151955142Y-116653333D01*
%TD*%
M02*
