%TF.GenerationSoftware,KiCad,Pcbnew,(5.1.10)-1*%
%TF.CreationDate,2022-03-30T10:22:29+02:00*%
%TF.ProjectId,Shield,53686965-6c64-42e6-9b69-6361645f7063,rev?*%
%TF.SameCoordinates,Original*%
%TF.FileFunction,Legend,Top*%
%TF.FilePolarity,Positive*%
%FSLAX46Y46*%
G04 Gerber Fmt 4.6, Leading zero omitted, Abs format (unit mm)*
G04 Created by KiCad (PCBNEW (5.1.10)-1) date 2022-03-30 10:22:29*
%MOMM*%
%LPD*%
G01*
G04 APERTURE LIST*
%ADD10C,0.150000*%
%ADD11C,0.120000*%
G04 APERTURE END LIST*
D10*
X139390380Y-120999285D02*
X139390380Y-121570714D01*
X139390380Y-121285000D02*
X138390380Y-121285000D01*
X138533238Y-121380238D01*
X138628476Y-121475476D01*
X138676095Y-121570714D01*
D11*
%TO.C,U5*%
X131948001Y-107085000D02*
X128128000Y-107085000D01*
X131948001Y-107445000D02*
X131948001Y-107085000D01*
X135768000Y-107445000D02*
X131948001Y-107445000D01*
X135768000Y-107085000D02*
X135768000Y-107445000D01*
X139588000Y-107085000D02*
X135768000Y-107085000D01*
X139588000Y-117705000D02*
X139588000Y-107085000D01*
X128128000Y-117705000D02*
X139588000Y-117705000D01*
X128128000Y-107085000D02*
X128128000Y-117705000D01*
%TO.C,U3*%
X176633000Y-104140000D02*
X173633000Y-104140000D01*
X173633000Y-101370000D02*
X176633000Y-101370000D01*
X173633000Y-111990000D02*
X173633000Y-101370000D01*
X176633000Y-111990000D02*
X173633000Y-111990000D01*
X176633000Y-101370000D02*
X176633000Y-111990000D01*
%TO.C,U4*%
X127508000Y-83185000D02*
X124968000Y-83185000D01*
X124968000Y-83185000D02*
X124968000Y-85725000D01*
X124968000Y-85725000D02*
X127508000Y-85725000D01*
X137668000Y-83185000D02*
X140208000Y-83185000D01*
X140208000Y-83185000D02*
X140208000Y-85725000D01*
X140208000Y-85725000D02*
X137668000Y-85725000D01*
X130048000Y-82955000D02*
X130048000Y-85955000D01*
X127278000Y-85955000D02*
X127278000Y-82955000D01*
X137898000Y-85955000D02*
X127278000Y-85955000D01*
X137898000Y-82955000D02*
X137898000Y-85955000D01*
X127278000Y-82955000D02*
X137898000Y-82955000D01*
%TO.C,U2*%
X148463000Y-83590000D02*
X148463000Y-86590000D01*
X145693000Y-86590000D02*
X145693000Y-83590000D01*
X158853000Y-86590000D02*
X145693000Y-86590000D01*
X158853000Y-83590000D02*
X158853000Y-86590000D01*
X145693000Y-83590000D02*
X158853000Y-83590000D01*
%TO.C,U1*%
X149005333Y-104370000D02*
X152630000Y-104370000D01*
X149005333Y-104010000D02*
X149005333Y-104370000D01*
X145380667Y-104010000D02*
X149005333Y-104010000D01*
X145380667Y-104370000D02*
X145380667Y-104010000D01*
X141756000Y-104370000D02*
X145380667Y-104370000D01*
X141756000Y-93750000D02*
X141756000Y-104370000D01*
X152630000Y-93750000D02*
X141756000Y-93750000D01*
X152630000Y-104370000D02*
X152630000Y-93750000D01*
%TO.C,Rsens1*%
X127278000Y-96710000D02*
X127278000Y-88710000D01*
X127278000Y-88710000D02*
X130278000Y-88710000D01*
X130278000Y-88710000D02*
X130278000Y-96710000D01*
X130278000Y-96710000D02*
X127278000Y-96710000D01*
X127278000Y-92710000D02*
X130278000Y-92710000D01*
%TO.C,R6*%
X164053000Y-113045000D02*
X165893000Y-113045000D01*
X165893000Y-113045000D02*
X165893000Y-109205000D01*
X165893000Y-109205000D02*
X164053000Y-109205000D01*
X164053000Y-109205000D02*
X164053000Y-113045000D01*
X164973000Y-113995000D02*
X164973000Y-113045000D01*
X164973000Y-108255000D02*
X164973000Y-109205000D01*
%TO.C,R5*%
X137128000Y-102970000D02*
X137128000Y-100230000D01*
X137128000Y-100230000D02*
X130588000Y-100230000D01*
X130588000Y-100230000D02*
X130588000Y-102970000D01*
X130588000Y-102970000D02*
X137128000Y-102970000D01*
X137898000Y-101600000D02*
X137128000Y-101600000D01*
X129818000Y-101600000D02*
X130588000Y-101600000D01*
%TO.C,R3*%
X162338000Y-97690000D02*
X162338000Y-100430000D01*
X162338000Y-100430000D02*
X168878000Y-100430000D01*
X168878000Y-100430000D02*
X168878000Y-97690000D01*
X168878000Y-97690000D02*
X162338000Y-97690000D01*
X161568000Y-99060000D02*
X162338000Y-99060000D01*
X169648000Y-99060000D02*
X168878000Y-99060000D01*
%TO.C,R1*%
X168878000Y-94080000D02*
X168878000Y-91340000D01*
X168878000Y-91340000D02*
X162338000Y-91340000D01*
X162338000Y-91340000D02*
X162338000Y-94080000D01*
X162338000Y-94080000D02*
X168878000Y-94080000D01*
X169648000Y-92710000D02*
X168878000Y-92710000D01*
X161568000Y-92710000D02*
X162338000Y-92710000D01*
%TO.C,C4*%
X167343000Y-82065000D02*
X167343000Y-89305000D01*
X162603000Y-82065000D02*
X162603000Y-89305000D01*
X167343000Y-82065000D02*
X162603000Y-82065000D01*
X167343000Y-89305000D02*
X162603000Y-89305000D01*
%TO.C,C3*%
X150018000Y-116191000D02*
X150018000Y-117449000D01*
X148178000Y-116191000D02*
X148178000Y-117449000D01*
%TO.C,C2*%
X160542000Y-115855000D02*
X159284000Y-115855000D01*
X160542000Y-114015000D02*
X159284000Y-114015000D01*
%TO.C,C1*%
X147179000Y-105125000D02*
X148437000Y-105125000D01*
X147179000Y-106965000D02*
X148437000Y-106965000D01*
D10*
%TO.C,P1*%
X140208000Y-125095000D02*
X157988000Y-125095000D01*
X157988000Y-125095000D02*
X157988000Y-122555000D01*
X157988000Y-122555000D02*
X140208000Y-122555000D01*
X137388000Y-125375000D02*
X138938000Y-125375000D01*
X140208000Y-125095000D02*
X140208000Y-122555000D01*
X138938000Y-122275000D02*
X137388000Y-122275000D01*
X137388000Y-122275000D02*
X137388000Y-125375000D01*
%TO.C,P2*%
X163068000Y-125095000D02*
X175768000Y-125095000D01*
X175768000Y-125095000D02*
X175768000Y-122555000D01*
X175768000Y-122555000D02*
X163068000Y-122555000D01*
X160248000Y-125375000D02*
X161798000Y-125375000D01*
X163068000Y-125095000D02*
X163068000Y-122555000D01*
X161798000Y-122275000D02*
X160248000Y-122275000D01*
X160248000Y-122275000D02*
X160248000Y-125375000D01*
%TO.C,P3*%
X131064000Y-76835000D02*
X153924000Y-76835000D01*
X153924000Y-76835000D02*
X153924000Y-74295000D01*
X153924000Y-74295000D02*
X131064000Y-74295000D01*
X128244000Y-77115000D02*
X129794000Y-77115000D01*
X131064000Y-76835000D02*
X131064000Y-74295000D01*
X129794000Y-74015000D02*
X128244000Y-74015000D01*
X128244000Y-74015000D02*
X128244000Y-77115000D01*
%TO.C,P4*%
X157988000Y-76835000D02*
X175768000Y-76835000D01*
X175768000Y-76835000D02*
X175768000Y-74295000D01*
X175768000Y-74295000D02*
X157988000Y-74295000D01*
X155168000Y-77115000D02*
X156718000Y-77115000D01*
X157988000Y-76835000D02*
X157988000Y-74295000D01*
X156718000Y-74015000D02*
X155168000Y-74015000D01*
X155168000Y-74015000D02*
X155168000Y-77115000D01*
%TO.C,P5*%
X127254000Y-123825000D02*
G75*
G03*
X127254000Y-123825000I-2286000J0D01*
G01*
%TO.C,P6*%
X179324000Y-118745000D02*
G75*
G03*
X179324000Y-118745000I-2286000J0D01*
G01*
%TO.C,P7*%
X128524000Y-75565000D02*
G75*
G03*
X128524000Y-75565000I-2286000J0D01*
G01*
%TO.C,P8*%
X179324000Y-90805000D02*
G75*
G03*
X179324000Y-90805000I-2286000J0D01*
G01*
%TO.C,U5*%
X133096095Y-105537380D02*
X133096095Y-106346904D01*
X133143714Y-106442142D01*
X133191333Y-106489761D01*
X133286571Y-106537380D01*
X133477047Y-106537380D01*
X133572285Y-106489761D01*
X133619904Y-106442142D01*
X133667523Y-106346904D01*
X133667523Y-105537380D01*
X134619904Y-105537380D02*
X134143714Y-105537380D01*
X134096095Y-106013571D01*
X134143714Y-105965952D01*
X134238952Y-105918333D01*
X134477047Y-105918333D01*
X134572285Y-105965952D01*
X134619904Y-106013571D01*
X134667523Y-106108809D01*
X134667523Y-106346904D01*
X134619904Y-106442142D01*
X134572285Y-106489761D01*
X134477047Y-106537380D01*
X134238952Y-106537380D01*
X134143714Y-106489761D01*
X134096095Y-106442142D01*
%TO.C,U3*%
X172085380Y-107441904D02*
X172894904Y-107441904D01*
X172990142Y-107394285D01*
X173037761Y-107346666D01*
X173085380Y-107251428D01*
X173085380Y-107060952D01*
X173037761Y-106965714D01*
X172990142Y-106918095D01*
X172894904Y-106870476D01*
X172085380Y-106870476D01*
X172085380Y-106489523D02*
X172085380Y-105870476D01*
X172466333Y-106203809D01*
X172466333Y-106060952D01*
X172513952Y-105965714D01*
X172561571Y-105918095D01*
X172656809Y-105870476D01*
X172894904Y-105870476D01*
X172990142Y-105918095D01*
X173037761Y-105965714D01*
X173085380Y-106060952D01*
X173085380Y-106346666D01*
X173037761Y-106441904D01*
X172990142Y-106489523D01*
%TO.C,U4*%
X131826095Y-86407380D02*
X131826095Y-87216904D01*
X131873714Y-87312142D01*
X131921333Y-87359761D01*
X132016571Y-87407380D01*
X132207047Y-87407380D01*
X132302285Y-87359761D01*
X132349904Y-87312142D01*
X132397523Y-87216904D01*
X132397523Y-86407380D01*
X133302285Y-86740714D02*
X133302285Y-87407380D01*
X133064190Y-86359761D02*
X132826095Y-87074047D01*
X133445142Y-87074047D01*
%TO.C,U2*%
X151511095Y-87042380D02*
X151511095Y-87851904D01*
X151558714Y-87947142D01*
X151606333Y-87994761D01*
X151701571Y-88042380D01*
X151892047Y-88042380D01*
X151987285Y-87994761D01*
X152034904Y-87947142D01*
X152082523Y-87851904D01*
X152082523Y-87042380D01*
X152511095Y-87137619D02*
X152558714Y-87090000D01*
X152653952Y-87042380D01*
X152892047Y-87042380D01*
X152987285Y-87090000D01*
X153034904Y-87137619D01*
X153082523Y-87232857D01*
X153082523Y-87328095D01*
X153034904Y-87470952D01*
X152463476Y-88042380D01*
X153082523Y-88042380D01*
%TO.C,U1*%
X146431095Y-104822380D02*
X146431095Y-105631904D01*
X146478714Y-105727142D01*
X146526333Y-105774761D01*
X146621571Y-105822380D01*
X146812047Y-105822380D01*
X146907285Y-105774761D01*
X146954904Y-105727142D01*
X147002523Y-105631904D01*
X147002523Y-104822380D01*
X148002523Y-105822380D02*
X147431095Y-105822380D01*
X147716809Y-105822380D02*
X147716809Y-104822380D01*
X147621571Y-104965238D01*
X147526333Y-105060476D01*
X147431095Y-105108095D01*
%TO.C,Rsens1*%
X131730380Y-94567142D02*
X131254190Y-94900476D01*
X131730380Y-95138571D02*
X130730380Y-95138571D01*
X130730380Y-94757619D01*
X130778000Y-94662380D01*
X130825619Y-94614761D01*
X130920857Y-94567142D01*
X131063714Y-94567142D01*
X131158952Y-94614761D01*
X131206571Y-94662380D01*
X131254190Y-94757619D01*
X131254190Y-95138571D01*
X131682761Y-94186190D02*
X131730380Y-94090952D01*
X131730380Y-93900476D01*
X131682761Y-93805238D01*
X131587523Y-93757619D01*
X131539904Y-93757619D01*
X131444666Y-93805238D01*
X131397047Y-93900476D01*
X131397047Y-94043333D01*
X131349428Y-94138571D01*
X131254190Y-94186190D01*
X131206571Y-94186190D01*
X131111333Y-94138571D01*
X131063714Y-94043333D01*
X131063714Y-93900476D01*
X131111333Y-93805238D01*
X131682761Y-92948095D02*
X131730380Y-93043333D01*
X131730380Y-93233809D01*
X131682761Y-93329047D01*
X131587523Y-93376666D01*
X131206571Y-93376666D01*
X131111333Y-93329047D01*
X131063714Y-93233809D01*
X131063714Y-93043333D01*
X131111333Y-92948095D01*
X131206571Y-92900476D01*
X131301809Y-92900476D01*
X131397047Y-93376666D01*
X131063714Y-92471904D02*
X131730380Y-92471904D01*
X131158952Y-92471904D02*
X131111333Y-92424285D01*
X131063714Y-92329047D01*
X131063714Y-92186190D01*
X131111333Y-92090952D01*
X131206571Y-92043333D01*
X131730380Y-92043333D01*
X131682761Y-91614761D02*
X131730380Y-91519523D01*
X131730380Y-91329047D01*
X131682761Y-91233809D01*
X131587523Y-91186190D01*
X131539904Y-91186190D01*
X131444666Y-91233809D01*
X131397047Y-91329047D01*
X131397047Y-91471904D01*
X131349428Y-91567142D01*
X131254190Y-91614761D01*
X131206571Y-91614761D01*
X131111333Y-91567142D01*
X131063714Y-91471904D01*
X131063714Y-91329047D01*
X131111333Y-91233809D01*
X131730380Y-90233809D02*
X131730380Y-90805238D01*
X131730380Y-90519523D02*
X130730380Y-90519523D01*
X130873238Y-90614761D01*
X130968476Y-90710000D01*
X131016095Y-90805238D01*
%TO.C,R6*%
X163505380Y-111291666D02*
X163029190Y-111625000D01*
X163505380Y-111863095D02*
X162505380Y-111863095D01*
X162505380Y-111482142D01*
X162553000Y-111386904D01*
X162600619Y-111339285D01*
X162695857Y-111291666D01*
X162838714Y-111291666D01*
X162933952Y-111339285D01*
X162981571Y-111386904D01*
X163029190Y-111482142D01*
X163029190Y-111863095D01*
X162505380Y-110434523D02*
X162505380Y-110625000D01*
X162553000Y-110720238D01*
X162600619Y-110767857D01*
X162743476Y-110863095D01*
X162933952Y-110910714D01*
X163314904Y-110910714D01*
X163410142Y-110863095D01*
X163457761Y-110815476D01*
X163505380Y-110720238D01*
X163505380Y-110529761D01*
X163457761Y-110434523D01*
X163410142Y-110386904D01*
X163314904Y-110339285D01*
X163076809Y-110339285D01*
X162981571Y-110386904D01*
X162933952Y-110434523D01*
X162886333Y-110529761D01*
X162886333Y-110720238D01*
X162933952Y-110815476D01*
X162981571Y-110863095D01*
X163076809Y-110910714D01*
%TO.C,R5*%
X133691333Y-104422380D02*
X133358000Y-103946190D01*
X133119904Y-104422380D02*
X133119904Y-103422380D01*
X133500857Y-103422380D01*
X133596095Y-103470000D01*
X133643714Y-103517619D01*
X133691333Y-103612857D01*
X133691333Y-103755714D01*
X133643714Y-103850952D01*
X133596095Y-103898571D01*
X133500857Y-103946190D01*
X133119904Y-103946190D01*
X134596095Y-103422380D02*
X134119904Y-103422380D01*
X134072285Y-103898571D01*
X134119904Y-103850952D01*
X134215142Y-103803333D01*
X134453238Y-103803333D01*
X134548476Y-103850952D01*
X134596095Y-103898571D01*
X134643714Y-103993809D01*
X134643714Y-104231904D01*
X134596095Y-104327142D01*
X134548476Y-104374761D01*
X134453238Y-104422380D01*
X134215142Y-104422380D01*
X134119904Y-104374761D01*
X134072285Y-104327142D01*
%TO.C,R3*%
X165441333Y-97142380D02*
X165108000Y-96666190D01*
X164869904Y-97142380D02*
X164869904Y-96142380D01*
X165250857Y-96142380D01*
X165346095Y-96190000D01*
X165393714Y-96237619D01*
X165441333Y-96332857D01*
X165441333Y-96475714D01*
X165393714Y-96570952D01*
X165346095Y-96618571D01*
X165250857Y-96666190D01*
X164869904Y-96666190D01*
X165774666Y-96142380D02*
X166393714Y-96142380D01*
X166060380Y-96523333D01*
X166203238Y-96523333D01*
X166298476Y-96570952D01*
X166346095Y-96618571D01*
X166393714Y-96713809D01*
X166393714Y-96951904D01*
X166346095Y-97047142D01*
X166298476Y-97094761D01*
X166203238Y-97142380D01*
X165917523Y-97142380D01*
X165822285Y-97094761D01*
X165774666Y-97047142D01*
%TO.C,R1*%
X165441333Y-95532380D02*
X165108000Y-95056190D01*
X164869904Y-95532380D02*
X164869904Y-94532380D01*
X165250857Y-94532380D01*
X165346095Y-94580000D01*
X165393714Y-94627619D01*
X165441333Y-94722857D01*
X165441333Y-94865714D01*
X165393714Y-94960952D01*
X165346095Y-95008571D01*
X165250857Y-95056190D01*
X164869904Y-95056190D01*
X166393714Y-95532380D02*
X165822285Y-95532380D01*
X166108000Y-95532380D02*
X166108000Y-94532380D01*
X166012761Y-94675238D01*
X165917523Y-94770476D01*
X165822285Y-94818095D01*
%TO.C,C4*%
X168830142Y-85851666D02*
X168877761Y-85899285D01*
X168925380Y-86042142D01*
X168925380Y-86137380D01*
X168877761Y-86280238D01*
X168782523Y-86375476D01*
X168687285Y-86423095D01*
X168496809Y-86470714D01*
X168353952Y-86470714D01*
X168163476Y-86423095D01*
X168068238Y-86375476D01*
X167973000Y-86280238D01*
X167925380Y-86137380D01*
X167925380Y-86042142D01*
X167973000Y-85899285D01*
X168020619Y-85851666D01*
X168258714Y-84994523D02*
X168925380Y-84994523D01*
X167877761Y-85232619D02*
X168592047Y-85470714D01*
X168592047Y-84851666D01*
%TO.C,C3*%
X151505142Y-116986666D02*
X151552761Y-117034285D01*
X151600380Y-117177142D01*
X151600380Y-117272380D01*
X151552761Y-117415238D01*
X151457523Y-117510476D01*
X151362285Y-117558095D01*
X151171809Y-117605714D01*
X151028952Y-117605714D01*
X150838476Y-117558095D01*
X150743238Y-117510476D01*
X150648000Y-117415238D01*
X150600380Y-117272380D01*
X150600380Y-117177142D01*
X150648000Y-117034285D01*
X150695619Y-116986666D01*
X150600380Y-116653333D02*
X150600380Y-116034285D01*
X150981333Y-116367619D01*
X150981333Y-116224761D01*
X151028952Y-116129523D01*
X151076571Y-116081904D01*
X151171809Y-116034285D01*
X151409904Y-116034285D01*
X151505142Y-116081904D01*
X151552761Y-116129523D01*
X151600380Y-116224761D01*
X151600380Y-116510476D01*
X151552761Y-116605714D01*
X151505142Y-116653333D01*
%TO.C,C2*%
X159746333Y-117342142D02*
X159698714Y-117389761D01*
X159555857Y-117437380D01*
X159460619Y-117437380D01*
X159317761Y-117389761D01*
X159222523Y-117294523D01*
X159174904Y-117199285D01*
X159127285Y-117008809D01*
X159127285Y-116865952D01*
X159174904Y-116675476D01*
X159222523Y-116580238D01*
X159317761Y-116485000D01*
X159460619Y-116437380D01*
X159555857Y-116437380D01*
X159698714Y-116485000D01*
X159746333Y-116532619D01*
X160127285Y-116532619D02*
X160174904Y-116485000D01*
X160270142Y-116437380D01*
X160508238Y-116437380D01*
X160603476Y-116485000D01*
X160651095Y-116532619D01*
X160698714Y-116627857D01*
X160698714Y-116723095D01*
X160651095Y-116865952D01*
X160079666Y-117437380D01*
X160698714Y-117437380D01*
%TO.C,C1*%
X147641333Y-104352142D02*
X147593714Y-104399761D01*
X147450857Y-104447380D01*
X147355619Y-104447380D01*
X147212761Y-104399761D01*
X147117523Y-104304523D01*
X147069904Y-104209285D01*
X147022285Y-104018809D01*
X147022285Y-103875952D01*
X147069904Y-103685476D01*
X147117523Y-103590238D01*
X147212761Y-103495000D01*
X147355619Y-103447380D01*
X147450857Y-103447380D01*
X147593714Y-103495000D01*
X147641333Y-103542619D01*
X148593714Y-104447380D02*
X148022285Y-104447380D01*
X148308000Y-104447380D02*
X148308000Y-103447380D01*
X148212761Y-103590238D01*
X148117523Y-103685476D01*
X148022285Y-103733095D01*
%TO.C,P1*%
X147089904Y-121737380D02*
X147089904Y-120737380D01*
X147470857Y-120737380D01*
X147566095Y-120785000D01*
X147613714Y-120832619D01*
X147661333Y-120927857D01*
X147661333Y-121070714D01*
X147613714Y-121165952D01*
X147566095Y-121213571D01*
X147470857Y-121261190D01*
X147089904Y-121261190D01*
X148613714Y-121737380D02*
X148042285Y-121737380D01*
X148328000Y-121737380D02*
X148328000Y-120737380D01*
X148232761Y-120880238D01*
X148137523Y-120975476D01*
X148042285Y-121023095D01*
%TO.C,P2*%
X167663904Y-121737380D02*
X167663904Y-120737380D01*
X168044857Y-120737380D01*
X168140095Y-120785000D01*
X168187714Y-120832619D01*
X168235333Y-120927857D01*
X168235333Y-121070714D01*
X168187714Y-121165952D01*
X168140095Y-121213571D01*
X168044857Y-121261190D01*
X167663904Y-121261190D01*
X168616285Y-120832619D02*
X168663904Y-120785000D01*
X168759142Y-120737380D01*
X168997238Y-120737380D01*
X169092476Y-120785000D01*
X169140095Y-120832619D01*
X169187714Y-120927857D01*
X169187714Y-121023095D01*
X169140095Y-121165952D01*
X168568666Y-121737380D01*
X169187714Y-121737380D01*
%TO.C,P3*%
X140485904Y-78811380D02*
X140485904Y-77811380D01*
X140866857Y-77811380D01*
X140962095Y-77859000D01*
X141009714Y-77906619D01*
X141057333Y-78001857D01*
X141057333Y-78144714D01*
X141009714Y-78239952D01*
X140962095Y-78287571D01*
X140866857Y-78335190D01*
X140485904Y-78335190D01*
X141390666Y-77811380D02*
X142009714Y-77811380D01*
X141676380Y-78192333D01*
X141819238Y-78192333D01*
X141914476Y-78239952D01*
X141962095Y-78287571D01*
X142009714Y-78382809D01*
X142009714Y-78620904D01*
X141962095Y-78716142D01*
X141914476Y-78763761D01*
X141819238Y-78811380D01*
X141533523Y-78811380D01*
X141438285Y-78763761D01*
X141390666Y-78716142D01*
%TO.C,P4*%
X164869904Y-78811380D02*
X164869904Y-77811380D01*
X165250857Y-77811380D01*
X165346095Y-77859000D01*
X165393714Y-77906619D01*
X165441333Y-78001857D01*
X165441333Y-78144714D01*
X165393714Y-78239952D01*
X165346095Y-78287571D01*
X165250857Y-78335190D01*
X164869904Y-78335190D01*
X166298476Y-78144714D02*
X166298476Y-78811380D01*
X166060380Y-77763761D02*
X165822285Y-78478047D01*
X166441333Y-78478047D01*
%TD*%
M02*
