%TF.GenerationSoftware,KiCad,Pcbnew,(5.1.10)-1*%
%TF.CreationDate,2022-03-30T10:22:29+02:00*%
%TF.ProjectId,Shield,53686965-6c64-42e6-9b69-6361645f7063,rev?*%
%TF.SameCoordinates,Original*%
%TF.FileFunction,Copper,L2,Bot*%
%TF.FilePolarity,Positive*%
%FSLAX46Y46*%
G04 Gerber Fmt 4.6, Leading zero omitted, Abs format (unit mm)*
G04 Created by KiCad (PCBNEW (5.1.10)-1) date 2022-03-30 10:22:29*
%MOMM*%
%LPD*%
G01*
G04 APERTURE LIST*
%TA.AperFunction,ComponentPad*%
%ADD10O,2.540000X2.000000*%
%TD*%
%TA.AperFunction,ComponentPad*%
%ADD11R,2.540000X2.000000*%
%TD*%
%TA.AperFunction,ComponentPad*%
%ADD12O,2.000000X2.540000*%
%TD*%
%TA.AperFunction,ComponentPad*%
%ADD13C,2.000000*%
%TD*%
%TA.AperFunction,ComponentPad*%
%ADD14O,1.400000X1.400000*%
%TD*%
%TA.AperFunction,ComponentPad*%
%ADD15C,1.400000*%
%TD*%
%TA.AperFunction,ComponentPad*%
%ADD16O,1.600000X1.600000*%
%TD*%
%TA.AperFunction,ComponentPad*%
%ADD17C,1.600000*%
%TD*%
%TA.AperFunction,ComponentPad*%
%ADD18O,1.727200X2.032000*%
%TD*%
%TA.AperFunction,ComponentPad*%
%ADD19C,4.064000*%
%TD*%
%TA.AperFunction,ViaPad*%
%ADD20C,1.016000*%
%TD*%
%TA.AperFunction,Conductor*%
%ADD21C,0.600000*%
%TD*%
%TA.AperFunction,Conductor*%
%ADD22C,0.500000*%
%TD*%
%TA.AperFunction,Conductor*%
%ADD23C,0.254000*%
%TD*%
%TA.AperFunction,Conductor*%
%ADD24C,0.100000*%
%TD*%
G04 APERTURE END LIST*
D10*
%TO.P,U5,4*%
%TO.N,GND*%
X129898000Y-116205000D03*
%TO.P,U5,5*%
X137818000Y-116205000D03*
%TO.P,U5,3*%
%TO.N,SI*%
X129898000Y-113665000D03*
%TO.P,U5,6*%
%TO.N,GND*%
X137818000Y-113665000D03*
%TO.P,U5,2*%
%TO.N,SCK*%
X129898000Y-111125000D03*
%TO.P,U5,7*%
%TO.N,IN-*%
X137818000Y-111125000D03*
D11*
%TO.P,U5,1*%
%TO.N,CS*%
X129898000Y-108585000D03*
D10*
%TO.P,U5,8*%
%TO.N,+5V*%
X137818000Y-108585000D03*
%TD*%
%TO.P,U3,4*%
%TO.N,SDA*%
X175133000Y-110490000D03*
%TO.P,U3,3*%
%TO.N,SCL*%
X175133000Y-107950000D03*
%TO.P,U3,2*%
%TO.N,+5V*%
X175133000Y-105410000D03*
%TO.P,U3,1*%
%TO.N,GND*%
X175133000Y-102870000D03*
%TD*%
D12*
%TO.P,U4,4*%
%TO.N,RXD*%
X136398000Y-84455000D03*
%TO.P,U4,3*%
%TO.N,TXD*%
X133858000Y-84455000D03*
%TO.P,U4,2*%
%TO.N,GND*%
X131318000Y-84455000D03*
%TO.P,U4,1*%
%TO.N,+5V*%
X128778000Y-84455000D03*
%TD*%
%TO.P,U2,5*%
%TO.N,CLK*%
X157353000Y-85090000D03*
%TO.P,U2,4*%
%TO.N,DT*%
X154813000Y-85090000D03*
%TO.P,U2,3*%
%TO.N,SW*%
X152273000Y-85090000D03*
%TO.P,U2,2*%
%TO.N,+5V*%
X149733000Y-85090000D03*
%TO.P,U2,1*%
%TO.N,GND*%
X147193000Y-85090000D03*
%TD*%
D10*
%TO.P,U1,8*%
%TO.N,Net-(U1-Pad8)*%
X143256000Y-102870000D03*
D11*
%TO.P,U1,1*%
%TO.N,Net-(U1-Pad1)*%
X151130000Y-102870000D03*
D10*
%TO.P,U1,7*%
%TO.N,+5V*%
X143256000Y-100330000D03*
%TO.P,U1,2*%
%TO.N,IN-*%
X151130000Y-100330000D03*
%TO.P,U1,6*%
%TO.N,Net-(C4-Pad1)*%
X143256000Y-97790000D03*
%TO.P,U1,3*%
%TO.N,Net-(C1-Pad1)*%
X151130000Y-97790000D03*
%TO.P,U1,5*%
%TO.N,Net-(U1-Pad5)*%
X143256000Y-95250000D03*
%TO.P,U1,4*%
%TO.N,GND*%
X151130000Y-95250000D03*
%TD*%
D13*
%TO.P,Rsens1,2*%
%TO.N,+5V*%
X128778000Y-90210000D03*
%TO.P,Rsens1,1*%
%TO.N,Net-(R5-Pad2)*%
X128778000Y-95210000D03*
%TD*%
D14*
%TO.P,R6,2*%
%TO.N,Net-(C4-Pad1)*%
X164973000Y-107315000D03*
D15*
%TO.P,R6,1*%
%TO.N,Vadc*%
X164973000Y-114935000D03*
%TD*%
D16*
%TO.P,R5,2*%
%TO.N,Net-(R5-Pad2)*%
X128778000Y-101600000D03*
D17*
%TO.P,R5,1*%
%TO.N,Net-(C1-Pad1)*%
X138938000Y-101600000D03*
%TD*%
D16*
%TO.P,R3,2*%
%TO.N,Net-(C4-Pad1)*%
X170688000Y-99060000D03*
D17*
%TO.P,R3,1*%
%TO.N,IN-*%
X160528000Y-99060000D03*
%TD*%
D16*
%TO.P,R1,2*%
%TO.N,Net-(C1-Pad1)*%
X160528000Y-92710000D03*
D17*
%TO.P,R1,1*%
%TO.N,GND*%
X170688000Y-92710000D03*
%TD*%
%TO.P,C4,2*%
%TO.N,IN-*%
X164973000Y-88185000D03*
%TO.P,C4,1*%
%TO.N,Net-(C4-Pad1)*%
X164973000Y-83185000D03*
%TD*%
%TO.P,C3,2*%
%TO.N,+5V*%
X149098000Y-118070000D03*
%TO.P,C3,1*%
%TO.N,GND*%
X149098000Y-115570000D03*
%TD*%
%TO.P,C2,2*%
%TO.N,GND*%
X158663000Y-114935000D03*
%TO.P,C2,1*%
%TO.N,Vadc*%
X161163000Y-114935000D03*
%TD*%
%TO.P,C1,2*%
%TO.N,GND*%
X149058000Y-106045000D03*
%TO.P,C1,1*%
%TO.N,Net-(C1-Pad1)*%
X146558000Y-106045000D03*
%TD*%
D18*
%TO.P,P1,1*%
%TO.N,Net-(P1-Pad1)*%
X138938000Y-123825000D03*
%TO.P,P1,2*%
%TO.N,/IOREF*%
X141478000Y-123825000D03*
%TO.P,P1,3*%
%TO.N,/Reset*%
X144018000Y-123825000D03*
%TO.P,P1,4*%
%TO.N,+3V3*%
X146558000Y-123825000D03*
%TO.P,P1,5*%
%TO.N,+5V*%
X149098000Y-123825000D03*
%TO.P,P1,6*%
%TO.N,GND*%
X151638000Y-123825000D03*
%TO.P,P1,7*%
X154178000Y-123825000D03*
%TO.P,P1,8*%
%TO.N,/Vin*%
X156718000Y-123825000D03*
%TD*%
%TO.P,P2,1*%
%TO.N,Vadc*%
X161798000Y-123825000D03*
%TO.P,P2,2*%
%TO.N,/A1*%
X164338000Y-123825000D03*
%TO.P,P2,3*%
%TO.N,/A2*%
X166878000Y-123825000D03*
%TO.P,P2,4*%
%TO.N,/A3*%
X169418000Y-123825000D03*
%TO.P,P2,5*%
%TO.N,SDA*%
X171958000Y-123825000D03*
%TO.P,P2,6*%
%TO.N,SCL*%
X174498000Y-123825000D03*
%TD*%
%TO.P,P3,1*%
%TO.N,Net-(P3-Pad1)*%
X129794000Y-75565000D03*
%TO.P,P3,2*%
%TO.N,Net-(P3-Pad2)*%
X132334000Y-75565000D03*
%TO.P,P3,3*%
%TO.N,/AREF*%
X134874000Y-75565000D03*
%TO.P,P3,4*%
%TO.N,GND*%
X137414000Y-75565000D03*
%TO.P,P3,5*%
%TO.N,SCK*%
X139954000Y-75565000D03*
%TO.P,P3,6*%
%TO.N,/12(MISO)*%
X142494000Y-75565000D03*
%TO.P,P3,7*%
%TO.N,SI*%
X145034000Y-75565000D03*
%TO.P,P3,8*%
%TO.N,CS*%
X147574000Y-75565000D03*
%TO.P,P3,9*%
%TO.N,TXD*%
X150114000Y-75565000D03*
%TO.P,P3,10*%
%TO.N,RXD*%
X152654000Y-75565000D03*
%TD*%
%TO.P,P4,1*%
%TO.N,/7*%
X156718000Y-75565000D03*
%TO.P,P4,2*%
%TO.N,/6(\u002A\u002A)*%
X159258000Y-75565000D03*
%TO.P,P4,3*%
%TO.N,/5(\u002A\u002A)*%
X161798000Y-75565000D03*
%TO.P,P4,4*%
%TO.N,SW*%
X164338000Y-75565000D03*
%TO.P,P4,5*%
%TO.N,DT*%
X166878000Y-75565000D03*
%TO.P,P4,6*%
%TO.N,CLK*%
X169418000Y-75565000D03*
%TO.P,P4,7*%
%TO.N,/1(Tx)*%
X171958000Y-75565000D03*
%TO.P,P4,8*%
%TO.N,/0(Rx)*%
X174498000Y-75565000D03*
%TD*%
D19*
%TO.P,P5,1*%
%TO.N,Net-(P5-Pad1)*%
X124968000Y-123825000D03*
%TD*%
%TO.P,P6,1*%
%TO.N,Net-(P6-Pad1)*%
X177038000Y-118745000D03*
%TD*%
%TO.P,P7,1*%
%TO.N,Net-(P7-Pad1)*%
X126238000Y-75565000D03*
%TD*%
%TO.P,P8,1*%
%TO.N,Net-(P8-Pad1)*%
X177038000Y-90805000D03*
%TD*%
D20*
%TO.N,SI*%
X135763000Y-77942651D03*
X142748000Y-77952600D03*
%TD*%
D21*
%TO.N,+5V*%
X138938000Y-97790000D02*
X138938000Y-93945000D01*
X143531598Y-100330000D02*
X143256000Y-100330000D01*
X143256000Y-100330000D02*
X141478000Y-100330000D01*
X141478000Y-100330000D02*
X138938000Y-97790000D01*
X174247352Y-105410000D02*
X175133000Y-105410000D01*
X173513649Y-105410000D02*
X175133000Y-105410000D01*
X138863000Y-94020000D02*
X138938000Y-93945000D01*
X128778000Y-84455000D02*
X128778000Y-90210000D01*
X135053000Y-90210000D02*
X138863000Y-94020000D01*
X128778000Y-90210000D02*
X135053000Y-90210000D01*
X149098000Y-118070000D02*
X149098000Y-123825000D01*
X149098000Y-118070000D02*
X154773000Y-112395000D01*
X166528648Y-112395000D02*
X168290824Y-110632824D01*
X154773000Y-112395000D02*
X166528648Y-112395000D01*
X168290824Y-110632824D02*
X173513649Y-105410000D01*
X168128650Y-110794999D02*
X168290824Y-110632824D01*
X149098000Y-118070000D02*
X148298001Y-117270001D01*
X131953000Y-93385000D02*
X128778000Y-90210000D01*
X141153598Y-93945000D02*
X138938000Y-93945000D01*
X149733000Y-85365598D02*
X141153598Y-93945000D01*
X149733000Y-85090000D02*
X149733000Y-85365598D01*
X136867402Y-118070000D02*
X133858000Y-115060598D01*
X133858000Y-115060598D02*
X133858000Y-110675000D01*
X133858000Y-110675000D02*
X135948000Y-108585000D01*
X149098000Y-118070000D02*
X136867402Y-118070000D01*
X135948000Y-108585000D02*
X137818000Y-108585000D01*
X135948000Y-97380000D02*
X131953000Y-93385000D01*
X135948000Y-108585000D02*
X135948000Y-97380000D01*
%TO.N,Net-(C1-Pad1)*%
X150854402Y-97790000D02*
X151130000Y-97790000D01*
X146558000Y-102086402D02*
X150854402Y-97790000D01*
X155448000Y-97790000D02*
X160528000Y-92710000D01*
X151130000Y-97790000D02*
X155448000Y-97790000D01*
X138938000Y-101600000D02*
X138938000Y-104775000D01*
X138938000Y-104775000D02*
X140208000Y-106045000D01*
X140208000Y-106045000D02*
X146558000Y-106045000D01*
X146558000Y-106045000D02*
X146558000Y-102086402D01*
%TO.N,Vadc*%
X161163000Y-114935000D02*
X164973000Y-114935000D01*
X161163000Y-123190000D02*
X161798000Y-123825000D01*
X161163000Y-114935000D02*
X161163000Y-123190000D01*
%TO.N,IN-*%
X164973000Y-94615000D02*
X163068000Y-96520000D01*
X164973000Y-88185000D02*
X164973000Y-94615000D01*
X163068000Y-96520000D02*
X160528000Y-99060000D01*
X163148000Y-96440000D02*
X163068000Y-96520000D01*
X159258000Y-100330000D02*
X151130000Y-100330000D01*
X160528000Y-99060000D02*
X159258000Y-100330000D01*
X159258000Y-100330000D02*
X151003000Y-108585000D01*
X148463000Y-111125000D02*
X151003000Y-108585000D01*
X137818000Y-111125000D02*
X148463000Y-111125000D01*
%TO.N,Net-(C4-Pad1)*%
X168148000Y-96520000D02*
X170688000Y-99060000D01*
X168148000Y-86360000D02*
X168148000Y-96520000D01*
X164973000Y-83185000D02*
X168148000Y-86360000D01*
X167193002Y-107315000D02*
X170688000Y-103820002D01*
X170688000Y-103820002D02*
X170688000Y-99060000D01*
X164973000Y-107315000D02*
X167193002Y-107315000D01*
X157353000Y-90805000D02*
X164973000Y-83185000D01*
X149733000Y-90805000D02*
X157353000Y-90805000D01*
X147828000Y-92710000D02*
X149733000Y-90805000D01*
X147828000Y-95736402D02*
X147828000Y-92710000D01*
X145774402Y-97790000D02*
X147828000Y-95736402D01*
X143256000Y-97790000D02*
X145774402Y-97790000D01*
%TO.N,SDA*%
X175133000Y-110490000D02*
X175133000Y-114902990D01*
X171958000Y-118077990D02*
X171958000Y-123825000D01*
X175133000Y-114902990D02*
X171958000Y-118077990D01*
%TO.N,SCL*%
X175133000Y-107950000D02*
X174498000Y-107950000D01*
X174205999Y-123532999D02*
X174498000Y-123825000D01*
X174205999Y-117385639D02*
X174205999Y-123532999D01*
X177203010Y-114388628D02*
X174205999Y-117385639D01*
X175408598Y-107950000D02*
X175133000Y-107950000D01*
X177203010Y-109744412D02*
X175408598Y-107950000D01*
X177203010Y-114388628D02*
X177203010Y-109744412D01*
%TO.N,TXD*%
X144399000Y-81280000D02*
X150114000Y-75565000D01*
X133858000Y-84179402D02*
X133858000Y-84455000D01*
X134597990Y-83439412D02*
X135652412Y-82384990D01*
X134597990Y-83715010D02*
X134597990Y-83439412D01*
X133858000Y-84455000D02*
X134597990Y-83715010D01*
X136912362Y-82384990D02*
X138012371Y-81284980D01*
X135652412Y-82384990D02*
X136912362Y-82384990D01*
X144394020Y-81284980D02*
X144399000Y-81280000D01*
X138012371Y-81284980D02*
X144394020Y-81284980D01*
%TO.N,RXD*%
X145834010Y-82384990D02*
X152654000Y-75565000D01*
X138468010Y-82384990D02*
X145834010Y-82384990D01*
X136398000Y-84455000D02*
X138468010Y-82384990D01*
%TO.N,DT*%
X159423010Y-83019990D02*
X166878000Y-75565000D01*
X156607412Y-83019990D02*
X159423010Y-83019990D01*
X154813000Y-84814402D02*
X156607412Y-83019990D01*
X154813000Y-85090000D02*
X154813000Y-84814402D01*
%TO.N,SW*%
X159258000Y-80645000D02*
X164338000Y-75565000D01*
X154848000Y-80645000D02*
X159258000Y-80645000D01*
X152273000Y-83220000D02*
X154848000Y-80645000D01*
X152273000Y-85090000D02*
X152273000Y-83220000D01*
%TO.N,CLK*%
X169383099Y-75565000D02*
X169418000Y-75565000D01*
X159858099Y-85090000D02*
X169383099Y-75565000D01*
X157353000Y-85090000D02*
X159858099Y-85090000D01*
%TO.N,Net-(R5-Pad2)*%
X128778000Y-101600000D02*
X128778000Y-95210000D01*
%TO.N,SCK*%
X136296400Y-79375000D02*
X139954000Y-75717400D01*
X134281104Y-80645000D02*
X135551104Y-79375000D01*
X139954000Y-75717400D02*
X139954000Y-75565000D01*
X126238000Y-80645000D02*
X134281104Y-80645000D01*
X135551104Y-79375000D02*
X136296400Y-79375000D01*
X122428000Y-84455000D02*
X126238000Y-80645000D01*
X129898000Y-111125000D02*
X126238000Y-111125000D01*
X122428000Y-107315000D02*
X122428000Y-84455000D01*
X126238000Y-111125000D02*
X122428000Y-107315000D01*
D22*
%TO.N,SI*%
X145288000Y-75819000D02*
X145034000Y-75565000D01*
D21*
X135763000Y-77942651D02*
X135763000Y-77942651D01*
X145034000Y-75565000D02*
X145034000Y-75819000D01*
X142748000Y-77851000D02*
X145034000Y-75565000D01*
X131480349Y-77942651D02*
X135763000Y-77942651D01*
X129878010Y-79544990D02*
X131480349Y-77942651D01*
X124798010Y-79544990D02*
X129878010Y-79544990D01*
X119888000Y-84455000D02*
X124798010Y-79544990D01*
X119888000Y-107315000D02*
X119888000Y-84455000D01*
X126238000Y-113665000D02*
X119888000Y-107315000D01*
X129898000Y-113665000D02*
X126238000Y-113665000D01*
D22*
%TO.N,CS*%
X147828000Y-75819000D02*
X147574000Y-75565000D01*
D21*
X147539099Y-75565000D02*
X147574000Y-75565000D01*
X137599032Y-80142671D02*
X142961428Y-80142671D01*
X136456723Y-81284980D02*
X137599032Y-80142671D01*
X134566753Y-81915000D02*
X135196773Y-81284980D01*
X128143000Y-81915000D02*
X134566753Y-81915000D01*
X124968000Y-85090000D02*
X128143000Y-81915000D01*
X135196773Y-81284980D02*
X136456723Y-81284980D01*
X142961428Y-80142671D02*
X147539099Y-75565000D01*
X129898000Y-108585000D02*
X127508000Y-108585000D01*
X124968000Y-106045000D02*
X124968000Y-85090000D01*
X127508000Y-108585000D02*
X124968000Y-106045000D01*
%TD*%
D23*
%TO.N,GND*%
X124166406Y-73864887D02*
X123874536Y-74301702D01*
X123673492Y-74787065D01*
X123571000Y-75302323D01*
X123571000Y-75827677D01*
X123673492Y-76342935D01*
X123874536Y-76828298D01*
X124166406Y-77265113D01*
X124537887Y-77636594D01*
X124974702Y-77928464D01*
X125460065Y-78129508D01*
X125975323Y-78232000D01*
X126500677Y-78232000D01*
X127015935Y-78129508D01*
X127501298Y-77928464D01*
X127938113Y-77636594D01*
X128309594Y-77265113D01*
X128601464Y-76828298D01*
X128657001Y-76694219D01*
X128729203Y-76782197D01*
X128957395Y-76969469D01*
X129217737Y-77108625D01*
X129500224Y-77194316D01*
X129794000Y-77223251D01*
X130087777Y-77194316D01*
X130370264Y-77108625D01*
X130630606Y-76969469D01*
X130858797Y-76782197D01*
X131046069Y-76554006D01*
X131064000Y-76520459D01*
X131081931Y-76554006D01*
X131269203Y-76782197D01*
X131497395Y-76969469D01*
X131568828Y-77007651D01*
X131526284Y-77007651D01*
X131480349Y-77003127D01*
X131297057Y-77021179D01*
X131120808Y-77074644D01*
X131064229Y-77104886D01*
X130958377Y-77161465D01*
X130816005Y-77278307D01*
X130786719Y-77313992D01*
X129490721Y-78609990D01*
X124843945Y-78609990D01*
X124798010Y-78605466D01*
X124614718Y-78623518D01*
X124510838Y-78655031D01*
X124438470Y-78676983D01*
X124276038Y-78763804D01*
X124133666Y-78880646D01*
X124104380Y-78916331D01*
X119259336Y-83761375D01*
X119223657Y-83790656D01*
X119106815Y-83933028D01*
X119073097Y-83996111D01*
X119019994Y-84095460D01*
X118966529Y-84271709D01*
X118948476Y-84455000D01*
X118953001Y-84500942D01*
X118953000Y-107269068D01*
X118948476Y-107315000D01*
X118959296Y-107424853D01*
X118966529Y-107498291D01*
X119019993Y-107674539D01*
X119106814Y-107836971D01*
X119223656Y-107979344D01*
X119259341Y-108008630D01*
X125544375Y-114293665D01*
X125573656Y-114329344D01*
X125716028Y-114446186D01*
X125878460Y-114533007D01*
X126000410Y-114570000D01*
X126054707Y-114586471D01*
X126237999Y-114604524D01*
X126283931Y-114600000D01*
X128280227Y-114600000D01*
X128466286Y-114826714D01*
X128596142Y-114933284D01*
X128382078Y-115138683D01*
X128197990Y-115402239D01*
X128068856Y-115696645D01*
X128037876Y-115824566D01*
X128157223Y-116078000D01*
X129771000Y-116078000D01*
X129771000Y-116058000D01*
X130025000Y-116058000D01*
X130025000Y-116078000D01*
X131638777Y-116078000D01*
X131758124Y-115824566D01*
X131727144Y-115696645D01*
X131598010Y-115402239D01*
X131413922Y-115138683D01*
X131199858Y-114933284D01*
X131329714Y-114826714D01*
X131534031Y-114577752D01*
X131685852Y-114293715D01*
X131779343Y-113985516D01*
X131810911Y-113665000D01*
X131779343Y-113344484D01*
X131685852Y-113036285D01*
X131534031Y-112752248D01*
X131329714Y-112503286D01*
X131197767Y-112395000D01*
X131329714Y-112286714D01*
X131534031Y-112037752D01*
X131685852Y-111753715D01*
X131779343Y-111445516D01*
X131810911Y-111125000D01*
X131779343Y-110804484D01*
X131685852Y-110496285D01*
X131534031Y-110212248D01*
X131475345Y-110140739D01*
X131522494Y-110115537D01*
X131619185Y-110036185D01*
X131698537Y-109939494D01*
X131757502Y-109829180D01*
X131793812Y-109709482D01*
X131806072Y-109585000D01*
X131806072Y-107585000D01*
X131793812Y-107460518D01*
X131757502Y-107340820D01*
X131698537Y-107230506D01*
X131619185Y-107133815D01*
X131522494Y-107054463D01*
X131412180Y-106995498D01*
X131292482Y-106959188D01*
X131168000Y-106946928D01*
X128628000Y-106946928D01*
X128503518Y-106959188D01*
X128383820Y-106995498D01*
X128273506Y-107054463D01*
X128176815Y-107133815D01*
X128097463Y-107230506D01*
X128038498Y-107340820D01*
X128002188Y-107460518D01*
X127989928Y-107585000D01*
X127989928Y-107650000D01*
X127895290Y-107650000D01*
X125903000Y-105657711D01*
X125903000Y-95048967D01*
X127143000Y-95048967D01*
X127143000Y-95371033D01*
X127205832Y-95686912D01*
X127329082Y-95984463D01*
X127508013Y-96252252D01*
X127735748Y-96479987D01*
X127843001Y-96551651D01*
X127843000Y-100505604D01*
X127663363Y-100685241D01*
X127506320Y-100920273D01*
X127398147Y-101181426D01*
X127343000Y-101458665D01*
X127343000Y-101741335D01*
X127398147Y-102018574D01*
X127506320Y-102279727D01*
X127663363Y-102514759D01*
X127863241Y-102714637D01*
X128098273Y-102871680D01*
X128359426Y-102979853D01*
X128636665Y-103035000D01*
X128919335Y-103035000D01*
X129196574Y-102979853D01*
X129457727Y-102871680D01*
X129692759Y-102714637D01*
X129892637Y-102514759D01*
X130049680Y-102279727D01*
X130157853Y-102018574D01*
X130213000Y-101741335D01*
X130213000Y-101458665D01*
X130157853Y-101181426D01*
X130049680Y-100920273D01*
X129892637Y-100685241D01*
X129713000Y-100505604D01*
X129713000Y-96551651D01*
X129820252Y-96479987D01*
X130047987Y-96252252D01*
X130226918Y-95984463D01*
X130350168Y-95686912D01*
X130413000Y-95371033D01*
X130413000Y-95048967D01*
X130350168Y-94733088D01*
X130226918Y-94435537D01*
X130047987Y-94167748D01*
X129820252Y-93940013D01*
X129552463Y-93761082D01*
X129254912Y-93637832D01*
X128939033Y-93575000D01*
X128616967Y-93575000D01*
X128301088Y-93637832D01*
X128003537Y-93761082D01*
X127735748Y-93940013D01*
X127508013Y-94167748D01*
X127329082Y-94435537D01*
X127205832Y-94733088D01*
X127143000Y-95048967D01*
X125903000Y-95048967D01*
X125903000Y-85477289D01*
X127143000Y-84237289D01*
X127143000Y-84805322D01*
X127166657Y-85045516D01*
X127260148Y-85353715D01*
X127411969Y-85637752D01*
X127616286Y-85886714D01*
X127843000Y-86072772D01*
X127843001Y-88868349D01*
X127735748Y-88940013D01*
X127508013Y-89167748D01*
X127329082Y-89435537D01*
X127205832Y-89733088D01*
X127143000Y-90048967D01*
X127143000Y-90371033D01*
X127205832Y-90686912D01*
X127329082Y-90984463D01*
X127508013Y-91252252D01*
X127735748Y-91479987D01*
X128003537Y-91658918D01*
X128301088Y-91782168D01*
X128616967Y-91845000D01*
X128939033Y-91845000D01*
X129065546Y-91819835D01*
X131324333Y-94078623D01*
X135013001Y-97767291D01*
X135013000Y-108197710D01*
X133229336Y-109981375D01*
X133193657Y-110010656D01*
X133076815Y-110153028D01*
X133012537Y-110273284D01*
X132989994Y-110315460D01*
X132936529Y-110491709D01*
X132918476Y-110675000D01*
X132923001Y-110720942D01*
X132923000Y-115014666D01*
X132918476Y-115060598D01*
X132926167Y-115138683D01*
X132936529Y-115243889D01*
X132989993Y-115420137D01*
X133076814Y-115582569D01*
X133193656Y-115724942D01*
X133229341Y-115754228D01*
X136173776Y-118698664D01*
X136203058Y-118734344D01*
X136345430Y-118851186D01*
X136507862Y-118938007D01*
X136630645Y-118975253D01*
X136684109Y-118991471D01*
X136867401Y-119009524D01*
X136913333Y-119005000D01*
X148003604Y-119005000D01*
X148163000Y-119164396D01*
X148163001Y-122501280D01*
X148033203Y-122607803D01*
X147845931Y-122835995D01*
X147828000Y-122869541D01*
X147810069Y-122835994D01*
X147622797Y-122607803D01*
X147394605Y-122420531D01*
X147134263Y-122281375D01*
X146851776Y-122195684D01*
X146558000Y-122166749D01*
X146264223Y-122195684D01*
X145981736Y-122281375D01*
X145721394Y-122420531D01*
X145493203Y-122607803D01*
X145305931Y-122835995D01*
X145288000Y-122869541D01*
X145270069Y-122835994D01*
X145082797Y-122607803D01*
X144854605Y-122420531D01*
X144594263Y-122281375D01*
X144311776Y-122195684D01*
X144018000Y-122166749D01*
X143724223Y-122195684D01*
X143441736Y-122281375D01*
X143181394Y-122420531D01*
X142953203Y-122607803D01*
X142765931Y-122835995D01*
X142748000Y-122869541D01*
X142730069Y-122835994D01*
X142542797Y-122607803D01*
X142314605Y-122420531D01*
X142054263Y-122281375D01*
X141771776Y-122195684D01*
X141478000Y-122166749D01*
X141184223Y-122195684D01*
X140901736Y-122281375D01*
X140641394Y-122420531D01*
X140413203Y-122607803D01*
X140225931Y-122835995D01*
X140208000Y-122869541D01*
X140190069Y-122835994D01*
X140002797Y-122607803D01*
X139774605Y-122420531D01*
X139514263Y-122281375D01*
X139231776Y-122195684D01*
X138938000Y-122166749D01*
X138644223Y-122195684D01*
X138361736Y-122281375D01*
X138101394Y-122420531D01*
X137873203Y-122607803D01*
X137685931Y-122835995D01*
X137546775Y-123096337D01*
X137461084Y-123378824D01*
X137439400Y-123598982D01*
X137439400Y-124051019D01*
X137461084Y-124271177D01*
X137546775Y-124553664D01*
X137685931Y-124814006D01*
X137873203Y-125042197D01*
X138101395Y-125229469D01*
X138361737Y-125368625D01*
X138644224Y-125454316D01*
X138938000Y-125483251D01*
X139231777Y-125454316D01*
X139514264Y-125368625D01*
X139774606Y-125229469D01*
X140002797Y-125042197D01*
X140190069Y-124814006D01*
X140208000Y-124780459D01*
X140225931Y-124814006D01*
X140413203Y-125042197D01*
X140641395Y-125229469D01*
X140901737Y-125368625D01*
X141184224Y-125454316D01*
X141478000Y-125483251D01*
X141771777Y-125454316D01*
X142054264Y-125368625D01*
X142314606Y-125229469D01*
X142542797Y-125042197D01*
X142730069Y-124814006D01*
X142748000Y-124780459D01*
X142765931Y-124814006D01*
X142953203Y-125042197D01*
X143181395Y-125229469D01*
X143441737Y-125368625D01*
X143724224Y-125454316D01*
X144018000Y-125483251D01*
X144311777Y-125454316D01*
X144594264Y-125368625D01*
X144854606Y-125229469D01*
X145082797Y-125042197D01*
X145270069Y-124814006D01*
X145288000Y-124780459D01*
X145305931Y-124814006D01*
X145493203Y-125042197D01*
X145721395Y-125229469D01*
X145981737Y-125368625D01*
X146264224Y-125454316D01*
X146558000Y-125483251D01*
X146851777Y-125454316D01*
X147134264Y-125368625D01*
X147394606Y-125229469D01*
X147622797Y-125042197D01*
X147810069Y-124814006D01*
X147828000Y-124780459D01*
X147845931Y-124814006D01*
X148033203Y-125042197D01*
X148261395Y-125229469D01*
X148521737Y-125368625D01*
X148804224Y-125454316D01*
X149098000Y-125483251D01*
X149391777Y-125454316D01*
X149674264Y-125368625D01*
X149934606Y-125229469D01*
X150162797Y-125042197D01*
X150350069Y-124814006D01*
X150371424Y-124774053D01*
X150519514Y-124976729D01*
X150735965Y-125175733D01*
X150987081Y-125328686D01*
X151263211Y-125429709D01*
X151278974Y-125432358D01*
X151511000Y-125311217D01*
X151511000Y-123952000D01*
X151765000Y-123952000D01*
X151765000Y-125311217D01*
X151997026Y-125432358D01*
X152012789Y-125429709D01*
X152288919Y-125328686D01*
X152540035Y-125175733D01*
X152756486Y-124976729D01*
X152908000Y-124769367D01*
X153059514Y-124976729D01*
X153275965Y-125175733D01*
X153527081Y-125328686D01*
X153803211Y-125429709D01*
X153818974Y-125432358D01*
X154051000Y-125311217D01*
X154051000Y-123952000D01*
X151765000Y-123952000D01*
X151511000Y-123952000D01*
X151491000Y-123952000D01*
X151491000Y-123698000D01*
X151511000Y-123698000D01*
X151511000Y-122338783D01*
X151765000Y-122338783D01*
X151765000Y-123698000D01*
X154051000Y-123698000D01*
X154051000Y-122338783D01*
X154305000Y-122338783D01*
X154305000Y-123698000D01*
X154325000Y-123698000D01*
X154325000Y-123952000D01*
X154305000Y-123952000D01*
X154305000Y-125311217D01*
X154537026Y-125432358D01*
X154552789Y-125429709D01*
X154828919Y-125328686D01*
X155080035Y-125175733D01*
X155296486Y-124976729D01*
X155444576Y-124774053D01*
X155465931Y-124814006D01*
X155653203Y-125042197D01*
X155881395Y-125229469D01*
X156141737Y-125368625D01*
X156424224Y-125454316D01*
X156718000Y-125483251D01*
X157011777Y-125454316D01*
X157294264Y-125368625D01*
X157554606Y-125229469D01*
X157782797Y-125042197D01*
X157970069Y-124814006D01*
X158109225Y-124553663D01*
X158194916Y-124271176D01*
X158216600Y-124051018D01*
X158216600Y-123598981D01*
X158194916Y-123378823D01*
X158109225Y-123096336D01*
X157970069Y-122835994D01*
X157782797Y-122607803D01*
X157554605Y-122420531D01*
X157294263Y-122281375D01*
X157011776Y-122195684D01*
X156718000Y-122166749D01*
X156424223Y-122195684D01*
X156141736Y-122281375D01*
X155881394Y-122420531D01*
X155653203Y-122607803D01*
X155465931Y-122835995D01*
X155444576Y-122875947D01*
X155296486Y-122673271D01*
X155080035Y-122474267D01*
X154828919Y-122321314D01*
X154552789Y-122220291D01*
X154537026Y-122217642D01*
X154305000Y-122338783D01*
X154051000Y-122338783D01*
X153818974Y-122217642D01*
X153803211Y-122220291D01*
X153527081Y-122321314D01*
X153275965Y-122474267D01*
X153059514Y-122673271D01*
X152908000Y-122880633D01*
X152756486Y-122673271D01*
X152540035Y-122474267D01*
X152288919Y-122321314D01*
X152012789Y-122220291D01*
X151997026Y-122217642D01*
X151765000Y-122338783D01*
X151511000Y-122338783D01*
X151278974Y-122217642D01*
X151263211Y-122220291D01*
X150987081Y-122321314D01*
X150735965Y-122474267D01*
X150519514Y-122673271D01*
X150371424Y-122875947D01*
X150350069Y-122835994D01*
X150162797Y-122607803D01*
X150033000Y-122501282D01*
X150033000Y-119164396D01*
X150212637Y-118984759D01*
X150369680Y-118749727D01*
X150477853Y-118488574D01*
X150533000Y-118211335D01*
X150533000Y-117957289D01*
X152562587Y-115927702D01*
X157849903Y-115927702D01*
X157921486Y-116171671D01*
X158176996Y-116292571D01*
X158451184Y-116361300D01*
X158733512Y-116375217D01*
X159013130Y-116333787D01*
X159279292Y-116238603D01*
X159404514Y-116171671D01*
X159476097Y-115927702D01*
X158663000Y-115114605D01*
X157849903Y-115927702D01*
X152562587Y-115927702D01*
X153484777Y-115005512D01*
X157222783Y-115005512D01*
X157264213Y-115285130D01*
X157359397Y-115551292D01*
X157426329Y-115676514D01*
X157670298Y-115748097D01*
X158483395Y-114935000D01*
X157670298Y-114121903D01*
X157426329Y-114193486D01*
X157305429Y-114448996D01*
X157236700Y-114723184D01*
X157222783Y-115005512D01*
X153484777Y-115005512D01*
X154547991Y-113942298D01*
X157849903Y-113942298D01*
X158663000Y-114755395D01*
X159476097Y-113942298D01*
X159404514Y-113698329D01*
X159149004Y-113577429D01*
X158874816Y-113508700D01*
X158592488Y-113494783D01*
X158312870Y-113536213D01*
X158046708Y-113631397D01*
X157921486Y-113698329D01*
X157849903Y-113942298D01*
X154547991Y-113942298D01*
X155160289Y-113330000D01*
X166482716Y-113330000D01*
X166528648Y-113334524D01*
X166574580Y-113330000D01*
X166711940Y-113316471D01*
X166888188Y-113263007D01*
X167050620Y-113176186D01*
X167192992Y-113059344D01*
X167222278Y-113023659D01*
X168984447Y-111261491D01*
X168984456Y-111261480D01*
X173689088Y-106556851D01*
X173701286Y-106571714D01*
X173833233Y-106680000D01*
X173701286Y-106788286D01*
X173496969Y-107037248D01*
X173345148Y-107321285D01*
X173251657Y-107629484D01*
X173220089Y-107950000D01*
X173251657Y-108270516D01*
X173345148Y-108578715D01*
X173496969Y-108862752D01*
X173701286Y-109111714D01*
X173833233Y-109220000D01*
X173701286Y-109328286D01*
X173496969Y-109577248D01*
X173345148Y-109861285D01*
X173251657Y-110169484D01*
X173220089Y-110490000D01*
X173251657Y-110810516D01*
X173345148Y-111118715D01*
X173496969Y-111402752D01*
X173701286Y-111651714D01*
X173950248Y-111856031D01*
X174198000Y-111988457D01*
X174198001Y-114515699D01*
X171329341Y-117384360D01*
X171293656Y-117413646D01*
X171176814Y-117556019D01*
X171089993Y-117718451D01*
X171070168Y-117783807D01*
X171036529Y-117894699D01*
X171018476Y-118077990D01*
X171023000Y-118123922D01*
X171023001Y-122501280D01*
X170893203Y-122607803D01*
X170705931Y-122835995D01*
X170688000Y-122869541D01*
X170670069Y-122835994D01*
X170482797Y-122607803D01*
X170254605Y-122420531D01*
X169994263Y-122281375D01*
X169711776Y-122195684D01*
X169418000Y-122166749D01*
X169124223Y-122195684D01*
X168841736Y-122281375D01*
X168581394Y-122420531D01*
X168353203Y-122607803D01*
X168165931Y-122835995D01*
X168148000Y-122869541D01*
X168130069Y-122835994D01*
X167942797Y-122607803D01*
X167714605Y-122420531D01*
X167454263Y-122281375D01*
X167171776Y-122195684D01*
X166878000Y-122166749D01*
X166584223Y-122195684D01*
X166301736Y-122281375D01*
X166041394Y-122420531D01*
X165813203Y-122607803D01*
X165625931Y-122835995D01*
X165608000Y-122869541D01*
X165590069Y-122835994D01*
X165402797Y-122607803D01*
X165174605Y-122420531D01*
X164914263Y-122281375D01*
X164631776Y-122195684D01*
X164338000Y-122166749D01*
X164044223Y-122195684D01*
X163761736Y-122281375D01*
X163501394Y-122420531D01*
X163273203Y-122607803D01*
X163085931Y-122835995D01*
X163068000Y-122869541D01*
X163050069Y-122835994D01*
X162862797Y-122607803D01*
X162634605Y-122420531D01*
X162374263Y-122281375D01*
X162098000Y-122197572D01*
X162098000Y-116029396D01*
X162257396Y-115870000D01*
X164020025Y-115870000D01*
X164121987Y-115971962D01*
X164340641Y-116118061D01*
X164583595Y-116218696D01*
X164841514Y-116270000D01*
X165104486Y-116270000D01*
X165362405Y-116218696D01*
X165605359Y-116118061D01*
X165824013Y-115971962D01*
X166009962Y-115786013D01*
X166156061Y-115567359D01*
X166256696Y-115324405D01*
X166308000Y-115066486D01*
X166308000Y-114803514D01*
X166256696Y-114545595D01*
X166156061Y-114302641D01*
X166009962Y-114083987D01*
X165824013Y-113898038D01*
X165605359Y-113751939D01*
X165362405Y-113651304D01*
X165104486Y-113600000D01*
X164841514Y-113600000D01*
X164583595Y-113651304D01*
X164340641Y-113751939D01*
X164121987Y-113898038D01*
X164020025Y-114000000D01*
X162257396Y-114000000D01*
X162077759Y-113820363D01*
X161842727Y-113663320D01*
X161581574Y-113555147D01*
X161304335Y-113500000D01*
X161021665Y-113500000D01*
X160744426Y-113555147D01*
X160483273Y-113663320D01*
X160248241Y-113820363D01*
X160048363Y-114020241D01*
X159914308Y-114220869D01*
X159899671Y-114193486D01*
X159655702Y-114121903D01*
X158842605Y-114935000D01*
X159655702Y-115748097D01*
X159899671Y-115676514D01*
X159913324Y-115647659D01*
X160048363Y-115849759D01*
X160228000Y-116029396D01*
X160228001Y-123144058D01*
X160223476Y-123190000D01*
X160241529Y-123373291D01*
X160289976Y-123532999D01*
X160294994Y-123549540D01*
X160302826Y-123564194D01*
X160299400Y-123598982D01*
X160299400Y-124051019D01*
X160321084Y-124271177D01*
X160406775Y-124553664D01*
X160545931Y-124814006D01*
X160733203Y-125042197D01*
X160961395Y-125229469D01*
X161221737Y-125368625D01*
X161504224Y-125454316D01*
X161798000Y-125483251D01*
X162091777Y-125454316D01*
X162374264Y-125368625D01*
X162634606Y-125229469D01*
X162862797Y-125042197D01*
X163050069Y-124814006D01*
X163068000Y-124780459D01*
X163085931Y-124814006D01*
X163273203Y-125042197D01*
X163501395Y-125229469D01*
X163761737Y-125368625D01*
X164044224Y-125454316D01*
X164338000Y-125483251D01*
X164631777Y-125454316D01*
X164914264Y-125368625D01*
X165174606Y-125229469D01*
X165402797Y-125042197D01*
X165590069Y-124814006D01*
X165608000Y-124780459D01*
X165625931Y-124814006D01*
X165813203Y-125042197D01*
X166041395Y-125229469D01*
X166301737Y-125368625D01*
X166584224Y-125454316D01*
X166878000Y-125483251D01*
X167171777Y-125454316D01*
X167454264Y-125368625D01*
X167714606Y-125229469D01*
X167942797Y-125042197D01*
X168130069Y-124814006D01*
X168148000Y-124780459D01*
X168165931Y-124814006D01*
X168353203Y-125042197D01*
X168581395Y-125229469D01*
X168841737Y-125368625D01*
X169124224Y-125454316D01*
X169418000Y-125483251D01*
X169711777Y-125454316D01*
X169994264Y-125368625D01*
X170254606Y-125229469D01*
X170482797Y-125042197D01*
X170670069Y-124814006D01*
X170688000Y-124780459D01*
X170705931Y-124814006D01*
X170893203Y-125042197D01*
X171121395Y-125229469D01*
X171381737Y-125368625D01*
X171664224Y-125454316D01*
X171958000Y-125483251D01*
X172251777Y-125454316D01*
X172534264Y-125368625D01*
X172794606Y-125229469D01*
X173022797Y-125042197D01*
X173210069Y-124814006D01*
X173228000Y-124780459D01*
X173245931Y-124814006D01*
X173433203Y-125042197D01*
X173661395Y-125229469D01*
X173921737Y-125368625D01*
X174204224Y-125454316D01*
X174498000Y-125483251D01*
X174791777Y-125454316D01*
X175074264Y-125368625D01*
X175334606Y-125229469D01*
X175562797Y-125042197D01*
X175750069Y-124814006D01*
X175889225Y-124553663D01*
X175974916Y-124271176D01*
X175996600Y-124051018D01*
X175996600Y-123598981D01*
X175974916Y-123378823D01*
X175889225Y-123096336D01*
X175750069Y-122835994D01*
X175562797Y-122607803D01*
X175334605Y-122420531D01*
X175140999Y-122317046D01*
X175140999Y-120619706D01*
X175337887Y-120816594D01*
X175774702Y-121108464D01*
X176260065Y-121309508D01*
X176775323Y-121412000D01*
X177300677Y-121412000D01*
X177815935Y-121309508D01*
X178301298Y-121108464D01*
X178738113Y-120816594D01*
X178868000Y-120686707D01*
X178868000Y-120990908D01*
X176560617Y-123298292D01*
X176533526Y-123320525D01*
X176511293Y-123347616D01*
X176444801Y-123428637D01*
X176378872Y-123551981D01*
X176338274Y-123685816D01*
X176324565Y-123825000D01*
X176328001Y-123859885D01*
X176328000Y-125655000D01*
X126909707Y-125655000D01*
X127039594Y-125525113D01*
X127331464Y-125088298D01*
X127532508Y-124602935D01*
X127635000Y-124087677D01*
X127635000Y-123562323D01*
X127532508Y-123047065D01*
X127331464Y-122561702D01*
X127039594Y-122124887D01*
X126668113Y-121753406D01*
X126231298Y-121461536D01*
X125745935Y-121260492D01*
X125230677Y-121158000D01*
X124705323Y-121158000D01*
X124190065Y-121260492D01*
X123704702Y-121461536D01*
X123267887Y-121753406D01*
X122896406Y-122124887D01*
X122604536Y-122561702D01*
X122403492Y-123047065D01*
X122301000Y-123562323D01*
X122301000Y-124087677D01*
X122403492Y-124602935D01*
X122604536Y-125088298D01*
X122896406Y-125525113D01*
X123026293Y-125655000D01*
X111708000Y-125655000D01*
X111708000Y-116585434D01*
X128037876Y-116585434D01*
X128068856Y-116713355D01*
X128197990Y-117007761D01*
X128382078Y-117271317D01*
X128614046Y-117493895D01*
X128884980Y-117666942D01*
X129184468Y-117783807D01*
X129501000Y-117840000D01*
X129771000Y-117840000D01*
X129771000Y-116332000D01*
X130025000Y-116332000D01*
X130025000Y-117840000D01*
X130295000Y-117840000D01*
X130611532Y-117783807D01*
X130911020Y-117666942D01*
X131181954Y-117493895D01*
X131413922Y-117271317D01*
X131598010Y-117007761D01*
X131727144Y-116713355D01*
X131758124Y-116585434D01*
X131638777Y-116332000D01*
X130025000Y-116332000D01*
X129771000Y-116332000D01*
X128157223Y-116332000D01*
X128037876Y-116585434D01*
X111708000Y-116585434D01*
X111708000Y-73735000D01*
X124296293Y-73735000D01*
X124166406Y-73864887D01*
%TA.AperFunction,Conductor*%
D24*
G36*
X124166406Y-73864887D02*
G01*
X123874536Y-74301702D01*
X123673492Y-74787065D01*
X123571000Y-75302323D01*
X123571000Y-75827677D01*
X123673492Y-76342935D01*
X123874536Y-76828298D01*
X124166406Y-77265113D01*
X124537887Y-77636594D01*
X124974702Y-77928464D01*
X125460065Y-78129508D01*
X125975323Y-78232000D01*
X126500677Y-78232000D01*
X127015935Y-78129508D01*
X127501298Y-77928464D01*
X127938113Y-77636594D01*
X128309594Y-77265113D01*
X128601464Y-76828298D01*
X128657001Y-76694219D01*
X128729203Y-76782197D01*
X128957395Y-76969469D01*
X129217737Y-77108625D01*
X129500224Y-77194316D01*
X129794000Y-77223251D01*
X130087777Y-77194316D01*
X130370264Y-77108625D01*
X130630606Y-76969469D01*
X130858797Y-76782197D01*
X131046069Y-76554006D01*
X131064000Y-76520459D01*
X131081931Y-76554006D01*
X131269203Y-76782197D01*
X131497395Y-76969469D01*
X131568828Y-77007651D01*
X131526284Y-77007651D01*
X131480349Y-77003127D01*
X131297057Y-77021179D01*
X131120808Y-77074644D01*
X131064229Y-77104886D01*
X130958377Y-77161465D01*
X130816005Y-77278307D01*
X130786719Y-77313992D01*
X129490721Y-78609990D01*
X124843945Y-78609990D01*
X124798010Y-78605466D01*
X124614718Y-78623518D01*
X124510838Y-78655031D01*
X124438470Y-78676983D01*
X124276038Y-78763804D01*
X124133666Y-78880646D01*
X124104380Y-78916331D01*
X119259336Y-83761375D01*
X119223657Y-83790656D01*
X119106815Y-83933028D01*
X119073097Y-83996111D01*
X119019994Y-84095460D01*
X118966529Y-84271709D01*
X118948476Y-84455000D01*
X118953001Y-84500942D01*
X118953000Y-107269068D01*
X118948476Y-107315000D01*
X118959296Y-107424853D01*
X118966529Y-107498291D01*
X119019993Y-107674539D01*
X119106814Y-107836971D01*
X119223656Y-107979344D01*
X119259341Y-108008630D01*
X125544375Y-114293665D01*
X125573656Y-114329344D01*
X125716028Y-114446186D01*
X125878460Y-114533007D01*
X126000410Y-114570000D01*
X126054707Y-114586471D01*
X126237999Y-114604524D01*
X126283931Y-114600000D01*
X128280227Y-114600000D01*
X128466286Y-114826714D01*
X128596142Y-114933284D01*
X128382078Y-115138683D01*
X128197990Y-115402239D01*
X128068856Y-115696645D01*
X128037876Y-115824566D01*
X128157223Y-116078000D01*
X129771000Y-116078000D01*
X129771000Y-116058000D01*
X130025000Y-116058000D01*
X130025000Y-116078000D01*
X131638777Y-116078000D01*
X131758124Y-115824566D01*
X131727144Y-115696645D01*
X131598010Y-115402239D01*
X131413922Y-115138683D01*
X131199858Y-114933284D01*
X131329714Y-114826714D01*
X131534031Y-114577752D01*
X131685852Y-114293715D01*
X131779343Y-113985516D01*
X131810911Y-113665000D01*
X131779343Y-113344484D01*
X131685852Y-113036285D01*
X131534031Y-112752248D01*
X131329714Y-112503286D01*
X131197767Y-112395000D01*
X131329714Y-112286714D01*
X131534031Y-112037752D01*
X131685852Y-111753715D01*
X131779343Y-111445516D01*
X131810911Y-111125000D01*
X131779343Y-110804484D01*
X131685852Y-110496285D01*
X131534031Y-110212248D01*
X131475345Y-110140739D01*
X131522494Y-110115537D01*
X131619185Y-110036185D01*
X131698537Y-109939494D01*
X131757502Y-109829180D01*
X131793812Y-109709482D01*
X131806072Y-109585000D01*
X131806072Y-107585000D01*
X131793812Y-107460518D01*
X131757502Y-107340820D01*
X131698537Y-107230506D01*
X131619185Y-107133815D01*
X131522494Y-107054463D01*
X131412180Y-106995498D01*
X131292482Y-106959188D01*
X131168000Y-106946928D01*
X128628000Y-106946928D01*
X128503518Y-106959188D01*
X128383820Y-106995498D01*
X128273506Y-107054463D01*
X128176815Y-107133815D01*
X128097463Y-107230506D01*
X128038498Y-107340820D01*
X128002188Y-107460518D01*
X127989928Y-107585000D01*
X127989928Y-107650000D01*
X127895290Y-107650000D01*
X125903000Y-105657711D01*
X125903000Y-95048967D01*
X127143000Y-95048967D01*
X127143000Y-95371033D01*
X127205832Y-95686912D01*
X127329082Y-95984463D01*
X127508013Y-96252252D01*
X127735748Y-96479987D01*
X127843001Y-96551651D01*
X127843000Y-100505604D01*
X127663363Y-100685241D01*
X127506320Y-100920273D01*
X127398147Y-101181426D01*
X127343000Y-101458665D01*
X127343000Y-101741335D01*
X127398147Y-102018574D01*
X127506320Y-102279727D01*
X127663363Y-102514759D01*
X127863241Y-102714637D01*
X128098273Y-102871680D01*
X128359426Y-102979853D01*
X128636665Y-103035000D01*
X128919335Y-103035000D01*
X129196574Y-102979853D01*
X129457727Y-102871680D01*
X129692759Y-102714637D01*
X129892637Y-102514759D01*
X130049680Y-102279727D01*
X130157853Y-102018574D01*
X130213000Y-101741335D01*
X130213000Y-101458665D01*
X130157853Y-101181426D01*
X130049680Y-100920273D01*
X129892637Y-100685241D01*
X129713000Y-100505604D01*
X129713000Y-96551651D01*
X129820252Y-96479987D01*
X130047987Y-96252252D01*
X130226918Y-95984463D01*
X130350168Y-95686912D01*
X130413000Y-95371033D01*
X130413000Y-95048967D01*
X130350168Y-94733088D01*
X130226918Y-94435537D01*
X130047987Y-94167748D01*
X129820252Y-93940013D01*
X129552463Y-93761082D01*
X129254912Y-93637832D01*
X128939033Y-93575000D01*
X128616967Y-93575000D01*
X128301088Y-93637832D01*
X128003537Y-93761082D01*
X127735748Y-93940013D01*
X127508013Y-94167748D01*
X127329082Y-94435537D01*
X127205832Y-94733088D01*
X127143000Y-95048967D01*
X125903000Y-95048967D01*
X125903000Y-85477289D01*
X127143000Y-84237289D01*
X127143000Y-84805322D01*
X127166657Y-85045516D01*
X127260148Y-85353715D01*
X127411969Y-85637752D01*
X127616286Y-85886714D01*
X127843000Y-86072772D01*
X127843001Y-88868349D01*
X127735748Y-88940013D01*
X127508013Y-89167748D01*
X127329082Y-89435537D01*
X127205832Y-89733088D01*
X127143000Y-90048967D01*
X127143000Y-90371033D01*
X127205832Y-90686912D01*
X127329082Y-90984463D01*
X127508013Y-91252252D01*
X127735748Y-91479987D01*
X128003537Y-91658918D01*
X128301088Y-91782168D01*
X128616967Y-91845000D01*
X128939033Y-91845000D01*
X129065546Y-91819835D01*
X131324333Y-94078623D01*
X135013001Y-97767291D01*
X135013000Y-108197710D01*
X133229336Y-109981375D01*
X133193657Y-110010656D01*
X133076815Y-110153028D01*
X133012537Y-110273284D01*
X132989994Y-110315460D01*
X132936529Y-110491709D01*
X132918476Y-110675000D01*
X132923001Y-110720942D01*
X132923000Y-115014666D01*
X132918476Y-115060598D01*
X132926167Y-115138683D01*
X132936529Y-115243889D01*
X132989993Y-115420137D01*
X133076814Y-115582569D01*
X133193656Y-115724942D01*
X133229341Y-115754228D01*
X136173776Y-118698664D01*
X136203058Y-118734344D01*
X136345430Y-118851186D01*
X136507862Y-118938007D01*
X136630645Y-118975253D01*
X136684109Y-118991471D01*
X136867401Y-119009524D01*
X136913333Y-119005000D01*
X148003604Y-119005000D01*
X148163000Y-119164396D01*
X148163001Y-122501280D01*
X148033203Y-122607803D01*
X147845931Y-122835995D01*
X147828000Y-122869541D01*
X147810069Y-122835994D01*
X147622797Y-122607803D01*
X147394605Y-122420531D01*
X147134263Y-122281375D01*
X146851776Y-122195684D01*
X146558000Y-122166749D01*
X146264223Y-122195684D01*
X145981736Y-122281375D01*
X145721394Y-122420531D01*
X145493203Y-122607803D01*
X145305931Y-122835995D01*
X145288000Y-122869541D01*
X145270069Y-122835994D01*
X145082797Y-122607803D01*
X144854605Y-122420531D01*
X144594263Y-122281375D01*
X144311776Y-122195684D01*
X144018000Y-122166749D01*
X143724223Y-122195684D01*
X143441736Y-122281375D01*
X143181394Y-122420531D01*
X142953203Y-122607803D01*
X142765931Y-122835995D01*
X142748000Y-122869541D01*
X142730069Y-122835994D01*
X142542797Y-122607803D01*
X142314605Y-122420531D01*
X142054263Y-122281375D01*
X141771776Y-122195684D01*
X141478000Y-122166749D01*
X141184223Y-122195684D01*
X140901736Y-122281375D01*
X140641394Y-122420531D01*
X140413203Y-122607803D01*
X140225931Y-122835995D01*
X140208000Y-122869541D01*
X140190069Y-122835994D01*
X140002797Y-122607803D01*
X139774605Y-122420531D01*
X139514263Y-122281375D01*
X139231776Y-122195684D01*
X138938000Y-122166749D01*
X138644223Y-122195684D01*
X138361736Y-122281375D01*
X138101394Y-122420531D01*
X137873203Y-122607803D01*
X137685931Y-122835995D01*
X137546775Y-123096337D01*
X137461084Y-123378824D01*
X137439400Y-123598982D01*
X137439400Y-124051019D01*
X137461084Y-124271177D01*
X137546775Y-124553664D01*
X137685931Y-124814006D01*
X137873203Y-125042197D01*
X138101395Y-125229469D01*
X138361737Y-125368625D01*
X138644224Y-125454316D01*
X138938000Y-125483251D01*
X139231777Y-125454316D01*
X139514264Y-125368625D01*
X139774606Y-125229469D01*
X140002797Y-125042197D01*
X140190069Y-124814006D01*
X140208000Y-124780459D01*
X140225931Y-124814006D01*
X140413203Y-125042197D01*
X140641395Y-125229469D01*
X140901737Y-125368625D01*
X141184224Y-125454316D01*
X141478000Y-125483251D01*
X141771777Y-125454316D01*
X142054264Y-125368625D01*
X142314606Y-125229469D01*
X142542797Y-125042197D01*
X142730069Y-124814006D01*
X142748000Y-124780459D01*
X142765931Y-124814006D01*
X142953203Y-125042197D01*
X143181395Y-125229469D01*
X143441737Y-125368625D01*
X143724224Y-125454316D01*
X144018000Y-125483251D01*
X144311777Y-125454316D01*
X144594264Y-125368625D01*
X144854606Y-125229469D01*
X145082797Y-125042197D01*
X145270069Y-124814006D01*
X145288000Y-124780459D01*
X145305931Y-124814006D01*
X145493203Y-125042197D01*
X145721395Y-125229469D01*
X145981737Y-125368625D01*
X146264224Y-125454316D01*
X146558000Y-125483251D01*
X146851777Y-125454316D01*
X147134264Y-125368625D01*
X147394606Y-125229469D01*
X147622797Y-125042197D01*
X147810069Y-124814006D01*
X147828000Y-124780459D01*
X147845931Y-124814006D01*
X148033203Y-125042197D01*
X148261395Y-125229469D01*
X148521737Y-125368625D01*
X148804224Y-125454316D01*
X149098000Y-125483251D01*
X149391777Y-125454316D01*
X149674264Y-125368625D01*
X149934606Y-125229469D01*
X150162797Y-125042197D01*
X150350069Y-124814006D01*
X150371424Y-124774053D01*
X150519514Y-124976729D01*
X150735965Y-125175733D01*
X150987081Y-125328686D01*
X151263211Y-125429709D01*
X151278974Y-125432358D01*
X151511000Y-125311217D01*
X151511000Y-123952000D01*
X151765000Y-123952000D01*
X151765000Y-125311217D01*
X151997026Y-125432358D01*
X152012789Y-125429709D01*
X152288919Y-125328686D01*
X152540035Y-125175733D01*
X152756486Y-124976729D01*
X152908000Y-124769367D01*
X153059514Y-124976729D01*
X153275965Y-125175733D01*
X153527081Y-125328686D01*
X153803211Y-125429709D01*
X153818974Y-125432358D01*
X154051000Y-125311217D01*
X154051000Y-123952000D01*
X151765000Y-123952000D01*
X151511000Y-123952000D01*
X151491000Y-123952000D01*
X151491000Y-123698000D01*
X151511000Y-123698000D01*
X151511000Y-122338783D01*
X151765000Y-122338783D01*
X151765000Y-123698000D01*
X154051000Y-123698000D01*
X154051000Y-122338783D01*
X154305000Y-122338783D01*
X154305000Y-123698000D01*
X154325000Y-123698000D01*
X154325000Y-123952000D01*
X154305000Y-123952000D01*
X154305000Y-125311217D01*
X154537026Y-125432358D01*
X154552789Y-125429709D01*
X154828919Y-125328686D01*
X155080035Y-125175733D01*
X155296486Y-124976729D01*
X155444576Y-124774053D01*
X155465931Y-124814006D01*
X155653203Y-125042197D01*
X155881395Y-125229469D01*
X156141737Y-125368625D01*
X156424224Y-125454316D01*
X156718000Y-125483251D01*
X157011777Y-125454316D01*
X157294264Y-125368625D01*
X157554606Y-125229469D01*
X157782797Y-125042197D01*
X157970069Y-124814006D01*
X158109225Y-124553663D01*
X158194916Y-124271176D01*
X158216600Y-124051018D01*
X158216600Y-123598981D01*
X158194916Y-123378823D01*
X158109225Y-123096336D01*
X157970069Y-122835994D01*
X157782797Y-122607803D01*
X157554605Y-122420531D01*
X157294263Y-122281375D01*
X157011776Y-122195684D01*
X156718000Y-122166749D01*
X156424223Y-122195684D01*
X156141736Y-122281375D01*
X155881394Y-122420531D01*
X155653203Y-122607803D01*
X155465931Y-122835995D01*
X155444576Y-122875947D01*
X155296486Y-122673271D01*
X155080035Y-122474267D01*
X154828919Y-122321314D01*
X154552789Y-122220291D01*
X154537026Y-122217642D01*
X154305000Y-122338783D01*
X154051000Y-122338783D01*
X153818974Y-122217642D01*
X153803211Y-122220291D01*
X153527081Y-122321314D01*
X153275965Y-122474267D01*
X153059514Y-122673271D01*
X152908000Y-122880633D01*
X152756486Y-122673271D01*
X152540035Y-122474267D01*
X152288919Y-122321314D01*
X152012789Y-122220291D01*
X151997026Y-122217642D01*
X151765000Y-122338783D01*
X151511000Y-122338783D01*
X151278974Y-122217642D01*
X151263211Y-122220291D01*
X150987081Y-122321314D01*
X150735965Y-122474267D01*
X150519514Y-122673271D01*
X150371424Y-122875947D01*
X150350069Y-122835994D01*
X150162797Y-122607803D01*
X150033000Y-122501282D01*
X150033000Y-119164396D01*
X150212637Y-118984759D01*
X150369680Y-118749727D01*
X150477853Y-118488574D01*
X150533000Y-118211335D01*
X150533000Y-117957289D01*
X152562587Y-115927702D01*
X157849903Y-115927702D01*
X157921486Y-116171671D01*
X158176996Y-116292571D01*
X158451184Y-116361300D01*
X158733512Y-116375217D01*
X159013130Y-116333787D01*
X159279292Y-116238603D01*
X159404514Y-116171671D01*
X159476097Y-115927702D01*
X158663000Y-115114605D01*
X157849903Y-115927702D01*
X152562587Y-115927702D01*
X153484777Y-115005512D01*
X157222783Y-115005512D01*
X157264213Y-115285130D01*
X157359397Y-115551292D01*
X157426329Y-115676514D01*
X157670298Y-115748097D01*
X158483395Y-114935000D01*
X157670298Y-114121903D01*
X157426329Y-114193486D01*
X157305429Y-114448996D01*
X157236700Y-114723184D01*
X157222783Y-115005512D01*
X153484777Y-115005512D01*
X154547991Y-113942298D01*
X157849903Y-113942298D01*
X158663000Y-114755395D01*
X159476097Y-113942298D01*
X159404514Y-113698329D01*
X159149004Y-113577429D01*
X158874816Y-113508700D01*
X158592488Y-113494783D01*
X158312870Y-113536213D01*
X158046708Y-113631397D01*
X157921486Y-113698329D01*
X157849903Y-113942298D01*
X154547991Y-113942298D01*
X155160289Y-113330000D01*
X166482716Y-113330000D01*
X166528648Y-113334524D01*
X166574580Y-113330000D01*
X166711940Y-113316471D01*
X166888188Y-113263007D01*
X167050620Y-113176186D01*
X167192992Y-113059344D01*
X167222278Y-113023659D01*
X168984447Y-111261491D01*
X168984456Y-111261480D01*
X173689088Y-106556851D01*
X173701286Y-106571714D01*
X173833233Y-106680000D01*
X173701286Y-106788286D01*
X173496969Y-107037248D01*
X173345148Y-107321285D01*
X173251657Y-107629484D01*
X173220089Y-107950000D01*
X173251657Y-108270516D01*
X173345148Y-108578715D01*
X173496969Y-108862752D01*
X173701286Y-109111714D01*
X173833233Y-109220000D01*
X173701286Y-109328286D01*
X173496969Y-109577248D01*
X173345148Y-109861285D01*
X173251657Y-110169484D01*
X173220089Y-110490000D01*
X173251657Y-110810516D01*
X173345148Y-111118715D01*
X173496969Y-111402752D01*
X173701286Y-111651714D01*
X173950248Y-111856031D01*
X174198000Y-111988457D01*
X174198001Y-114515699D01*
X171329341Y-117384360D01*
X171293656Y-117413646D01*
X171176814Y-117556019D01*
X171089993Y-117718451D01*
X171070168Y-117783807D01*
X171036529Y-117894699D01*
X171018476Y-118077990D01*
X171023000Y-118123922D01*
X171023001Y-122501280D01*
X170893203Y-122607803D01*
X170705931Y-122835995D01*
X170688000Y-122869541D01*
X170670069Y-122835994D01*
X170482797Y-122607803D01*
X170254605Y-122420531D01*
X169994263Y-122281375D01*
X169711776Y-122195684D01*
X169418000Y-122166749D01*
X169124223Y-122195684D01*
X168841736Y-122281375D01*
X168581394Y-122420531D01*
X168353203Y-122607803D01*
X168165931Y-122835995D01*
X168148000Y-122869541D01*
X168130069Y-122835994D01*
X167942797Y-122607803D01*
X167714605Y-122420531D01*
X167454263Y-122281375D01*
X167171776Y-122195684D01*
X166878000Y-122166749D01*
X166584223Y-122195684D01*
X166301736Y-122281375D01*
X166041394Y-122420531D01*
X165813203Y-122607803D01*
X165625931Y-122835995D01*
X165608000Y-122869541D01*
X165590069Y-122835994D01*
X165402797Y-122607803D01*
X165174605Y-122420531D01*
X164914263Y-122281375D01*
X164631776Y-122195684D01*
X164338000Y-122166749D01*
X164044223Y-122195684D01*
X163761736Y-122281375D01*
X163501394Y-122420531D01*
X163273203Y-122607803D01*
X163085931Y-122835995D01*
X163068000Y-122869541D01*
X163050069Y-122835994D01*
X162862797Y-122607803D01*
X162634605Y-122420531D01*
X162374263Y-122281375D01*
X162098000Y-122197572D01*
X162098000Y-116029396D01*
X162257396Y-115870000D01*
X164020025Y-115870000D01*
X164121987Y-115971962D01*
X164340641Y-116118061D01*
X164583595Y-116218696D01*
X164841514Y-116270000D01*
X165104486Y-116270000D01*
X165362405Y-116218696D01*
X165605359Y-116118061D01*
X165824013Y-115971962D01*
X166009962Y-115786013D01*
X166156061Y-115567359D01*
X166256696Y-115324405D01*
X166308000Y-115066486D01*
X166308000Y-114803514D01*
X166256696Y-114545595D01*
X166156061Y-114302641D01*
X166009962Y-114083987D01*
X165824013Y-113898038D01*
X165605359Y-113751939D01*
X165362405Y-113651304D01*
X165104486Y-113600000D01*
X164841514Y-113600000D01*
X164583595Y-113651304D01*
X164340641Y-113751939D01*
X164121987Y-113898038D01*
X164020025Y-114000000D01*
X162257396Y-114000000D01*
X162077759Y-113820363D01*
X161842727Y-113663320D01*
X161581574Y-113555147D01*
X161304335Y-113500000D01*
X161021665Y-113500000D01*
X160744426Y-113555147D01*
X160483273Y-113663320D01*
X160248241Y-113820363D01*
X160048363Y-114020241D01*
X159914308Y-114220869D01*
X159899671Y-114193486D01*
X159655702Y-114121903D01*
X158842605Y-114935000D01*
X159655702Y-115748097D01*
X159899671Y-115676514D01*
X159913324Y-115647659D01*
X160048363Y-115849759D01*
X160228000Y-116029396D01*
X160228001Y-123144058D01*
X160223476Y-123190000D01*
X160241529Y-123373291D01*
X160289976Y-123532999D01*
X160294994Y-123549540D01*
X160302826Y-123564194D01*
X160299400Y-123598982D01*
X160299400Y-124051019D01*
X160321084Y-124271177D01*
X160406775Y-124553664D01*
X160545931Y-124814006D01*
X160733203Y-125042197D01*
X160961395Y-125229469D01*
X161221737Y-125368625D01*
X161504224Y-125454316D01*
X161798000Y-125483251D01*
X162091777Y-125454316D01*
X162374264Y-125368625D01*
X162634606Y-125229469D01*
X162862797Y-125042197D01*
X163050069Y-124814006D01*
X163068000Y-124780459D01*
X163085931Y-124814006D01*
X163273203Y-125042197D01*
X163501395Y-125229469D01*
X163761737Y-125368625D01*
X164044224Y-125454316D01*
X164338000Y-125483251D01*
X164631777Y-125454316D01*
X164914264Y-125368625D01*
X165174606Y-125229469D01*
X165402797Y-125042197D01*
X165590069Y-124814006D01*
X165608000Y-124780459D01*
X165625931Y-124814006D01*
X165813203Y-125042197D01*
X166041395Y-125229469D01*
X166301737Y-125368625D01*
X166584224Y-125454316D01*
X166878000Y-125483251D01*
X167171777Y-125454316D01*
X167454264Y-125368625D01*
X167714606Y-125229469D01*
X167942797Y-125042197D01*
X168130069Y-124814006D01*
X168148000Y-124780459D01*
X168165931Y-124814006D01*
X168353203Y-125042197D01*
X168581395Y-125229469D01*
X168841737Y-125368625D01*
X169124224Y-125454316D01*
X169418000Y-125483251D01*
X169711777Y-125454316D01*
X169994264Y-125368625D01*
X170254606Y-125229469D01*
X170482797Y-125042197D01*
X170670069Y-124814006D01*
X170688000Y-124780459D01*
X170705931Y-124814006D01*
X170893203Y-125042197D01*
X171121395Y-125229469D01*
X171381737Y-125368625D01*
X171664224Y-125454316D01*
X171958000Y-125483251D01*
X172251777Y-125454316D01*
X172534264Y-125368625D01*
X172794606Y-125229469D01*
X173022797Y-125042197D01*
X173210069Y-124814006D01*
X173228000Y-124780459D01*
X173245931Y-124814006D01*
X173433203Y-125042197D01*
X173661395Y-125229469D01*
X173921737Y-125368625D01*
X174204224Y-125454316D01*
X174498000Y-125483251D01*
X174791777Y-125454316D01*
X175074264Y-125368625D01*
X175334606Y-125229469D01*
X175562797Y-125042197D01*
X175750069Y-124814006D01*
X175889225Y-124553663D01*
X175974916Y-124271176D01*
X175996600Y-124051018D01*
X175996600Y-123598981D01*
X175974916Y-123378823D01*
X175889225Y-123096336D01*
X175750069Y-122835994D01*
X175562797Y-122607803D01*
X175334605Y-122420531D01*
X175140999Y-122317046D01*
X175140999Y-120619706D01*
X175337887Y-120816594D01*
X175774702Y-121108464D01*
X176260065Y-121309508D01*
X176775323Y-121412000D01*
X177300677Y-121412000D01*
X177815935Y-121309508D01*
X178301298Y-121108464D01*
X178738113Y-120816594D01*
X178868000Y-120686707D01*
X178868000Y-120990908D01*
X176560617Y-123298292D01*
X176533526Y-123320525D01*
X176511293Y-123347616D01*
X176444801Y-123428637D01*
X176378872Y-123551981D01*
X176338274Y-123685816D01*
X176324565Y-123825000D01*
X176328001Y-123859885D01*
X176328000Y-125655000D01*
X126909707Y-125655000D01*
X127039594Y-125525113D01*
X127331464Y-125088298D01*
X127532508Y-124602935D01*
X127635000Y-124087677D01*
X127635000Y-123562323D01*
X127532508Y-123047065D01*
X127331464Y-122561702D01*
X127039594Y-122124887D01*
X126668113Y-121753406D01*
X126231298Y-121461536D01*
X125745935Y-121260492D01*
X125230677Y-121158000D01*
X124705323Y-121158000D01*
X124190065Y-121260492D01*
X123704702Y-121461536D01*
X123267887Y-121753406D01*
X122896406Y-122124887D01*
X122604536Y-122561702D01*
X122403492Y-123047065D01*
X122301000Y-123562323D01*
X122301000Y-124087677D01*
X122403492Y-124602935D01*
X122604536Y-125088298D01*
X122896406Y-125525113D01*
X123026293Y-125655000D01*
X111708000Y-125655000D01*
X111708000Y-116585434D01*
X128037876Y-116585434D01*
X128068856Y-116713355D01*
X128197990Y-117007761D01*
X128382078Y-117271317D01*
X128614046Y-117493895D01*
X128884980Y-117666942D01*
X129184468Y-117783807D01*
X129501000Y-117840000D01*
X129771000Y-117840000D01*
X129771000Y-116332000D01*
X130025000Y-116332000D01*
X130025000Y-117840000D01*
X130295000Y-117840000D01*
X130611532Y-117783807D01*
X130911020Y-117666942D01*
X131181954Y-117493895D01*
X131413922Y-117271317D01*
X131598010Y-117007761D01*
X131727144Y-116713355D01*
X131758124Y-116585434D01*
X131638777Y-116332000D01*
X130025000Y-116332000D01*
X129771000Y-116332000D01*
X128157223Y-116332000D01*
X128037876Y-116585434D01*
X111708000Y-116585434D01*
X111708000Y-73735000D01*
X124296293Y-73735000D01*
X124166406Y-73864887D01*
G37*
%TD.AperFunction*%
D23*
X176328001Y-74843093D02*
X176328000Y-85944125D01*
X176324565Y-85979000D01*
X176328000Y-86013875D01*
X176328000Y-86013876D01*
X176338273Y-86118183D01*
X176378872Y-86252019D01*
X176444800Y-86375362D01*
X176533525Y-86483474D01*
X176560617Y-86505708D01*
X178868001Y-88813093D01*
X178868001Y-88863294D01*
X178738113Y-88733406D01*
X178301298Y-88441536D01*
X177815935Y-88240492D01*
X177300677Y-88138000D01*
X176775323Y-88138000D01*
X176260065Y-88240492D01*
X175774702Y-88441536D01*
X175337887Y-88733406D01*
X174966406Y-89104887D01*
X174674536Y-89541702D01*
X174473492Y-90027065D01*
X174371000Y-90542323D01*
X174371000Y-91067677D01*
X174473492Y-91582935D01*
X174674536Y-92068298D01*
X174966406Y-92505113D01*
X175337887Y-92876594D01*
X175774702Y-93168464D01*
X176260065Y-93369508D01*
X176775323Y-93472000D01*
X177300677Y-93472000D01*
X177815935Y-93369508D01*
X178301298Y-93168464D01*
X178738113Y-92876594D01*
X178868001Y-92746706D01*
X178868000Y-116803293D01*
X178738113Y-116673406D01*
X178301298Y-116381536D01*
X177815935Y-116180492D01*
X177300677Y-116078000D01*
X176835927Y-116078000D01*
X177831670Y-115082257D01*
X177867354Y-115052972D01*
X177984196Y-114910600D01*
X178046699Y-114793665D01*
X178071017Y-114748169D01*
X178124482Y-114571920D01*
X178142534Y-114388628D01*
X178138010Y-114342693D01*
X178138010Y-109790347D01*
X178142534Y-109744412D01*
X178124482Y-109561120D01*
X178091685Y-109453006D01*
X178071017Y-109384872D01*
X177984196Y-109222440D01*
X177867354Y-109080068D01*
X177831669Y-109050782D01*
X177017666Y-108236779D01*
X177045911Y-107950000D01*
X177014343Y-107629484D01*
X176920852Y-107321285D01*
X176769031Y-107037248D01*
X176564714Y-106788286D01*
X176432767Y-106680000D01*
X176564714Y-106571714D01*
X176769031Y-106322752D01*
X176920852Y-106038715D01*
X177014343Y-105730516D01*
X177045911Y-105410000D01*
X177014343Y-105089484D01*
X176920852Y-104781285D01*
X176769031Y-104497248D01*
X176564714Y-104248286D01*
X176434858Y-104141716D01*
X176648922Y-103936317D01*
X176833010Y-103672761D01*
X176962144Y-103378355D01*
X176993124Y-103250434D01*
X176873777Y-102997000D01*
X175260000Y-102997000D01*
X175260000Y-103017000D01*
X175006000Y-103017000D01*
X175006000Y-102997000D01*
X173392223Y-102997000D01*
X173272876Y-103250434D01*
X173303856Y-103378355D01*
X173432990Y-103672761D01*
X173617078Y-103936317D01*
X173831142Y-104141716D01*
X173701286Y-104248286D01*
X173518544Y-104470958D01*
X173513648Y-104470476D01*
X173330356Y-104488529D01*
X173306348Y-104495812D01*
X173154109Y-104541993D01*
X172991677Y-104628814D01*
X172849305Y-104745656D01*
X172820024Y-104781335D01*
X167662163Y-109939196D01*
X167662157Y-109939201D01*
X166141359Y-111460000D01*
X154818932Y-111460000D01*
X154773000Y-111455476D01*
X154727068Y-111460000D01*
X154589708Y-111473529D01*
X154413460Y-111526993D01*
X154251028Y-111613814D01*
X154108656Y-111730656D01*
X154079370Y-111766341D01*
X150513441Y-115332270D01*
X150496787Y-115219870D01*
X150401603Y-114953708D01*
X150334671Y-114828486D01*
X150090702Y-114756903D01*
X149277605Y-115570000D01*
X149291748Y-115584143D01*
X149112143Y-115763748D01*
X149098000Y-115749605D01*
X149083858Y-115763748D01*
X148904253Y-115584143D01*
X148918395Y-115570000D01*
X148105298Y-114756903D01*
X147861329Y-114828486D01*
X147740429Y-115083996D01*
X147671700Y-115358184D01*
X147657783Y-115640512D01*
X147699213Y-115920130D01*
X147794397Y-116186292D01*
X147861329Y-116311514D01*
X148052158Y-116367505D01*
X147938461Y-116401995D01*
X147776030Y-116488816D01*
X147633658Y-116605658D01*
X147516816Y-116748030D01*
X147429995Y-116910461D01*
X147376530Y-117086710D01*
X147371774Y-117135000D01*
X139429136Y-117135000D01*
X139518010Y-117007761D01*
X139647144Y-116713355D01*
X139678124Y-116585434D01*
X139558777Y-116332000D01*
X137945000Y-116332000D01*
X137945000Y-116352000D01*
X137691000Y-116352000D01*
X137691000Y-116332000D01*
X137671000Y-116332000D01*
X137671000Y-116078000D01*
X137691000Y-116078000D01*
X137691000Y-113792000D01*
X137945000Y-113792000D01*
X137945000Y-116078000D01*
X139558777Y-116078000D01*
X139678124Y-115824566D01*
X139647144Y-115696645D01*
X139518010Y-115402239D01*
X139333922Y-115138683D01*
X139121646Y-114935000D01*
X139333922Y-114731317D01*
X139441500Y-114577298D01*
X148284903Y-114577298D01*
X149098000Y-115390395D01*
X149911097Y-114577298D01*
X149839514Y-114333329D01*
X149584004Y-114212429D01*
X149309816Y-114143700D01*
X149027488Y-114129783D01*
X148747870Y-114171213D01*
X148481708Y-114266397D01*
X148356486Y-114333329D01*
X148284903Y-114577298D01*
X139441500Y-114577298D01*
X139518010Y-114467761D01*
X139647144Y-114173355D01*
X139678124Y-114045434D01*
X139558777Y-113792000D01*
X137945000Y-113792000D01*
X137691000Y-113792000D01*
X136077223Y-113792000D01*
X135957876Y-114045434D01*
X135988856Y-114173355D01*
X136117990Y-114467761D01*
X136302078Y-114731317D01*
X136514354Y-114935000D01*
X136302078Y-115138683D01*
X136117990Y-115402239D01*
X135988856Y-115696645D01*
X135957876Y-115824566D01*
X135969997Y-115850306D01*
X134793000Y-114673309D01*
X134793000Y-111062289D01*
X136261107Y-109594183D01*
X136386286Y-109746714D01*
X136518233Y-109855000D01*
X136386286Y-109963286D01*
X136181969Y-110212248D01*
X136030148Y-110496285D01*
X135936657Y-110804484D01*
X135905089Y-111125000D01*
X135936657Y-111445516D01*
X136030148Y-111753715D01*
X136181969Y-112037752D01*
X136386286Y-112286714D01*
X136516142Y-112393284D01*
X136302078Y-112598683D01*
X136117990Y-112862239D01*
X135988856Y-113156645D01*
X135957876Y-113284566D01*
X136077223Y-113538000D01*
X137691000Y-113538000D01*
X137691000Y-113518000D01*
X137945000Y-113518000D01*
X137945000Y-113538000D01*
X139558777Y-113538000D01*
X139678124Y-113284566D01*
X139647144Y-113156645D01*
X139518010Y-112862239D01*
X139333922Y-112598683D01*
X139119858Y-112393284D01*
X139249714Y-112286714D01*
X139435773Y-112060000D01*
X148417068Y-112060000D01*
X148463000Y-112064524D01*
X148508932Y-112060000D01*
X148646292Y-112046471D01*
X148822540Y-111993007D01*
X148984972Y-111906186D01*
X149127344Y-111789344D01*
X149156630Y-111753659D01*
X151696623Y-109213667D01*
X151696628Y-109213661D01*
X159886659Y-101023630D01*
X159922344Y-100994344D01*
X159951630Y-100958659D01*
X160415289Y-100495000D01*
X160669335Y-100495000D01*
X160946574Y-100439853D01*
X161207727Y-100331680D01*
X161442759Y-100174637D01*
X161642637Y-99974759D01*
X161799680Y-99739727D01*
X161907853Y-99478574D01*
X161963000Y-99201335D01*
X161963000Y-98947289D01*
X163761623Y-97148667D01*
X163761628Y-97148661D01*
X165601659Y-95308630D01*
X165637344Y-95279344D01*
X165754186Y-95136972D01*
X165841007Y-94974540D01*
X165894471Y-94798292D01*
X165908000Y-94660932D01*
X165912524Y-94615000D01*
X165908000Y-94569068D01*
X165908000Y-89279396D01*
X166087637Y-89099759D01*
X166244680Y-88864727D01*
X166352853Y-88603574D01*
X166408000Y-88326335D01*
X166408000Y-88043665D01*
X166352853Y-87766426D01*
X166244680Y-87505273D01*
X166087637Y-87270241D01*
X165887759Y-87070363D01*
X165652727Y-86913320D01*
X165391574Y-86805147D01*
X165114335Y-86750000D01*
X164831665Y-86750000D01*
X164554426Y-86805147D01*
X164293273Y-86913320D01*
X164058241Y-87070363D01*
X163858363Y-87270241D01*
X163701320Y-87505273D01*
X163593147Y-87766426D01*
X163538000Y-88043665D01*
X163538000Y-88326335D01*
X163593147Y-88603574D01*
X163701320Y-88864727D01*
X163858363Y-89099759D01*
X164038000Y-89279396D01*
X164038001Y-94227710D01*
X162439339Y-95826372D01*
X162439333Y-95826377D01*
X160640711Y-97625000D01*
X160386665Y-97625000D01*
X160109426Y-97680147D01*
X159848273Y-97788320D01*
X159613241Y-97945363D01*
X159413363Y-98145241D01*
X159256320Y-98380273D01*
X159148147Y-98641426D01*
X159093000Y-98918665D01*
X159093000Y-99172711D01*
X158870711Y-99395000D01*
X152747773Y-99395000D01*
X152561714Y-99168286D01*
X152429767Y-99060000D01*
X152561714Y-98951714D01*
X152747773Y-98725000D01*
X155402068Y-98725000D01*
X155448000Y-98729524D01*
X155493932Y-98725000D01*
X155631292Y-98711471D01*
X155807540Y-98658007D01*
X155969972Y-98571186D01*
X156112344Y-98454344D01*
X156141630Y-98418659D01*
X160415289Y-94145000D01*
X160669335Y-94145000D01*
X160946574Y-94089853D01*
X161207727Y-93981680D01*
X161442759Y-93824637D01*
X161642637Y-93624759D01*
X161799680Y-93389727D01*
X161907853Y-93128574D01*
X161963000Y-92851335D01*
X161963000Y-92568665D01*
X161907853Y-92291426D01*
X161799680Y-92030273D01*
X161642637Y-91795241D01*
X161442759Y-91595363D01*
X161207727Y-91438320D01*
X160946574Y-91330147D01*
X160669335Y-91275000D01*
X160386665Y-91275000D01*
X160109426Y-91330147D01*
X159848273Y-91438320D01*
X159613241Y-91595363D01*
X159413363Y-91795241D01*
X159256320Y-92030273D01*
X159148147Y-92291426D01*
X159093000Y-92568665D01*
X159093000Y-92822711D01*
X155060711Y-96855000D01*
X152747773Y-96855000D01*
X152561714Y-96628286D01*
X152431858Y-96521716D01*
X152645922Y-96316317D01*
X152830010Y-96052761D01*
X152959144Y-95758355D01*
X152990124Y-95630434D01*
X152870777Y-95377000D01*
X151257000Y-95377000D01*
X151257000Y-95397000D01*
X151003000Y-95397000D01*
X151003000Y-95377000D01*
X149389223Y-95377000D01*
X149269876Y-95630434D01*
X149300856Y-95758355D01*
X149429990Y-96052761D01*
X149614078Y-96316317D01*
X149828142Y-96521716D01*
X149698286Y-96628286D01*
X149493969Y-96877248D01*
X149342148Y-97161285D01*
X149248657Y-97469484D01*
X149217089Y-97790000D01*
X149245334Y-98076779D01*
X145929336Y-101392777D01*
X145893657Y-101422058D01*
X145776815Y-101564430D01*
X145744002Y-101625820D01*
X145689994Y-101726862D01*
X145636529Y-101903111D01*
X145618476Y-102086402D01*
X145623001Y-102132344D01*
X145623000Y-104950604D01*
X145463604Y-105110000D01*
X140595290Y-105110000D01*
X139873000Y-104387711D01*
X139873000Y-102694396D01*
X140052637Y-102514759D01*
X140209680Y-102279727D01*
X140317853Y-102018574D01*
X140373000Y-101741335D01*
X140373000Y-101458665D01*
X140317853Y-101181426D01*
X140209680Y-100920273D01*
X140052637Y-100685241D01*
X139852759Y-100485363D01*
X139617727Y-100328320D01*
X139356574Y-100220147D01*
X139079335Y-100165000D01*
X138796665Y-100165000D01*
X138519426Y-100220147D01*
X138258273Y-100328320D01*
X138023241Y-100485363D01*
X137823363Y-100685241D01*
X137666320Y-100920273D01*
X137558147Y-101181426D01*
X137503000Y-101458665D01*
X137503000Y-101741335D01*
X137558147Y-102018574D01*
X137666320Y-102279727D01*
X137823363Y-102514759D01*
X138003000Y-102694396D01*
X138003001Y-104729058D01*
X137998476Y-104775000D01*
X138016529Y-104958291D01*
X138062550Y-105110000D01*
X138069994Y-105134540D01*
X138156815Y-105296972D01*
X138273657Y-105439344D01*
X138309336Y-105468625D01*
X139514374Y-106673664D01*
X139543656Y-106709344D01*
X139686028Y-106826186D01*
X139848460Y-106913007D01*
X139960283Y-106946928D01*
X140024707Y-106966471D01*
X140207999Y-106984524D01*
X140253931Y-106980000D01*
X145463604Y-106980000D01*
X145643241Y-107159637D01*
X145878273Y-107316680D01*
X146139426Y-107424853D01*
X146416665Y-107480000D01*
X146699335Y-107480000D01*
X146976574Y-107424853D01*
X147237727Y-107316680D01*
X147472759Y-107159637D01*
X147594694Y-107037702D01*
X148244903Y-107037702D01*
X148316486Y-107281671D01*
X148571996Y-107402571D01*
X148846184Y-107471300D01*
X149128512Y-107485217D01*
X149408130Y-107443787D01*
X149674292Y-107348603D01*
X149799514Y-107281671D01*
X149871097Y-107037702D01*
X149058000Y-106224605D01*
X148244903Y-107037702D01*
X147594694Y-107037702D01*
X147672637Y-106959759D01*
X147806692Y-106759131D01*
X147821329Y-106786514D01*
X148065298Y-106858097D01*
X148878395Y-106045000D01*
X149237605Y-106045000D01*
X150050702Y-106858097D01*
X150294671Y-106786514D01*
X150415571Y-106531004D01*
X150484300Y-106256816D01*
X150498217Y-105974488D01*
X150456787Y-105694870D01*
X150361603Y-105428708D01*
X150294671Y-105303486D01*
X150050702Y-105231903D01*
X149237605Y-106045000D01*
X148878395Y-106045000D01*
X148065298Y-105231903D01*
X147821329Y-105303486D01*
X147807676Y-105332341D01*
X147672637Y-105130241D01*
X147594694Y-105052298D01*
X148244903Y-105052298D01*
X149058000Y-105865395D01*
X149871097Y-105052298D01*
X149799514Y-104808329D01*
X149544004Y-104687429D01*
X149269816Y-104618700D01*
X148987488Y-104604783D01*
X148707870Y-104646213D01*
X148441708Y-104741397D01*
X148316486Y-104808329D01*
X148244903Y-105052298D01*
X147594694Y-105052298D01*
X147493000Y-104950604D01*
X147493000Y-102473691D01*
X149264371Y-100702320D01*
X149342148Y-100958715D01*
X149493969Y-101242752D01*
X149552655Y-101314261D01*
X149505506Y-101339463D01*
X149408815Y-101418815D01*
X149329463Y-101515506D01*
X149270498Y-101625820D01*
X149234188Y-101745518D01*
X149221928Y-101870000D01*
X149221928Y-103870000D01*
X149234188Y-103994482D01*
X149270498Y-104114180D01*
X149329463Y-104224494D01*
X149408815Y-104321185D01*
X149505506Y-104400537D01*
X149615820Y-104459502D01*
X149735518Y-104495812D01*
X149860000Y-104508072D01*
X152400000Y-104508072D01*
X152524482Y-104495812D01*
X152644180Y-104459502D01*
X152754494Y-104400537D01*
X152851185Y-104321185D01*
X152930537Y-104224494D01*
X152989502Y-104114180D01*
X153025812Y-103994482D01*
X153038072Y-103870000D01*
X153038072Y-101870000D01*
X153025812Y-101745518D01*
X152989502Y-101625820D01*
X152930537Y-101515506D01*
X152851185Y-101418815D01*
X152754494Y-101339463D01*
X152707345Y-101314261D01*
X152747773Y-101265000D01*
X157000711Y-101265000D01*
X150374339Y-107891372D01*
X150374333Y-107891377D01*
X148075711Y-110190000D01*
X139435773Y-110190000D01*
X139249714Y-109963286D01*
X139117767Y-109855000D01*
X139249714Y-109746714D01*
X139454031Y-109497752D01*
X139605852Y-109213715D01*
X139699343Y-108905516D01*
X139730911Y-108585000D01*
X139699343Y-108264484D01*
X139605852Y-107956285D01*
X139454031Y-107672248D01*
X139249714Y-107423286D01*
X139000752Y-107218969D01*
X138716715Y-107067148D01*
X138408516Y-106973657D01*
X138168322Y-106950000D01*
X137467678Y-106950000D01*
X137227484Y-106973657D01*
X136919285Y-107067148D01*
X136883000Y-107086543D01*
X136883000Y-97425931D01*
X136887524Y-97379999D01*
X136869471Y-97196707D01*
X136830630Y-97068666D01*
X136816007Y-97020460D01*
X136729186Y-96858028D01*
X136612344Y-96715656D01*
X136576664Y-96686374D01*
X131035290Y-91145000D01*
X134665711Y-91145000D01*
X138003001Y-94482290D01*
X138003000Y-97744068D01*
X137998476Y-97790000D01*
X138003000Y-97835931D01*
X138016529Y-97973291D01*
X138069993Y-98149539D01*
X138156814Y-98311971D01*
X138273656Y-98454344D01*
X138309341Y-98483630D01*
X140784374Y-100958664D01*
X140813656Y-100994344D01*
X140956028Y-101111186D01*
X141118460Y-101198007D01*
X141230283Y-101231928D01*
X141294707Y-101251471D01*
X141313110Y-101253283D01*
X141432068Y-101265000D01*
X141432074Y-101265000D01*
X141477999Y-101269523D01*
X141523924Y-101265000D01*
X141638227Y-101265000D01*
X141824286Y-101491714D01*
X141956233Y-101600000D01*
X141824286Y-101708286D01*
X141619969Y-101957248D01*
X141468148Y-102241285D01*
X141374657Y-102549484D01*
X141343089Y-102870000D01*
X141374657Y-103190516D01*
X141468148Y-103498715D01*
X141619969Y-103782752D01*
X141824286Y-104031714D01*
X142073248Y-104236031D01*
X142357285Y-104387852D01*
X142665484Y-104481343D01*
X142905678Y-104505000D01*
X143606322Y-104505000D01*
X143846516Y-104481343D01*
X144154715Y-104387852D01*
X144438752Y-104236031D01*
X144687714Y-104031714D01*
X144892031Y-103782752D01*
X145043852Y-103498715D01*
X145137343Y-103190516D01*
X145168911Y-102870000D01*
X145137343Y-102549484D01*
X145043852Y-102241285D01*
X144892031Y-101957248D01*
X144687714Y-101708286D01*
X144555767Y-101600000D01*
X144687714Y-101491714D01*
X144892031Y-101242752D01*
X145043852Y-100958715D01*
X145137343Y-100650516D01*
X145168911Y-100330000D01*
X145137343Y-100009484D01*
X145043852Y-99701285D01*
X144892031Y-99417248D01*
X144687714Y-99168286D01*
X144555767Y-99060000D01*
X144687714Y-98951714D01*
X144873773Y-98725000D01*
X145728470Y-98725000D01*
X145774402Y-98729524D01*
X145820334Y-98725000D01*
X145957694Y-98711471D01*
X146133942Y-98658007D01*
X146296374Y-98571186D01*
X146438746Y-98454344D01*
X146468032Y-98418659D01*
X148456666Y-96430026D01*
X148492344Y-96400746D01*
X148609186Y-96258374D01*
X148696007Y-96095942D01*
X148749471Y-95919694D01*
X148763000Y-95782334D01*
X148763000Y-95782333D01*
X148767524Y-95736403D01*
X148763000Y-95690471D01*
X148763000Y-94869566D01*
X149269876Y-94869566D01*
X149389223Y-95123000D01*
X151003000Y-95123000D01*
X151003000Y-93615000D01*
X151257000Y-93615000D01*
X151257000Y-95123000D01*
X152870777Y-95123000D01*
X152990124Y-94869566D01*
X152959144Y-94741645D01*
X152830010Y-94447239D01*
X152645922Y-94183683D01*
X152413954Y-93961105D01*
X152143020Y-93788058D01*
X151843532Y-93671193D01*
X151527000Y-93615000D01*
X151257000Y-93615000D01*
X151003000Y-93615000D01*
X150733000Y-93615000D01*
X150416468Y-93671193D01*
X150116980Y-93788058D01*
X149846046Y-93961105D01*
X149614078Y-94183683D01*
X149429990Y-94447239D01*
X149300856Y-94741645D01*
X149269876Y-94869566D01*
X148763000Y-94869566D01*
X148763000Y-93097289D01*
X150120289Y-91740000D01*
X157307068Y-91740000D01*
X157353000Y-91744524D01*
X157398932Y-91740000D01*
X157536292Y-91726471D01*
X157712540Y-91673007D01*
X157874972Y-91586186D01*
X158017344Y-91469344D01*
X158046630Y-91433659D01*
X164860290Y-84620000D01*
X165085711Y-84620000D01*
X167213000Y-86747290D01*
X167213001Y-96474058D01*
X167208476Y-96520000D01*
X167226529Y-96703291D01*
X167272550Y-96855000D01*
X167279994Y-96879540D01*
X167366815Y-97041972D01*
X167483657Y-97184344D01*
X167519336Y-97213625D01*
X169253000Y-98947290D01*
X169253000Y-99201335D01*
X169308147Y-99478574D01*
X169416320Y-99739727D01*
X169573363Y-99974759D01*
X169753001Y-100154397D01*
X169753000Y-103432713D01*
X166805713Y-106380000D01*
X165925975Y-106380000D01*
X165824013Y-106278038D01*
X165605359Y-106131939D01*
X165362405Y-106031304D01*
X165104486Y-105980000D01*
X164841514Y-105980000D01*
X164583595Y-106031304D01*
X164340641Y-106131939D01*
X164121987Y-106278038D01*
X163936038Y-106463987D01*
X163789939Y-106682641D01*
X163689304Y-106925595D01*
X163638000Y-107183514D01*
X163638000Y-107446486D01*
X163689304Y-107704405D01*
X163789939Y-107947359D01*
X163936038Y-108166013D01*
X164121987Y-108351962D01*
X164340641Y-108498061D01*
X164583595Y-108598696D01*
X164841514Y-108650000D01*
X165104486Y-108650000D01*
X165362405Y-108598696D01*
X165605359Y-108498061D01*
X165824013Y-108351962D01*
X165925975Y-108250000D01*
X167147070Y-108250000D01*
X167193002Y-108254524D01*
X167238934Y-108250000D01*
X167376294Y-108236471D01*
X167552542Y-108183007D01*
X167714974Y-108096186D01*
X167857346Y-107979344D01*
X167886632Y-107943659D01*
X171316660Y-104513631D01*
X171352344Y-104484346D01*
X171469186Y-104341974D01*
X171531980Y-104224494D01*
X171556007Y-104179543D01*
X171609472Y-104003294D01*
X171627524Y-103820002D01*
X171623000Y-103774067D01*
X171623000Y-102489566D01*
X173272876Y-102489566D01*
X173392223Y-102743000D01*
X175006000Y-102743000D01*
X175006000Y-101235000D01*
X175260000Y-101235000D01*
X175260000Y-102743000D01*
X176873777Y-102743000D01*
X176993124Y-102489566D01*
X176962144Y-102361645D01*
X176833010Y-102067239D01*
X176648922Y-101803683D01*
X176416954Y-101581105D01*
X176146020Y-101408058D01*
X175846532Y-101291193D01*
X175530000Y-101235000D01*
X175260000Y-101235000D01*
X175006000Y-101235000D01*
X174736000Y-101235000D01*
X174419468Y-101291193D01*
X174119980Y-101408058D01*
X173849046Y-101581105D01*
X173617078Y-101803683D01*
X173432990Y-102067239D01*
X173303856Y-102361645D01*
X173272876Y-102489566D01*
X171623000Y-102489566D01*
X171623000Y-100154396D01*
X171802637Y-99974759D01*
X171959680Y-99739727D01*
X172067853Y-99478574D01*
X172123000Y-99201335D01*
X172123000Y-98918665D01*
X172067853Y-98641426D01*
X171959680Y-98380273D01*
X171802637Y-98145241D01*
X171602759Y-97945363D01*
X171367727Y-97788320D01*
X171106574Y-97680147D01*
X170829335Y-97625000D01*
X170575290Y-97625000D01*
X169083000Y-96132711D01*
X169083000Y-93702702D01*
X169874903Y-93702702D01*
X169946486Y-93946671D01*
X170201996Y-94067571D01*
X170476184Y-94136300D01*
X170758512Y-94150217D01*
X171038130Y-94108787D01*
X171304292Y-94013603D01*
X171429514Y-93946671D01*
X171501097Y-93702702D01*
X170688000Y-92889605D01*
X169874903Y-93702702D01*
X169083000Y-93702702D01*
X169083000Y-92780512D01*
X169247783Y-92780512D01*
X169289213Y-93060130D01*
X169384397Y-93326292D01*
X169451329Y-93451514D01*
X169695298Y-93523097D01*
X170508395Y-92710000D01*
X170867605Y-92710000D01*
X171680702Y-93523097D01*
X171924671Y-93451514D01*
X172045571Y-93196004D01*
X172114300Y-92921816D01*
X172128217Y-92639488D01*
X172086787Y-92359870D01*
X171991603Y-92093708D01*
X171924671Y-91968486D01*
X171680702Y-91896903D01*
X170867605Y-92710000D01*
X170508395Y-92710000D01*
X169695298Y-91896903D01*
X169451329Y-91968486D01*
X169330429Y-92223996D01*
X169261700Y-92498184D01*
X169247783Y-92780512D01*
X169083000Y-92780512D01*
X169083000Y-91717298D01*
X169874903Y-91717298D01*
X170688000Y-92530395D01*
X171501097Y-91717298D01*
X171429514Y-91473329D01*
X171174004Y-91352429D01*
X170899816Y-91283700D01*
X170617488Y-91269783D01*
X170337870Y-91311213D01*
X170071708Y-91406397D01*
X169946486Y-91473329D01*
X169874903Y-91717298D01*
X169083000Y-91717298D01*
X169083000Y-86405931D01*
X169087524Y-86359999D01*
X169069471Y-86176707D01*
X169023451Y-86025000D01*
X169016007Y-86000460D01*
X168929186Y-85838028D01*
X168812344Y-85695656D01*
X168776666Y-85666376D01*
X166408000Y-83297711D01*
X166408000Y-83043665D01*
X166352853Y-82766426D01*
X166244680Y-82505273D01*
X166087637Y-82270241D01*
X165887759Y-82070363D01*
X165652727Y-81913320D01*
X165391574Y-81805147D01*
X165114335Y-81750000D01*
X164831665Y-81750000D01*
X164554426Y-81805147D01*
X164402178Y-81868210D01*
X169087280Y-77183109D01*
X169124224Y-77194316D01*
X169418000Y-77223251D01*
X169711777Y-77194316D01*
X169994264Y-77108625D01*
X170254606Y-76969469D01*
X170482797Y-76782197D01*
X170670069Y-76554006D01*
X170688000Y-76520459D01*
X170705931Y-76554006D01*
X170893203Y-76782197D01*
X171121395Y-76969469D01*
X171381737Y-77108625D01*
X171664224Y-77194316D01*
X171958000Y-77223251D01*
X172251777Y-77194316D01*
X172534264Y-77108625D01*
X172794606Y-76969469D01*
X173022797Y-76782197D01*
X173210069Y-76554006D01*
X173228000Y-76520459D01*
X173245931Y-76554006D01*
X173433203Y-76782197D01*
X173661395Y-76969469D01*
X173921737Y-77108625D01*
X174204224Y-77194316D01*
X174498000Y-77223251D01*
X174791777Y-77194316D01*
X175074264Y-77108625D01*
X175334606Y-76969469D01*
X175562797Y-76782197D01*
X175750069Y-76554006D01*
X175889225Y-76293663D01*
X175974916Y-76011176D01*
X175996600Y-75791018D01*
X175996600Y-75338981D01*
X175974916Y-75118823D01*
X175889225Y-74836336D01*
X175750069Y-74575994D01*
X175562797Y-74347803D01*
X175334605Y-74160531D01*
X175074263Y-74021375D01*
X174791776Y-73935684D01*
X174498000Y-73906749D01*
X174204223Y-73935684D01*
X173921736Y-74021375D01*
X173661394Y-74160531D01*
X173433203Y-74347803D01*
X173245931Y-74575995D01*
X173228000Y-74609541D01*
X173210069Y-74575994D01*
X173022797Y-74347803D01*
X172794605Y-74160531D01*
X172534263Y-74021375D01*
X172251776Y-73935684D01*
X171958000Y-73906749D01*
X171664223Y-73935684D01*
X171381736Y-74021375D01*
X171121394Y-74160531D01*
X170893203Y-74347803D01*
X170705931Y-74575995D01*
X170688000Y-74609541D01*
X170670069Y-74575994D01*
X170482797Y-74347803D01*
X170254605Y-74160531D01*
X169994263Y-74021375D01*
X169711776Y-73935684D01*
X169418000Y-73906749D01*
X169124223Y-73935684D01*
X168841736Y-74021375D01*
X168581394Y-74160531D01*
X168353203Y-74347803D01*
X168165931Y-74575995D01*
X168148000Y-74609541D01*
X168130069Y-74575994D01*
X167942797Y-74347803D01*
X167714605Y-74160531D01*
X167454263Y-74021375D01*
X167171776Y-73935684D01*
X166878000Y-73906749D01*
X166584223Y-73935684D01*
X166301736Y-74021375D01*
X166041394Y-74160531D01*
X165813203Y-74347803D01*
X165625931Y-74575995D01*
X165608000Y-74609541D01*
X165590069Y-74575994D01*
X165402797Y-74347803D01*
X165174605Y-74160531D01*
X164914263Y-74021375D01*
X164631776Y-73935684D01*
X164338000Y-73906749D01*
X164044223Y-73935684D01*
X163761736Y-74021375D01*
X163501394Y-74160531D01*
X163273203Y-74347803D01*
X163085931Y-74575995D01*
X163068000Y-74609541D01*
X163050069Y-74575994D01*
X162862797Y-74347803D01*
X162634605Y-74160531D01*
X162374263Y-74021375D01*
X162091776Y-73935684D01*
X161798000Y-73906749D01*
X161504223Y-73935684D01*
X161221736Y-74021375D01*
X160961394Y-74160531D01*
X160733203Y-74347803D01*
X160545931Y-74575995D01*
X160528000Y-74609541D01*
X160510069Y-74575994D01*
X160322797Y-74347803D01*
X160094605Y-74160531D01*
X159834263Y-74021375D01*
X159551776Y-73935684D01*
X159258000Y-73906749D01*
X158964223Y-73935684D01*
X158681736Y-74021375D01*
X158421394Y-74160531D01*
X158193203Y-74347803D01*
X158005931Y-74575995D01*
X157988000Y-74609541D01*
X157970069Y-74575994D01*
X157782797Y-74347803D01*
X157554605Y-74160531D01*
X157294263Y-74021375D01*
X157011776Y-73935684D01*
X156718000Y-73906749D01*
X156424223Y-73935684D01*
X156141736Y-74021375D01*
X155881394Y-74160531D01*
X155653203Y-74347803D01*
X155465931Y-74575995D01*
X155326775Y-74836337D01*
X155241084Y-75118824D01*
X155219400Y-75338982D01*
X155219400Y-75791019D01*
X155241084Y-76011177D01*
X155326775Y-76293664D01*
X155465931Y-76554006D01*
X155653203Y-76782197D01*
X155881395Y-76969469D01*
X156141737Y-77108625D01*
X156424224Y-77194316D01*
X156718000Y-77223251D01*
X157011777Y-77194316D01*
X157294264Y-77108625D01*
X157554606Y-76969469D01*
X157782797Y-76782197D01*
X157970069Y-76554006D01*
X157988000Y-76520459D01*
X158005931Y-76554006D01*
X158193203Y-76782197D01*
X158421395Y-76969469D01*
X158681737Y-77108625D01*
X158964224Y-77194316D01*
X159258000Y-77223251D01*
X159551777Y-77194316D01*
X159834264Y-77108625D01*
X160094606Y-76969469D01*
X160322797Y-76782197D01*
X160510069Y-76554006D01*
X160528000Y-76520459D01*
X160545931Y-76554006D01*
X160733203Y-76782197D01*
X160961395Y-76969469D01*
X161221737Y-77108625D01*
X161413819Y-77166892D01*
X158870711Y-79710000D01*
X154893932Y-79710000D01*
X154848000Y-79705476D01*
X154802068Y-79710000D01*
X154664708Y-79723529D01*
X154488460Y-79776993D01*
X154326028Y-79863814D01*
X154183656Y-79980656D01*
X154154370Y-80016341D01*
X151644336Y-82526375D01*
X151608657Y-82555656D01*
X151491815Y-82698028D01*
X151427171Y-82818969D01*
X151404994Y-82860460D01*
X151351529Y-83036709D01*
X151333476Y-83220000D01*
X151338001Y-83265942D01*
X151338001Y-83472227D01*
X151111286Y-83658286D01*
X151003000Y-83790234D01*
X150894714Y-83658286D01*
X150645751Y-83453969D01*
X150361714Y-83302148D01*
X150053515Y-83208657D01*
X149733000Y-83177089D01*
X149412484Y-83208657D01*
X149104285Y-83302148D01*
X148820248Y-83453969D01*
X148571286Y-83658286D01*
X148464716Y-83788143D01*
X148259317Y-83574078D01*
X147995761Y-83389990D01*
X147701355Y-83260856D01*
X147573434Y-83229876D01*
X147320000Y-83349223D01*
X147320000Y-84963000D01*
X147340000Y-84963000D01*
X147340000Y-85217000D01*
X147320000Y-85217000D01*
X147320000Y-85237000D01*
X147066000Y-85237000D01*
X147066000Y-85217000D01*
X145558000Y-85217000D01*
X145558000Y-85487000D01*
X145614193Y-85803532D01*
X145731058Y-86103020D01*
X145904105Y-86373954D01*
X146126683Y-86605922D01*
X146390239Y-86790010D01*
X146684645Y-86919144D01*
X146812566Y-86950124D01*
X146838307Y-86938002D01*
X140766309Y-93010000D01*
X139175289Y-93010000D01*
X135746630Y-89581341D01*
X135717344Y-89545656D01*
X135574972Y-89428814D01*
X135412540Y-89341993D01*
X135236292Y-89288529D01*
X135098932Y-89275000D01*
X135053000Y-89270476D01*
X135007068Y-89275000D01*
X130119651Y-89275000D01*
X130047987Y-89167748D01*
X129820252Y-88940013D01*
X129713000Y-88868349D01*
X129713000Y-86072773D01*
X129939714Y-85886714D01*
X130046284Y-85756858D01*
X130251683Y-85970922D01*
X130515239Y-86155010D01*
X130809645Y-86284144D01*
X130937566Y-86315124D01*
X131191000Y-86195777D01*
X131191000Y-84582000D01*
X131171000Y-84582000D01*
X131171000Y-84328000D01*
X131191000Y-84328000D01*
X131191000Y-84308000D01*
X131445000Y-84308000D01*
X131445000Y-84328000D01*
X131465000Y-84328000D01*
X131465000Y-84582000D01*
X131445000Y-84582000D01*
X131445000Y-86195777D01*
X131698434Y-86315124D01*
X131826355Y-86284144D01*
X132120761Y-86155010D01*
X132384317Y-85970922D01*
X132589716Y-85756858D01*
X132696286Y-85886714D01*
X132945249Y-86091031D01*
X133229286Y-86242852D01*
X133537485Y-86336343D01*
X133858000Y-86367911D01*
X134178516Y-86336343D01*
X134486715Y-86242852D01*
X134770752Y-86091031D01*
X135019714Y-85886714D01*
X135128000Y-85754767D01*
X135236286Y-85886714D01*
X135485249Y-86091031D01*
X135769286Y-86242852D01*
X136077485Y-86336343D01*
X136398000Y-86367911D01*
X136718516Y-86336343D01*
X137026715Y-86242852D01*
X137310752Y-86091031D01*
X137559714Y-85886714D01*
X137764031Y-85637752D01*
X137915852Y-85353715D01*
X138009343Y-85045515D01*
X138033000Y-84805321D01*
X138033000Y-84693000D01*
X145558000Y-84693000D01*
X145558000Y-84963000D01*
X147066000Y-84963000D01*
X147066000Y-83349223D01*
X146812566Y-83229876D01*
X146684645Y-83260856D01*
X146390239Y-83389990D01*
X146126683Y-83574078D01*
X145904105Y-83806046D01*
X145731058Y-84076980D01*
X145614193Y-84376468D01*
X145558000Y-84693000D01*
X138033000Y-84693000D01*
X138033000Y-84142289D01*
X138855300Y-83319990D01*
X145788078Y-83319990D01*
X145834010Y-83324514D01*
X145879942Y-83319990D01*
X146017302Y-83306461D01*
X146193550Y-83252997D01*
X146355982Y-83166176D01*
X146498354Y-83049334D01*
X146527640Y-83013649D01*
X152350058Y-77191232D01*
X152360224Y-77194316D01*
X152654000Y-77223251D01*
X152947777Y-77194316D01*
X153230264Y-77108625D01*
X153490606Y-76969469D01*
X153718797Y-76782197D01*
X153906069Y-76554006D01*
X154045225Y-76293663D01*
X154130916Y-76011176D01*
X154152600Y-75791018D01*
X154152600Y-75338981D01*
X154130916Y-75118823D01*
X154045225Y-74836336D01*
X153906069Y-74575994D01*
X153718797Y-74347803D01*
X153490605Y-74160531D01*
X153230263Y-74021375D01*
X152947776Y-73935684D01*
X152654000Y-73906749D01*
X152360223Y-73935684D01*
X152077736Y-74021375D01*
X151817394Y-74160531D01*
X151589203Y-74347803D01*
X151401931Y-74575995D01*
X151384000Y-74609541D01*
X151366069Y-74575994D01*
X151178797Y-74347803D01*
X150950605Y-74160531D01*
X150690263Y-74021375D01*
X150407776Y-73935684D01*
X150114000Y-73906749D01*
X149820223Y-73935684D01*
X149537736Y-74021375D01*
X149277394Y-74160531D01*
X149049203Y-74347803D01*
X148861931Y-74575995D01*
X148844000Y-74609541D01*
X148826069Y-74575994D01*
X148638797Y-74347803D01*
X148410605Y-74160531D01*
X148150263Y-74021375D01*
X147867776Y-73935684D01*
X147574000Y-73906749D01*
X147280223Y-73935684D01*
X146997736Y-74021375D01*
X146737394Y-74160531D01*
X146509203Y-74347803D01*
X146321931Y-74575995D01*
X146304000Y-74609541D01*
X146286069Y-74575994D01*
X146098797Y-74347803D01*
X145870605Y-74160531D01*
X145610263Y-74021375D01*
X145327776Y-73935684D01*
X145034000Y-73906749D01*
X144740223Y-73935684D01*
X144457736Y-74021375D01*
X144197394Y-74160531D01*
X143969203Y-74347803D01*
X143781931Y-74575995D01*
X143764000Y-74609541D01*
X143746069Y-74575994D01*
X143558797Y-74347803D01*
X143330605Y-74160531D01*
X143070263Y-74021375D01*
X142787776Y-73935684D01*
X142494000Y-73906749D01*
X142200223Y-73935684D01*
X141917736Y-74021375D01*
X141657394Y-74160531D01*
X141429203Y-74347803D01*
X141241931Y-74575995D01*
X141224000Y-74609541D01*
X141206069Y-74575994D01*
X141018797Y-74347803D01*
X140790605Y-74160531D01*
X140530263Y-74021375D01*
X140247776Y-73935684D01*
X139954000Y-73906749D01*
X139660223Y-73935684D01*
X139377736Y-74021375D01*
X139117394Y-74160531D01*
X138889203Y-74347803D01*
X138701931Y-74575995D01*
X138680576Y-74615947D01*
X138532486Y-74413271D01*
X138316035Y-74214267D01*
X138064919Y-74061314D01*
X137788789Y-73960291D01*
X137773026Y-73957642D01*
X137541000Y-74078783D01*
X137541000Y-75438000D01*
X137561000Y-75438000D01*
X137561000Y-75692000D01*
X137541000Y-75692000D01*
X137541000Y-75712000D01*
X137287000Y-75712000D01*
X137287000Y-75692000D01*
X137267000Y-75692000D01*
X137267000Y-75438000D01*
X137287000Y-75438000D01*
X137287000Y-74078783D01*
X137054974Y-73957642D01*
X137039211Y-73960291D01*
X136763081Y-74061314D01*
X136511965Y-74214267D01*
X136295514Y-74413271D01*
X136147424Y-74615947D01*
X136126069Y-74575994D01*
X135938797Y-74347803D01*
X135710605Y-74160531D01*
X135450263Y-74021375D01*
X135167776Y-73935684D01*
X134874000Y-73906749D01*
X134580223Y-73935684D01*
X134297736Y-74021375D01*
X134037394Y-74160531D01*
X133809203Y-74347803D01*
X133621931Y-74575995D01*
X133604000Y-74609541D01*
X133586069Y-74575994D01*
X133398797Y-74347803D01*
X133170605Y-74160531D01*
X132910263Y-74021375D01*
X132627776Y-73935684D01*
X132334000Y-73906749D01*
X132040223Y-73935684D01*
X131757736Y-74021375D01*
X131497394Y-74160531D01*
X131269203Y-74347803D01*
X131081931Y-74575995D01*
X131064000Y-74609541D01*
X131046069Y-74575994D01*
X130858797Y-74347803D01*
X130630605Y-74160531D01*
X130370263Y-74021375D01*
X130087776Y-73935684D01*
X129794000Y-73906749D01*
X129500223Y-73935684D01*
X129217736Y-74021375D01*
X128957394Y-74160531D01*
X128729203Y-74347803D01*
X128657001Y-74435781D01*
X128601464Y-74301702D01*
X128309594Y-73864887D01*
X128179707Y-73735000D01*
X175219909Y-73735000D01*
X176328001Y-74843093D01*
%TA.AperFunction,Conductor*%
D24*
G36*
X176328001Y-74843093D02*
G01*
X176328000Y-85944125D01*
X176324565Y-85979000D01*
X176328000Y-86013875D01*
X176328000Y-86013876D01*
X176338273Y-86118183D01*
X176378872Y-86252019D01*
X176444800Y-86375362D01*
X176533525Y-86483474D01*
X176560617Y-86505708D01*
X178868001Y-88813093D01*
X178868001Y-88863294D01*
X178738113Y-88733406D01*
X178301298Y-88441536D01*
X177815935Y-88240492D01*
X177300677Y-88138000D01*
X176775323Y-88138000D01*
X176260065Y-88240492D01*
X175774702Y-88441536D01*
X175337887Y-88733406D01*
X174966406Y-89104887D01*
X174674536Y-89541702D01*
X174473492Y-90027065D01*
X174371000Y-90542323D01*
X174371000Y-91067677D01*
X174473492Y-91582935D01*
X174674536Y-92068298D01*
X174966406Y-92505113D01*
X175337887Y-92876594D01*
X175774702Y-93168464D01*
X176260065Y-93369508D01*
X176775323Y-93472000D01*
X177300677Y-93472000D01*
X177815935Y-93369508D01*
X178301298Y-93168464D01*
X178738113Y-92876594D01*
X178868001Y-92746706D01*
X178868000Y-116803293D01*
X178738113Y-116673406D01*
X178301298Y-116381536D01*
X177815935Y-116180492D01*
X177300677Y-116078000D01*
X176835927Y-116078000D01*
X177831670Y-115082257D01*
X177867354Y-115052972D01*
X177984196Y-114910600D01*
X178046699Y-114793665D01*
X178071017Y-114748169D01*
X178124482Y-114571920D01*
X178142534Y-114388628D01*
X178138010Y-114342693D01*
X178138010Y-109790347D01*
X178142534Y-109744412D01*
X178124482Y-109561120D01*
X178091685Y-109453006D01*
X178071017Y-109384872D01*
X177984196Y-109222440D01*
X177867354Y-109080068D01*
X177831669Y-109050782D01*
X177017666Y-108236779D01*
X177045911Y-107950000D01*
X177014343Y-107629484D01*
X176920852Y-107321285D01*
X176769031Y-107037248D01*
X176564714Y-106788286D01*
X176432767Y-106680000D01*
X176564714Y-106571714D01*
X176769031Y-106322752D01*
X176920852Y-106038715D01*
X177014343Y-105730516D01*
X177045911Y-105410000D01*
X177014343Y-105089484D01*
X176920852Y-104781285D01*
X176769031Y-104497248D01*
X176564714Y-104248286D01*
X176434858Y-104141716D01*
X176648922Y-103936317D01*
X176833010Y-103672761D01*
X176962144Y-103378355D01*
X176993124Y-103250434D01*
X176873777Y-102997000D01*
X175260000Y-102997000D01*
X175260000Y-103017000D01*
X175006000Y-103017000D01*
X175006000Y-102997000D01*
X173392223Y-102997000D01*
X173272876Y-103250434D01*
X173303856Y-103378355D01*
X173432990Y-103672761D01*
X173617078Y-103936317D01*
X173831142Y-104141716D01*
X173701286Y-104248286D01*
X173518544Y-104470958D01*
X173513648Y-104470476D01*
X173330356Y-104488529D01*
X173306348Y-104495812D01*
X173154109Y-104541993D01*
X172991677Y-104628814D01*
X172849305Y-104745656D01*
X172820024Y-104781335D01*
X167662163Y-109939196D01*
X167662157Y-109939201D01*
X166141359Y-111460000D01*
X154818932Y-111460000D01*
X154773000Y-111455476D01*
X154727068Y-111460000D01*
X154589708Y-111473529D01*
X154413460Y-111526993D01*
X154251028Y-111613814D01*
X154108656Y-111730656D01*
X154079370Y-111766341D01*
X150513441Y-115332270D01*
X150496787Y-115219870D01*
X150401603Y-114953708D01*
X150334671Y-114828486D01*
X150090702Y-114756903D01*
X149277605Y-115570000D01*
X149291748Y-115584143D01*
X149112143Y-115763748D01*
X149098000Y-115749605D01*
X149083858Y-115763748D01*
X148904253Y-115584143D01*
X148918395Y-115570000D01*
X148105298Y-114756903D01*
X147861329Y-114828486D01*
X147740429Y-115083996D01*
X147671700Y-115358184D01*
X147657783Y-115640512D01*
X147699213Y-115920130D01*
X147794397Y-116186292D01*
X147861329Y-116311514D01*
X148052158Y-116367505D01*
X147938461Y-116401995D01*
X147776030Y-116488816D01*
X147633658Y-116605658D01*
X147516816Y-116748030D01*
X147429995Y-116910461D01*
X147376530Y-117086710D01*
X147371774Y-117135000D01*
X139429136Y-117135000D01*
X139518010Y-117007761D01*
X139647144Y-116713355D01*
X139678124Y-116585434D01*
X139558777Y-116332000D01*
X137945000Y-116332000D01*
X137945000Y-116352000D01*
X137691000Y-116352000D01*
X137691000Y-116332000D01*
X137671000Y-116332000D01*
X137671000Y-116078000D01*
X137691000Y-116078000D01*
X137691000Y-113792000D01*
X137945000Y-113792000D01*
X137945000Y-116078000D01*
X139558777Y-116078000D01*
X139678124Y-115824566D01*
X139647144Y-115696645D01*
X139518010Y-115402239D01*
X139333922Y-115138683D01*
X139121646Y-114935000D01*
X139333922Y-114731317D01*
X139441500Y-114577298D01*
X148284903Y-114577298D01*
X149098000Y-115390395D01*
X149911097Y-114577298D01*
X149839514Y-114333329D01*
X149584004Y-114212429D01*
X149309816Y-114143700D01*
X149027488Y-114129783D01*
X148747870Y-114171213D01*
X148481708Y-114266397D01*
X148356486Y-114333329D01*
X148284903Y-114577298D01*
X139441500Y-114577298D01*
X139518010Y-114467761D01*
X139647144Y-114173355D01*
X139678124Y-114045434D01*
X139558777Y-113792000D01*
X137945000Y-113792000D01*
X137691000Y-113792000D01*
X136077223Y-113792000D01*
X135957876Y-114045434D01*
X135988856Y-114173355D01*
X136117990Y-114467761D01*
X136302078Y-114731317D01*
X136514354Y-114935000D01*
X136302078Y-115138683D01*
X136117990Y-115402239D01*
X135988856Y-115696645D01*
X135957876Y-115824566D01*
X135969997Y-115850306D01*
X134793000Y-114673309D01*
X134793000Y-111062289D01*
X136261107Y-109594183D01*
X136386286Y-109746714D01*
X136518233Y-109855000D01*
X136386286Y-109963286D01*
X136181969Y-110212248D01*
X136030148Y-110496285D01*
X135936657Y-110804484D01*
X135905089Y-111125000D01*
X135936657Y-111445516D01*
X136030148Y-111753715D01*
X136181969Y-112037752D01*
X136386286Y-112286714D01*
X136516142Y-112393284D01*
X136302078Y-112598683D01*
X136117990Y-112862239D01*
X135988856Y-113156645D01*
X135957876Y-113284566D01*
X136077223Y-113538000D01*
X137691000Y-113538000D01*
X137691000Y-113518000D01*
X137945000Y-113518000D01*
X137945000Y-113538000D01*
X139558777Y-113538000D01*
X139678124Y-113284566D01*
X139647144Y-113156645D01*
X139518010Y-112862239D01*
X139333922Y-112598683D01*
X139119858Y-112393284D01*
X139249714Y-112286714D01*
X139435773Y-112060000D01*
X148417068Y-112060000D01*
X148463000Y-112064524D01*
X148508932Y-112060000D01*
X148646292Y-112046471D01*
X148822540Y-111993007D01*
X148984972Y-111906186D01*
X149127344Y-111789344D01*
X149156630Y-111753659D01*
X151696623Y-109213667D01*
X151696628Y-109213661D01*
X159886659Y-101023630D01*
X159922344Y-100994344D01*
X159951630Y-100958659D01*
X160415289Y-100495000D01*
X160669335Y-100495000D01*
X160946574Y-100439853D01*
X161207727Y-100331680D01*
X161442759Y-100174637D01*
X161642637Y-99974759D01*
X161799680Y-99739727D01*
X161907853Y-99478574D01*
X161963000Y-99201335D01*
X161963000Y-98947289D01*
X163761623Y-97148667D01*
X163761628Y-97148661D01*
X165601659Y-95308630D01*
X165637344Y-95279344D01*
X165754186Y-95136972D01*
X165841007Y-94974540D01*
X165894471Y-94798292D01*
X165908000Y-94660932D01*
X165912524Y-94615000D01*
X165908000Y-94569068D01*
X165908000Y-89279396D01*
X166087637Y-89099759D01*
X166244680Y-88864727D01*
X166352853Y-88603574D01*
X166408000Y-88326335D01*
X166408000Y-88043665D01*
X166352853Y-87766426D01*
X166244680Y-87505273D01*
X166087637Y-87270241D01*
X165887759Y-87070363D01*
X165652727Y-86913320D01*
X165391574Y-86805147D01*
X165114335Y-86750000D01*
X164831665Y-86750000D01*
X164554426Y-86805147D01*
X164293273Y-86913320D01*
X164058241Y-87070363D01*
X163858363Y-87270241D01*
X163701320Y-87505273D01*
X163593147Y-87766426D01*
X163538000Y-88043665D01*
X163538000Y-88326335D01*
X163593147Y-88603574D01*
X163701320Y-88864727D01*
X163858363Y-89099759D01*
X164038000Y-89279396D01*
X164038001Y-94227710D01*
X162439339Y-95826372D01*
X162439333Y-95826377D01*
X160640711Y-97625000D01*
X160386665Y-97625000D01*
X160109426Y-97680147D01*
X159848273Y-97788320D01*
X159613241Y-97945363D01*
X159413363Y-98145241D01*
X159256320Y-98380273D01*
X159148147Y-98641426D01*
X159093000Y-98918665D01*
X159093000Y-99172711D01*
X158870711Y-99395000D01*
X152747773Y-99395000D01*
X152561714Y-99168286D01*
X152429767Y-99060000D01*
X152561714Y-98951714D01*
X152747773Y-98725000D01*
X155402068Y-98725000D01*
X155448000Y-98729524D01*
X155493932Y-98725000D01*
X155631292Y-98711471D01*
X155807540Y-98658007D01*
X155969972Y-98571186D01*
X156112344Y-98454344D01*
X156141630Y-98418659D01*
X160415289Y-94145000D01*
X160669335Y-94145000D01*
X160946574Y-94089853D01*
X161207727Y-93981680D01*
X161442759Y-93824637D01*
X161642637Y-93624759D01*
X161799680Y-93389727D01*
X161907853Y-93128574D01*
X161963000Y-92851335D01*
X161963000Y-92568665D01*
X161907853Y-92291426D01*
X161799680Y-92030273D01*
X161642637Y-91795241D01*
X161442759Y-91595363D01*
X161207727Y-91438320D01*
X160946574Y-91330147D01*
X160669335Y-91275000D01*
X160386665Y-91275000D01*
X160109426Y-91330147D01*
X159848273Y-91438320D01*
X159613241Y-91595363D01*
X159413363Y-91795241D01*
X159256320Y-92030273D01*
X159148147Y-92291426D01*
X159093000Y-92568665D01*
X159093000Y-92822711D01*
X155060711Y-96855000D01*
X152747773Y-96855000D01*
X152561714Y-96628286D01*
X152431858Y-96521716D01*
X152645922Y-96316317D01*
X152830010Y-96052761D01*
X152959144Y-95758355D01*
X152990124Y-95630434D01*
X152870777Y-95377000D01*
X151257000Y-95377000D01*
X151257000Y-95397000D01*
X151003000Y-95397000D01*
X151003000Y-95377000D01*
X149389223Y-95377000D01*
X149269876Y-95630434D01*
X149300856Y-95758355D01*
X149429990Y-96052761D01*
X149614078Y-96316317D01*
X149828142Y-96521716D01*
X149698286Y-96628286D01*
X149493969Y-96877248D01*
X149342148Y-97161285D01*
X149248657Y-97469484D01*
X149217089Y-97790000D01*
X149245334Y-98076779D01*
X145929336Y-101392777D01*
X145893657Y-101422058D01*
X145776815Y-101564430D01*
X145744002Y-101625820D01*
X145689994Y-101726862D01*
X145636529Y-101903111D01*
X145618476Y-102086402D01*
X145623001Y-102132344D01*
X145623000Y-104950604D01*
X145463604Y-105110000D01*
X140595290Y-105110000D01*
X139873000Y-104387711D01*
X139873000Y-102694396D01*
X140052637Y-102514759D01*
X140209680Y-102279727D01*
X140317853Y-102018574D01*
X140373000Y-101741335D01*
X140373000Y-101458665D01*
X140317853Y-101181426D01*
X140209680Y-100920273D01*
X140052637Y-100685241D01*
X139852759Y-100485363D01*
X139617727Y-100328320D01*
X139356574Y-100220147D01*
X139079335Y-100165000D01*
X138796665Y-100165000D01*
X138519426Y-100220147D01*
X138258273Y-100328320D01*
X138023241Y-100485363D01*
X137823363Y-100685241D01*
X137666320Y-100920273D01*
X137558147Y-101181426D01*
X137503000Y-101458665D01*
X137503000Y-101741335D01*
X137558147Y-102018574D01*
X137666320Y-102279727D01*
X137823363Y-102514759D01*
X138003000Y-102694396D01*
X138003001Y-104729058D01*
X137998476Y-104775000D01*
X138016529Y-104958291D01*
X138062550Y-105110000D01*
X138069994Y-105134540D01*
X138156815Y-105296972D01*
X138273657Y-105439344D01*
X138309336Y-105468625D01*
X139514374Y-106673664D01*
X139543656Y-106709344D01*
X139686028Y-106826186D01*
X139848460Y-106913007D01*
X139960283Y-106946928D01*
X140024707Y-106966471D01*
X140207999Y-106984524D01*
X140253931Y-106980000D01*
X145463604Y-106980000D01*
X145643241Y-107159637D01*
X145878273Y-107316680D01*
X146139426Y-107424853D01*
X146416665Y-107480000D01*
X146699335Y-107480000D01*
X146976574Y-107424853D01*
X147237727Y-107316680D01*
X147472759Y-107159637D01*
X147594694Y-107037702D01*
X148244903Y-107037702D01*
X148316486Y-107281671D01*
X148571996Y-107402571D01*
X148846184Y-107471300D01*
X149128512Y-107485217D01*
X149408130Y-107443787D01*
X149674292Y-107348603D01*
X149799514Y-107281671D01*
X149871097Y-107037702D01*
X149058000Y-106224605D01*
X148244903Y-107037702D01*
X147594694Y-107037702D01*
X147672637Y-106959759D01*
X147806692Y-106759131D01*
X147821329Y-106786514D01*
X148065298Y-106858097D01*
X148878395Y-106045000D01*
X149237605Y-106045000D01*
X150050702Y-106858097D01*
X150294671Y-106786514D01*
X150415571Y-106531004D01*
X150484300Y-106256816D01*
X150498217Y-105974488D01*
X150456787Y-105694870D01*
X150361603Y-105428708D01*
X150294671Y-105303486D01*
X150050702Y-105231903D01*
X149237605Y-106045000D01*
X148878395Y-106045000D01*
X148065298Y-105231903D01*
X147821329Y-105303486D01*
X147807676Y-105332341D01*
X147672637Y-105130241D01*
X147594694Y-105052298D01*
X148244903Y-105052298D01*
X149058000Y-105865395D01*
X149871097Y-105052298D01*
X149799514Y-104808329D01*
X149544004Y-104687429D01*
X149269816Y-104618700D01*
X148987488Y-104604783D01*
X148707870Y-104646213D01*
X148441708Y-104741397D01*
X148316486Y-104808329D01*
X148244903Y-105052298D01*
X147594694Y-105052298D01*
X147493000Y-104950604D01*
X147493000Y-102473691D01*
X149264371Y-100702320D01*
X149342148Y-100958715D01*
X149493969Y-101242752D01*
X149552655Y-101314261D01*
X149505506Y-101339463D01*
X149408815Y-101418815D01*
X149329463Y-101515506D01*
X149270498Y-101625820D01*
X149234188Y-101745518D01*
X149221928Y-101870000D01*
X149221928Y-103870000D01*
X149234188Y-103994482D01*
X149270498Y-104114180D01*
X149329463Y-104224494D01*
X149408815Y-104321185D01*
X149505506Y-104400537D01*
X149615820Y-104459502D01*
X149735518Y-104495812D01*
X149860000Y-104508072D01*
X152400000Y-104508072D01*
X152524482Y-104495812D01*
X152644180Y-104459502D01*
X152754494Y-104400537D01*
X152851185Y-104321185D01*
X152930537Y-104224494D01*
X152989502Y-104114180D01*
X153025812Y-103994482D01*
X153038072Y-103870000D01*
X153038072Y-101870000D01*
X153025812Y-101745518D01*
X152989502Y-101625820D01*
X152930537Y-101515506D01*
X152851185Y-101418815D01*
X152754494Y-101339463D01*
X152707345Y-101314261D01*
X152747773Y-101265000D01*
X157000711Y-101265000D01*
X150374339Y-107891372D01*
X150374333Y-107891377D01*
X148075711Y-110190000D01*
X139435773Y-110190000D01*
X139249714Y-109963286D01*
X139117767Y-109855000D01*
X139249714Y-109746714D01*
X139454031Y-109497752D01*
X139605852Y-109213715D01*
X139699343Y-108905516D01*
X139730911Y-108585000D01*
X139699343Y-108264484D01*
X139605852Y-107956285D01*
X139454031Y-107672248D01*
X139249714Y-107423286D01*
X139000752Y-107218969D01*
X138716715Y-107067148D01*
X138408516Y-106973657D01*
X138168322Y-106950000D01*
X137467678Y-106950000D01*
X137227484Y-106973657D01*
X136919285Y-107067148D01*
X136883000Y-107086543D01*
X136883000Y-97425931D01*
X136887524Y-97379999D01*
X136869471Y-97196707D01*
X136830630Y-97068666D01*
X136816007Y-97020460D01*
X136729186Y-96858028D01*
X136612344Y-96715656D01*
X136576664Y-96686374D01*
X131035290Y-91145000D01*
X134665711Y-91145000D01*
X138003001Y-94482290D01*
X138003000Y-97744068D01*
X137998476Y-97790000D01*
X138003000Y-97835931D01*
X138016529Y-97973291D01*
X138069993Y-98149539D01*
X138156814Y-98311971D01*
X138273656Y-98454344D01*
X138309341Y-98483630D01*
X140784374Y-100958664D01*
X140813656Y-100994344D01*
X140956028Y-101111186D01*
X141118460Y-101198007D01*
X141230283Y-101231928D01*
X141294707Y-101251471D01*
X141313110Y-101253283D01*
X141432068Y-101265000D01*
X141432074Y-101265000D01*
X141477999Y-101269523D01*
X141523924Y-101265000D01*
X141638227Y-101265000D01*
X141824286Y-101491714D01*
X141956233Y-101600000D01*
X141824286Y-101708286D01*
X141619969Y-101957248D01*
X141468148Y-102241285D01*
X141374657Y-102549484D01*
X141343089Y-102870000D01*
X141374657Y-103190516D01*
X141468148Y-103498715D01*
X141619969Y-103782752D01*
X141824286Y-104031714D01*
X142073248Y-104236031D01*
X142357285Y-104387852D01*
X142665484Y-104481343D01*
X142905678Y-104505000D01*
X143606322Y-104505000D01*
X143846516Y-104481343D01*
X144154715Y-104387852D01*
X144438752Y-104236031D01*
X144687714Y-104031714D01*
X144892031Y-103782752D01*
X145043852Y-103498715D01*
X145137343Y-103190516D01*
X145168911Y-102870000D01*
X145137343Y-102549484D01*
X145043852Y-102241285D01*
X144892031Y-101957248D01*
X144687714Y-101708286D01*
X144555767Y-101600000D01*
X144687714Y-101491714D01*
X144892031Y-101242752D01*
X145043852Y-100958715D01*
X145137343Y-100650516D01*
X145168911Y-100330000D01*
X145137343Y-100009484D01*
X145043852Y-99701285D01*
X144892031Y-99417248D01*
X144687714Y-99168286D01*
X144555767Y-99060000D01*
X144687714Y-98951714D01*
X144873773Y-98725000D01*
X145728470Y-98725000D01*
X145774402Y-98729524D01*
X145820334Y-98725000D01*
X145957694Y-98711471D01*
X146133942Y-98658007D01*
X146296374Y-98571186D01*
X146438746Y-98454344D01*
X146468032Y-98418659D01*
X148456666Y-96430026D01*
X148492344Y-96400746D01*
X148609186Y-96258374D01*
X148696007Y-96095942D01*
X148749471Y-95919694D01*
X148763000Y-95782334D01*
X148763000Y-95782333D01*
X148767524Y-95736403D01*
X148763000Y-95690471D01*
X148763000Y-94869566D01*
X149269876Y-94869566D01*
X149389223Y-95123000D01*
X151003000Y-95123000D01*
X151003000Y-93615000D01*
X151257000Y-93615000D01*
X151257000Y-95123000D01*
X152870777Y-95123000D01*
X152990124Y-94869566D01*
X152959144Y-94741645D01*
X152830010Y-94447239D01*
X152645922Y-94183683D01*
X152413954Y-93961105D01*
X152143020Y-93788058D01*
X151843532Y-93671193D01*
X151527000Y-93615000D01*
X151257000Y-93615000D01*
X151003000Y-93615000D01*
X150733000Y-93615000D01*
X150416468Y-93671193D01*
X150116980Y-93788058D01*
X149846046Y-93961105D01*
X149614078Y-94183683D01*
X149429990Y-94447239D01*
X149300856Y-94741645D01*
X149269876Y-94869566D01*
X148763000Y-94869566D01*
X148763000Y-93097289D01*
X150120289Y-91740000D01*
X157307068Y-91740000D01*
X157353000Y-91744524D01*
X157398932Y-91740000D01*
X157536292Y-91726471D01*
X157712540Y-91673007D01*
X157874972Y-91586186D01*
X158017344Y-91469344D01*
X158046630Y-91433659D01*
X164860290Y-84620000D01*
X165085711Y-84620000D01*
X167213000Y-86747290D01*
X167213001Y-96474058D01*
X167208476Y-96520000D01*
X167226529Y-96703291D01*
X167272550Y-96855000D01*
X167279994Y-96879540D01*
X167366815Y-97041972D01*
X167483657Y-97184344D01*
X167519336Y-97213625D01*
X169253000Y-98947290D01*
X169253000Y-99201335D01*
X169308147Y-99478574D01*
X169416320Y-99739727D01*
X169573363Y-99974759D01*
X169753001Y-100154397D01*
X169753000Y-103432713D01*
X166805713Y-106380000D01*
X165925975Y-106380000D01*
X165824013Y-106278038D01*
X165605359Y-106131939D01*
X165362405Y-106031304D01*
X165104486Y-105980000D01*
X164841514Y-105980000D01*
X164583595Y-106031304D01*
X164340641Y-106131939D01*
X164121987Y-106278038D01*
X163936038Y-106463987D01*
X163789939Y-106682641D01*
X163689304Y-106925595D01*
X163638000Y-107183514D01*
X163638000Y-107446486D01*
X163689304Y-107704405D01*
X163789939Y-107947359D01*
X163936038Y-108166013D01*
X164121987Y-108351962D01*
X164340641Y-108498061D01*
X164583595Y-108598696D01*
X164841514Y-108650000D01*
X165104486Y-108650000D01*
X165362405Y-108598696D01*
X165605359Y-108498061D01*
X165824013Y-108351962D01*
X165925975Y-108250000D01*
X167147070Y-108250000D01*
X167193002Y-108254524D01*
X167238934Y-108250000D01*
X167376294Y-108236471D01*
X167552542Y-108183007D01*
X167714974Y-108096186D01*
X167857346Y-107979344D01*
X167886632Y-107943659D01*
X171316660Y-104513631D01*
X171352344Y-104484346D01*
X171469186Y-104341974D01*
X171531980Y-104224494D01*
X171556007Y-104179543D01*
X171609472Y-104003294D01*
X171627524Y-103820002D01*
X171623000Y-103774067D01*
X171623000Y-102489566D01*
X173272876Y-102489566D01*
X173392223Y-102743000D01*
X175006000Y-102743000D01*
X175006000Y-101235000D01*
X175260000Y-101235000D01*
X175260000Y-102743000D01*
X176873777Y-102743000D01*
X176993124Y-102489566D01*
X176962144Y-102361645D01*
X176833010Y-102067239D01*
X176648922Y-101803683D01*
X176416954Y-101581105D01*
X176146020Y-101408058D01*
X175846532Y-101291193D01*
X175530000Y-101235000D01*
X175260000Y-101235000D01*
X175006000Y-101235000D01*
X174736000Y-101235000D01*
X174419468Y-101291193D01*
X174119980Y-101408058D01*
X173849046Y-101581105D01*
X173617078Y-101803683D01*
X173432990Y-102067239D01*
X173303856Y-102361645D01*
X173272876Y-102489566D01*
X171623000Y-102489566D01*
X171623000Y-100154396D01*
X171802637Y-99974759D01*
X171959680Y-99739727D01*
X172067853Y-99478574D01*
X172123000Y-99201335D01*
X172123000Y-98918665D01*
X172067853Y-98641426D01*
X171959680Y-98380273D01*
X171802637Y-98145241D01*
X171602759Y-97945363D01*
X171367727Y-97788320D01*
X171106574Y-97680147D01*
X170829335Y-97625000D01*
X170575290Y-97625000D01*
X169083000Y-96132711D01*
X169083000Y-93702702D01*
X169874903Y-93702702D01*
X169946486Y-93946671D01*
X170201996Y-94067571D01*
X170476184Y-94136300D01*
X170758512Y-94150217D01*
X171038130Y-94108787D01*
X171304292Y-94013603D01*
X171429514Y-93946671D01*
X171501097Y-93702702D01*
X170688000Y-92889605D01*
X169874903Y-93702702D01*
X169083000Y-93702702D01*
X169083000Y-92780512D01*
X169247783Y-92780512D01*
X169289213Y-93060130D01*
X169384397Y-93326292D01*
X169451329Y-93451514D01*
X169695298Y-93523097D01*
X170508395Y-92710000D01*
X170867605Y-92710000D01*
X171680702Y-93523097D01*
X171924671Y-93451514D01*
X172045571Y-93196004D01*
X172114300Y-92921816D01*
X172128217Y-92639488D01*
X172086787Y-92359870D01*
X171991603Y-92093708D01*
X171924671Y-91968486D01*
X171680702Y-91896903D01*
X170867605Y-92710000D01*
X170508395Y-92710000D01*
X169695298Y-91896903D01*
X169451329Y-91968486D01*
X169330429Y-92223996D01*
X169261700Y-92498184D01*
X169247783Y-92780512D01*
X169083000Y-92780512D01*
X169083000Y-91717298D01*
X169874903Y-91717298D01*
X170688000Y-92530395D01*
X171501097Y-91717298D01*
X171429514Y-91473329D01*
X171174004Y-91352429D01*
X170899816Y-91283700D01*
X170617488Y-91269783D01*
X170337870Y-91311213D01*
X170071708Y-91406397D01*
X169946486Y-91473329D01*
X169874903Y-91717298D01*
X169083000Y-91717298D01*
X169083000Y-86405931D01*
X169087524Y-86359999D01*
X169069471Y-86176707D01*
X169023451Y-86025000D01*
X169016007Y-86000460D01*
X168929186Y-85838028D01*
X168812344Y-85695656D01*
X168776666Y-85666376D01*
X166408000Y-83297711D01*
X166408000Y-83043665D01*
X166352853Y-82766426D01*
X166244680Y-82505273D01*
X166087637Y-82270241D01*
X165887759Y-82070363D01*
X165652727Y-81913320D01*
X165391574Y-81805147D01*
X165114335Y-81750000D01*
X164831665Y-81750000D01*
X164554426Y-81805147D01*
X164402178Y-81868210D01*
X169087280Y-77183109D01*
X169124224Y-77194316D01*
X169418000Y-77223251D01*
X169711777Y-77194316D01*
X169994264Y-77108625D01*
X170254606Y-76969469D01*
X170482797Y-76782197D01*
X170670069Y-76554006D01*
X170688000Y-76520459D01*
X170705931Y-76554006D01*
X170893203Y-76782197D01*
X171121395Y-76969469D01*
X171381737Y-77108625D01*
X171664224Y-77194316D01*
X171958000Y-77223251D01*
X172251777Y-77194316D01*
X172534264Y-77108625D01*
X172794606Y-76969469D01*
X173022797Y-76782197D01*
X173210069Y-76554006D01*
X173228000Y-76520459D01*
X173245931Y-76554006D01*
X173433203Y-76782197D01*
X173661395Y-76969469D01*
X173921737Y-77108625D01*
X174204224Y-77194316D01*
X174498000Y-77223251D01*
X174791777Y-77194316D01*
X175074264Y-77108625D01*
X175334606Y-76969469D01*
X175562797Y-76782197D01*
X175750069Y-76554006D01*
X175889225Y-76293663D01*
X175974916Y-76011176D01*
X175996600Y-75791018D01*
X175996600Y-75338981D01*
X175974916Y-75118823D01*
X175889225Y-74836336D01*
X175750069Y-74575994D01*
X175562797Y-74347803D01*
X175334605Y-74160531D01*
X175074263Y-74021375D01*
X174791776Y-73935684D01*
X174498000Y-73906749D01*
X174204223Y-73935684D01*
X173921736Y-74021375D01*
X173661394Y-74160531D01*
X173433203Y-74347803D01*
X173245931Y-74575995D01*
X173228000Y-74609541D01*
X173210069Y-74575994D01*
X173022797Y-74347803D01*
X172794605Y-74160531D01*
X172534263Y-74021375D01*
X172251776Y-73935684D01*
X171958000Y-73906749D01*
X171664223Y-73935684D01*
X171381736Y-74021375D01*
X171121394Y-74160531D01*
X170893203Y-74347803D01*
X170705931Y-74575995D01*
X170688000Y-74609541D01*
X170670069Y-74575994D01*
X170482797Y-74347803D01*
X170254605Y-74160531D01*
X169994263Y-74021375D01*
X169711776Y-73935684D01*
X169418000Y-73906749D01*
X169124223Y-73935684D01*
X168841736Y-74021375D01*
X168581394Y-74160531D01*
X168353203Y-74347803D01*
X168165931Y-74575995D01*
X168148000Y-74609541D01*
X168130069Y-74575994D01*
X167942797Y-74347803D01*
X167714605Y-74160531D01*
X167454263Y-74021375D01*
X167171776Y-73935684D01*
X166878000Y-73906749D01*
X166584223Y-73935684D01*
X166301736Y-74021375D01*
X166041394Y-74160531D01*
X165813203Y-74347803D01*
X165625931Y-74575995D01*
X165608000Y-74609541D01*
X165590069Y-74575994D01*
X165402797Y-74347803D01*
X165174605Y-74160531D01*
X164914263Y-74021375D01*
X164631776Y-73935684D01*
X164338000Y-73906749D01*
X164044223Y-73935684D01*
X163761736Y-74021375D01*
X163501394Y-74160531D01*
X163273203Y-74347803D01*
X163085931Y-74575995D01*
X163068000Y-74609541D01*
X163050069Y-74575994D01*
X162862797Y-74347803D01*
X162634605Y-74160531D01*
X162374263Y-74021375D01*
X162091776Y-73935684D01*
X161798000Y-73906749D01*
X161504223Y-73935684D01*
X161221736Y-74021375D01*
X160961394Y-74160531D01*
X160733203Y-74347803D01*
X160545931Y-74575995D01*
X160528000Y-74609541D01*
X160510069Y-74575994D01*
X160322797Y-74347803D01*
X160094605Y-74160531D01*
X159834263Y-74021375D01*
X159551776Y-73935684D01*
X159258000Y-73906749D01*
X158964223Y-73935684D01*
X158681736Y-74021375D01*
X158421394Y-74160531D01*
X158193203Y-74347803D01*
X158005931Y-74575995D01*
X157988000Y-74609541D01*
X157970069Y-74575994D01*
X157782797Y-74347803D01*
X157554605Y-74160531D01*
X157294263Y-74021375D01*
X157011776Y-73935684D01*
X156718000Y-73906749D01*
X156424223Y-73935684D01*
X156141736Y-74021375D01*
X155881394Y-74160531D01*
X155653203Y-74347803D01*
X155465931Y-74575995D01*
X155326775Y-74836337D01*
X155241084Y-75118824D01*
X155219400Y-75338982D01*
X155219400Y-75791019D01*
X155241084Y-76011177D01*
X155326775Y-76293664D01*
X155465931Y-76554006D01*
X155653203Y-76782197D01*
X155881395Y-76969469D01*
X156141737Y-77108625D01*
X156424224Y-77194316D01*
X156718000Y-77223251D01*
X157011777Y-77194316D01*
X157294264Y-77108625D01*
X157554606Y-76969469D01*
X157782797Y-76782197D01*
X157970069Y-76554006D01*
X157988000Y-76520459D01*
X158005931Y-76554006D01*
X158193203Y-76782197D01*
X158421395Y-76969469D01*
X158681737Y-77108625D01*
X158964224Y-77194316D01*
X159258000Y-77223251D01*
X159551777Y-77194316D01*
X159834264Y-77108625D01*
X160094606Y-76969469D01*
X160322797Y-76782197D01*
X160510069Y-76554006D01*
X160528000Y-76520459D01*
X160545931Y-76554006D01*
X160733203Y-76782197D01*
X160961395Y-76969469D01*
X161221737Y-77108625D01*
X161413819Y-77166892D01*
X158870711Y-79710000D01*
X154893932Y-79710000D01*
X154848000Y-79705476D01*
X154802068Y-79710000D01*
X154664708Y-79723529D01*
X154488460Y-79776993D01*
X154326028Y-79863814D01*
X154183656Y-79980656D01*
X154154370Y-80016341D01*
X151644336Y-82526375D01*
X151608657Y-82555656D01*
X151491815Y-82698028D01*
X151427171Y-82818969D01*
X151404994Y-82860460D01*
X151351529Y-83036709D01*
X151333476Y-83220000D01*
X151338001Y-83265942D01*
X151338001Y-83472227D01*
X151111286Y-83658286D01*
X151003000Y-83790234D01*
X150894714Y-83658286D01*
X150645751Y-83453969D01*
X150361714Y-83302148D01*
X150053515Y-83208657D01*
X149733000Y-83177089D01*
X149412484Y-83208657D01*
X149104285Y-83302148D01*
X148820248Y-83453969D01*
X148571286Y-83658286D01*
X148464716Y-83788143D01*
X148259317Y-83574078D01*
X147995761Y-83389990D01*
X147701355Y-83260856D01*
X147573434Y-83229876D01*
X147320000Y-83349223D01*
X147320000Y-84963000D01*
X147340000Y-84963000D01*
X147340000Y-85217000D01*
X147320000Y-85217000D01*
X147320000Y-85237000D01*
X147066000Y-85237000D01*
X147066000Y-85217000D01*
X145558000Y-85217000D01*
X145558000Y-85487000D01*
X145614193Y-85803532D01*
X145731058Y-86103020D01*
X145904105Y-86373954D01*
X146126683Y-86605922D01*
X146390239Y-86790010D01*
X146684645Y-86919144D01*
X146812566Y-86950124D01*
X146838307Y-86938002D01*
X140766309Y-93010000D01*
X139175289Y-93010000D01*
X135746630Y-89581341D01*
X135717344Y-89545656D01*
X135574972Y-89428814D01*
X135412540Y-89341993D01*
X135236292Y-89288529D01*
X135098932Y-89275000D01*
X135053000Y-89270476D01*
X135007068Y-89275000D01*
X130119651Y-89275000D01*
X130047987Y-89167748D01*
X129820252Y-88940013D01*
X129713000Y-88868349D01*
X129713000Y-86072773D01*
X129939714Y-85886714D01*
X130046284Y-85756858D01*
X130251683Y-85970922D01*
X130515239Y-86155010D01*
X130809645Y-86284144D01*
X130937566Y-86315124D01*
X131191000Y-86195777D01*
X131191000Y-84582000D01*
X131171000Y-84582000D01*
X131171000Y-84328000D01*
X131191000Y-84328000D01*
X131191000Y-84308000D01*
X131445000Y-84308000D01*
X131445000Y-84328000D01*
X131465000Y-84328000D01*
X131465000Y-84582000D01*
X131445000Y-84582000D01*
X131445000Y-86195777D01*
X131698434Y-86315124D01*
X131826355Y-86284144D01*
X132120761Y-86155010D01*
X132384317Y-85970922D01*
X132589716Y-85756858D01*
X132696286Y-85886714D01*
X132945249Y-86091031D01*
X133229286Y-86242852D01*
X133537485Y-86336343D01*
X133858000Y-86367911D01*
X134178516Y-86336343D01*
X134486715Y-86242852D01*
X134770752Y-86091031D01*
X135019714Y-85886714D01*
X135128000Y-85754767D01*
X135236286Y-85886714D01*
X135485249Y-86091031D01*
X135769286Y-86242852D01*
X136077485Y-86336343D01*
X136398000Y-86367911D01*
X136718516Y-86336343D01*
X137026715Y-86242852D01*
X137310752Y-86091031D01*
X137559714Y-85886714D01*
X137764031Y-85637752D01*
X137915852Y-85353715D01*
X138009343Y-85045515D01*
X138033000Y-84805321D01*
X138033000Y-84693000D01*
X145558000Y-84693000D01*
X145558000Y-84963000D01*
X147066000Y-84963000D01*
X147066000Y-83349223D01*
X146812566Y-83229876D01*
X146684645Y-83260856D01*
X146390239Y-83389990D01*
X146126683Y-83574078D01*
X145904105Y-83806046D01*
X145731058Y-84076980D01*
X145614193Y-84376468D01*
X145558000Y-84693000D01*
X138033000Y-84693000D01*
X138033000Y-84142289D01*
X138855300Y-83319990D01*
X145788078Y-83319990D01*
X145834010Y-83324514D01*
X145879942Y-83319990D01*
X146017302Y-83306461D01*
X146193550Y-83252997D01*
X146355982Y-83166176D01*
X146498354Y-83049334D01*
X146527640Y-83013649D01*
X152350058Y-77191232D01*
X152360224Y-77194316D01*
X152654000Y-77223251D01*
X152947777Y-77194316D01*
X153230264Y-77108625D01*
X153490606Y-76969469D01*
X153718797Y-76782197D01*
X153906069Y-76554006D01*
X154045225Y-76293663D01*
X154130916Y-76011176D01*
X154152600Y-75791018D01*
X154152600Y-75338981D01*
X154130916Y-75118823D01*
X154045225Y-74836336D01*
X153906069Y-74575994D01*
X153718797Y-74347803D01*
X153490605Y-74160531D01*
X153230263Y-74021375D01*
X152947776Y-73935684D01*
X152654000Y-73906749D01*
X152360223Y-73935684D01*
X152077736Y-74021375D01*
X151817394Y-74160531D01*
X151589203Y-74347803D01*
X151401931Y-74575995D01*
X151384000Y-74609541D01*
X151366069Y-74575994D01*
X151178797Y-74347803D01*
X150950605Y-74160531D01*
X150690263Y-74021375D01*
X150407776Y-73935684D01*
X150114000Y-73906749D01*
X149820223Y-73935684D01*
X149537736Y-74021375D01*
X149277394Y-74160531D01*
X149049203Y-74347803D01*
X148861931Y-74575995D01*
X148844000Y-74609541D01*
X148826069Y-74575994D01*
X148638797Y-74347803D01*
X148410605Y-74160531D01*
X148150263Y-74021375D01*
X147867776Y-73935684D01*
X147574000Y-73906749D01*
X147280223Y-73935684D01*
X146997736Y-74021375D01*
X146737394Y-74160531D01*
X146509203Y-74347803D01*
X146321931Y-74575995D01*
X146304000Y-74609541D01*
X146286069Y-74575994D01*
X146098797Y-74347803D01*
X145870605Y-74160531D01*
X145610263Y-74021375D01*
X145327776Y-73935684D01*
X145034000Y-73906749D01*
X144740223Y-73935684D01*
X144457736Y-74021375D01*
X144197394Y-74160531D01*
X143969203Y-74347803D01*
X143781931Y-74575995D01*
X143764000Y-74609541D01*
X143746069Y-74575994D01*
X143558797Y-74347803D01*
X143330605Y-74160531D01*
X143070263Y-74021375D01*
X142787776Y-73935684D01*
X142494000Y-73906749D01*
X142200223Y-73935684D01*
X141917736Y-74021375D01*
X141657394Y-74160531D01*
X141429203Y-74347803D01*
X141241931Y-74575995D01*
X141224000Y-74609541D01*
X141206069Y-74575994D01*
X141018797Y-74347803D01*
X140790605Y-74160531D01*
X140530263Y-74021375D01*
X140247776Y-73935684D01*
X139954000Y-73906749D01*
X139660223Y-73935684D01*
X139377736Y-74021375D01*
X139117394Y-74160531D01*
X138889203Y-74347803D01*
X138701931Y-74575995D01*
X138680576Y-74615947D01*
X138532486Y-74413271D01*
X138316035Y-74214267D01*
X138064919Y-74061314D01*
X137788789Y-73960291D01*
X137773026Y-73957642D01*
X137541000Y-74078783D01*
X137541000Y-75438000D01*
X137561000Y-75438000D01*
X137561000Y-75692000D01*
X137541000Y-75692000D01*
X137541000Y-75712000D01*
X137287000Y-75712000D01*
X137287000Y-75692000D01*
X137267000Y-75692000D01*
X137267000Y-75438000D01*
X137287000Y-75438000D01*
X137287000Y-74078783D01*
X137054974Y-73957642D01*
X137039211Y-73960291D01*
X136763081Y-74061314D01*
X136511965Y-74214267D01*
X136295514Y-74413271D01*
X136147424Y-74615947D01*
X136126069Y-74575994D01*
X135938797Y-74347803D01*
X135710605Y-74160531D01*
X135450263Y-74021375D01*
X135167776Y-73935684D01*
X134874000Y-73906749D01*
X134580223Y-73935684D01*
X134297736Y-74021375D01*
X134037394Y-74160531D01*
X133809203Y-74347803D01*
X133621931Y-74575995D01*
X133604000Y-74609541D01*
X133586069Y-74575994D01*
X133398797Y-74347803D01*
X133170605Y-74160531D01*
X132910263Y-74021375D01*
X132627776Y-73935684D01*
X132334000Y-73906749D01*
X132040223Y-73935684D01*
X131757736Y-74021375D01*
X131497394Y-74160531D01*
X131269203Y-74347803D01*
X131081931Y-74575995D01*
X131064000Y-74609541D01*
X131046069Y-74575994D01*
X130858797Y-74347803D01*
X130630605Y-74160531D01*
X130370263Y-74021375D01*
X130087776Y-73935684D01*
X129794000Y-73906749D01*
X129500223Y-73935684D01*
X129217736Y-74021375D01*
X128957394Y-74160531D01*
X128729203Y-74347803D01*
X128657001Y-74435781D01*
X128601464Y-74301702D01*
X128309594Y-73864887D01*
X128179707Y-73735000D01*
X175219909Y-73735000D01*
X176328001Y-74843093D01*
G37*
%TD.AperFunction*%
%TD*%
M02*
